G04 EAGLE Gerber RS-274X export*
G75*
%MOMM*%
%FSLAX34Y34*%
%LPD*%
%INBottom Copper*%
%IPPOS*%
%AMOC8*
5,1,8,0,0,1.08239X$1,22.5*%
G01*
%ADD10P,1.429621X8X292.500000*%
%ADD11P,1.429621X8X202.500000*%
%ADD12P,1.429621X8X112.500000*%
%ADD13C,1.320800*%
%ADD14C,1.879600*%
%ADD15C,1.408000*%
%ADD16C,0.756400*%
%ADD17C,0.406400*%
%ADD18C,0.609600*%

G36*
X115464Y10176D02*
X115464Y10176D01*
X115561Y10186D01*
X115585Y10196D01*
X115611Y10200D01*
X115697Y10246D01*
X115786Y10286D01*
X115805Y10303D01*
X115828Y10316D01*
X115895Y10386D01*
X115967Y10452D01*
X115979Y10475D01*
X115997Y10494D01*
X116038Y10582D01*
X116085Y10668D01*
X116090Y10693D01*
X116101Y10717D01*
X116112Y10814D01*
X116129Y10910D01*
X116125Y10936D01*
X116128Y10961D01*
X116108Y11057D01*
X116093Y11153D01*
X116082Y11176D01*
X116076Y11202D01*
X116026Y11285D01*
X115982Y11372D01*
X115963Y11391D01*
X115950Y11413D01*
X115876Y11476D01*
X115806Y11544D01*
X115778Y11560D01*
X115763Y11573D01*
X115732Y11585D01*
X115659Y11625D01*
X113024Y12717D01*
X109237Y16504D01*
X107187Y21452D01*
X107187Y26808D01*
X109237Y31756D01*
X113024Y35543D01*
X116410Y36946D01*
X116496Y36999D01*
X116585Y37047D01*
X116600Y37064D01*
X116619Y37075D01*
X116683Y37153D01*
X116752Y37227D01*
X116761Y37248D01*
X116776Y37265D01*
X116812Y37359D01*
X116854Y37452D01*
X116856Y37474D01*
X116864Y37494D01*
X116868Y37595D01*
X116878Y37696D01*
X116873Y37718D01*
X116874Y37740D01*
X116846Y37837D01*
X116823Y37936D01*
X116812Y37955D01*
X116806Y37976D01*
X116748Y38059D01*
X116695Y38146D01*
X116678Y38160D01*
X116665Y38178D01*
X116584Y38239D01*
X116506Y38304D01*
X116482Y38315D01*
X116468Y38325D01*
X116437Y38335D01*
X116354Y38373D01*
X116067Y38466D01*
X114393Y39319D01*
X112872Y40424D01*
X111544Y41752D01*
X110439Y43273D01*
X109586Y44947D01*
X109005Y46734D01*
X108804Y48007D01*
X119888Y48007D01*
X119908Y48010D01*
X119927Y48008D01*
X120029Y48030D01*
X120131Y48047D01*
X120148Y48056D01*
X120168Y48060D01*
X120257Y48113D01*
X120348Y48162D01*
X120362Y48176D01*
X120379Y48186D01*
X120446Y48265D01*
X120517Y48340D01*
X120526Y48358D01*
X120539Y48373D01*
X120577Y48469D01*
X120621Y48563D01*
X120623Y48583D01*
X120631Y48601D01*
X120649Y48768D01*
X120649Y50292D01*
X120646Y50312D01*
X120648Y50331D01*
X120626Y50433D01*
X120609Y50535D01*
X120600Y50552D01*
X120596Y50572D01*
X120543Y50661D01*
X120494Y50752D01*
X120480Y50766D01*
X120470Y50783D01*
X120391Y50850D01*
X120316Y50921D01*
X120298Y50930D01*
X120283Y50943D01*
X120187Y50982D01*
X120093Y51025D01*
X120073Y51027D01*
X120055Y51035D01*
X119888Y51053D01*
X108804Y51053D01*
X109005Y52326D01*
X109586Y54113D01*
X110439Y55787D01*
X111544Y57308D01*
X112872Y58636D01*
X114393Y59741D01*
X116067Y60594D01*
X116354Y60687D01*
X116444Y60734D01*
X116536Y60775D01*
X116552Y60790D01*
X116572Y60800D01*
X116643Y60873D01*
X116717Y60941D01*
X116728Y60961D01*
X116743Y60977D01*
X116787Y61068D01*
X116836Y61157D01*
X116840Y61179D01*
X116849Y61199D01*
X116862Y61299D01*
X116880Y61399D01*
X116876Y61421D01*
X116879Y61443D01*
X116859Y61542D01*
X116844Y61642D01*
X116834Y61662D01*
X116829Y61684D01*
X116778Y61771D01*
X116732Y61861D01*
X116716Y61877D01*
X116705Y61896D01*
X116629Y61963D01*
X116557Y62034D01*
X116533Y62047D01*
X116520Y62058D01*
X116490Y62070D01*
X116410Y62114D01*
X113024Y63517D01*
X109237Y67304D01*
X107187Y72252D01*
X107187Y77608D01*
X109237Y82556D01*
X113024Y86343D01*
X114433Y86927D01*
X114494Y86965D01*
X114559Y86994D01*
X114598Y87029D01*
X114642Y87056D01*
X114688Y87112D01*
X114740Y87160D01*
X114765Y87206D01*
X114799Y87246D01*
X114824Y87313D01*
X114859Y87376D01*
X114868Y87427D01*
X114887Y87475D01*
X114890Y87547D01*
X114903Y87618D01*
X114895Y87669D01*
X114897Y87721D01*
X114877Y87790D01*
X114867Y87861D01*
X114843Y87907D01*
X114829Y87957D01*
X114788Y88016D01*
X114755Y88080D01*
X114718Y88117D01*
X114688Y88159D01*
X114631Y88202D01*
X114580Y88252D01*
X114517Y88287D01*
X114491Y88306D01*
X114469Y88313D01*
X114433Y88333D01*
X113024Y88917D01*
X109237Y92704D01*
X107187Y97652D01*
X107187Y103008D01*
X108903Y107151D01*
X108914Y107195D01*
X108933Y107237D01*
X108942Y107314D01*
X108959Y107390D01*
X108955Y107436D01*
X108960Y107481D01*
X108944Y107558D01*
X108936Y107635D01*
X108918Y107677D01*
X108908Y107722D01*
X108868Y107789D01*
X108836Y107860D01*
X108805Y107894D01*
X108782Y107933D01*
X108723Y107984D01*
X108670Y108041D01*
X108630Y108063D01*
X108595Y108093D01*
X108523Y108122D01*
X108454Y108159D01*
X108409Y108168D01*
X108367Y108185D01*
X108231Y108200D01*
X108212Y108203D01*
X108207Y108202D01*
X108200Y108203D01*
X43670Y108203D01*
X43579Y108189D01*
X43489Y108181D01*
X43459Y108169D01*
X43427Y108164D01*
X43346Y108121D01*
X43262Y108085D01*
X43230Y108059D01*
X43209Y108048D01*
X43187Y108025D01*
X43131Y107980D01*
X42799Y107648D01*
X39915Y106453D01*
X36793Y106453D01*
X33909Y107648D01*
X31702Y109855D01*
X30507Y112739D01*
X30507Y115861D01*
X31702Y118745D01*
X33909Y120952D01*
X36793Y122147D01*
X39915Y122147D01*
X42799Y120952D01*
X43131Y120620D01*
X43205Y120567D01*
X43275Y120507D01*
X43305Y120495D01*
X43331Y120476D01*
X43418Y120449D01*
X43503Y120415D01*
X43544Y120411D01*
X43566Y120404D01*
X43598Y120405D01*
X43670Y120397D01*
X152099Y120397D01*
X152189Y120411D01*
X152280Y120419D01*
X152310Y120431D01*
X152342Y120436D01*
X152423Y120479D01*
X152507Y120515D01*
X152539Y120541D01*
X152559Y120552D01*
X152582Y120575D01*
X152638Y120620D01*
X168178Y136160D01*
X168231Y136234D01*
X168291Y136304D01*
X168303Y136334D01*
X168322Y136360D01*
X168349Y136447D01*
X168383Y136532D01*
X168387Y136573D01*
X168394Y136595D01*
X168393Y136627D01*
X168401Y136699D01*
X168401Y142849D01*
X174651Y149099D01*
X183489Y149099D01*
X189739Y142849D01*
X189739Y134011D01*
X183489Y127761D01*
X177339Y127761D01*
X177249Y127747D01*
X177158Y127739D01*
X177128Y127727D01*
X177096Y127722D01*
X177015Y127679D01*
X176931Y127643D01*
X176899Y127617D01*
X176879Y127606D01*
X176856Y127583D01*
X176800Y127538D01*
X160216Y110954D01*
X160216Y110953D01*
X158394Y109131D01*
X156153Y108203D01*
X133100Y108203D01*
X133055Y108196D01*
X133009Y108198D01*
X132934Y108176D01*
X132857Y108164D01*
X132817Y108142D01*
X132773Y108129D01*
X132709Y108085D01*
X132640Y108048D01*
X132608Y108015D01*
X132571Y107989D01*
X132524Y107926D01*
X132471Y107870D01*
X132451Y107828D01*
X132424Y107792D01*
X132400Y107718D01*
X132367Y107647D01*
X132362Y107601D01*
X132348Y107558D01*
X132348Y107480D01*
X132340Y107403D01*
X132350Y107358D01*
X132350Y107312D01*
X132388Y107180D01*
X132392Y107162D01*
X132395Y107158D01*
X132397Y107151D01*
X134113Y103008D01*
X134113Y97652D01*
X132063Y92704D01*
X128276Y88917D01*
X126867Y88333D01*
X126806Y88296D01*
X126741Y88266D01*
X126702Y88231D01*
X126658Y88204D01*
X126612Y88148D01*
X126560Y88100D01*
X126535Y88054D01*
X126501Y88014D01*
X126476Y87947D01*
X126441Y87884D01*
X126432Y87833D01*
X126413Y87785D01*
X126410Y87713D01*
X126397Y87642D01*
X126405Y87591D01*
X126403Y87539D01*
X126423Y87470D01*
X126433Y87399D01*
X126457Y87353D01*
X126471Y87303D01*
X126512Y87244D01*
X126545Y87180D01*
X126582Y87143D01*
X126612Y87101D01*
X126669Y87058D01*
X126720Y87008D01*
X126783Y86973D01*
X126809Y86954D01*
X126831Y86947D01*
X126867Y86927D01*
X128276Y86343D01*
X132063Y82556D01*
X134113Y77608D01*
X134113Y72252D01*
X132063Y67304D01*
X128276Y63517D01*
X124890Y62114D01*
X124804Y62061D01*
X124715Y62013D01*
X124700Y61996D01*
X124681Y61985D01*
X124617Y61907D01*
X124548Y61833D01*
X124539Y61812D01*
X124524Y61795D01*
X124488Y61701D01*
X124446Y61608D01*
X124444Y61586D01*
X124436Y61566D01*
X124432Y61465D01*
X124422Y61364D01*
X124427Y61342D01*
X124426Y61320D01*
X124454Y61223D01*
X124477Y61124D01*
X124488Y61105D01*
X124494Y61084D01*
X124552Y61000D01*
X124605Y60914D01*
X124622Y60900D01*
X124635Y60882D01*
X124716Y60821D01*
X124794Y60756D01*
X124818Y60745D01*
X124832Y60735D01*
X124863Y60725D01*
X124946Y60687D01*
X125233Y60594D01*
X126907Y59741D01*
X128428Y58636D01*
X129756Y57308D01*
X130861Y55787D01*
X131714Y54113D01*
X132295Y52326D01*
X132496Y51053D01*
X121412Y51053D01*
X121392Y51050D01*
X121373Y51052D01*
X121271Y51030D01*
X121169Y51013D01*
X121152Y51004D01*
X121132Y51000D01*
X121043Y50947D01*
X120952Y50898D01*
X120938Y50884D01*
X120921Y50874D01*
X120854Y50795D01*
X120783Y50720D01*
X120774Y50702D01*
X120761Y50687D01*
X120723Y50591D01*
X120679Y50497D01*
X120677Y50477D01*
X120669Y50459D01*
X120651Y50292D01*
X120651Y48768D01*
X120654Y48748D01*
X120652Y48729D01*
X120674Y48627D01*
X120691Y48525D01*
X120700Y48508D01*
X120704Y48488D01*
X120757Y48399D01*
X120806Y48308D01*
X120820Y48294D01*
X120830Y48277D01*
X120909Y48210D01*
X120984Y48139D01*
X121002Y48130D01*
X121017Y48117D01*
X121113Y48078D01*
X121207Y48035D01*
X121227Y48033D01*
X121245Y48025D01*
X121412Y48007D01*
X132496Y48007D01*
X132295Y46734D01*
X131714Y44947D01*
X130861Y43273D01*
X129756Y41752D01*
X128428Y40424D01*
X126907Y39319D01*
X125233Y38466D01*
X124946Y38373D01*
X124856Y38326D01*
X124764Y38285D01*
X124748Y38270D01*
X124728Y38260D01*
X124657Y38187D01*
X124583Y38119D01*
X124572Y38099D01*
X124557Y38083D01*
X124513Y37992D01*
X124464Y37903D01*
X124460Y37881D01*
X124451Y37861D01*
X124438Y37761D01*
X124420Y37661D01*
X124424Y37639D01*
X124421Y37617D01*
X124441Y37518D01*
X124456Y37418D01*
X124466Y37398D01*
X124471Y37376D01*
X124522Y37289D01*
X124568Y37199D01*
X124584Y37183D01*
X124595Y37164D01*
X124671Y37097D01*
X124743Y37026D01*
X124767Y37013D01*
X124780Y37002D01*
X124810Y36990D01*
X124890Y36946D01*
X128276Y35543D01*
X132063Y31756D01*
X134113Y26808D01*
X134113Y21452D01*
X132063Y16504D01*
X128276Y12717D01*
X125641Y11625D01*
X125558Y11574D01*
X125472Y11528D01*
X125454Y11510D01*
X125432Y11496D01*
X125369Y11420D01*
X125303Y11350D01*
X125292Y11326D01*
X125275Y11306D01*
X125240Y11215D01*
X125199Y11127D01*
X125196Y11101D01*
X125187Y11077D01*
X125183Y10979D01*
X125172Y10883D01*
X125177Y10857D01*
X125176Y10831D01*
X125203Y10737D01*
X125224Y10642D01*
X125237Y10620D01*
X125245Y10595D01*
X125300Y10515D01*
X125350Y10431D01*
X125370Y10414D01*
X125385Y10393D01*
X125463Y10334D01*
X125537Y10271D01*
X125561Y10261D01*
X125582Y10246D01*
X125675Y10216D01*
X125765Y10179D01*
X125798Y10176D01*
X125816Y10170D01*
X125849Y10170D01*
X125932Y10161D01*
X150583Y10161D01*
X150587Y10161D01*
X150591Y10161D01*
X150710Y10181D01*
X150826Y10200D01*
X150830Y10202D01*
X150834Y10203D01*
X150939Y10260D01*
X151044Y10316D01*
X151046Y10318D01*
X151050Y10320D01*
X151131Y10408D01*
X151213Y10494D01*
X151215Y10498D01*
X151217Y10501D01*
X151266Y10608D01*
X151317Y10717D01*
X151317Y10721D01*
X151319Y10725D01*
X151331Y10844D01*
X151344Y10961D01*
X151343Y10965D01*
X151343Y10969D01*
X151317Y11086D01*
X151291Y11202D01*
X151289Y11205D01*
X151288Y11209D01*
X151226Y11311D01*
X151165Y11413D01*
X151162Y11416D01*
X151160Y11419D01*
X151069Y11495D01*
X150978Y11573D01*
X150975Y11574D01*
X150972Y11577D01*
X150819Y11646D01*
X150357Y11796D01*
X148683Y12649D01*
X147162Y13754D01*
X145834Y15082D01*
X144729Y16603D01*
X143876Y18277D01*
X143295Y20064D01*
X143094Y21337D01*
X154178Y21337D01*
X154198Y21340D01*
X154217Y21338D01*
X154319Y21360D01*
X154421Y21377D01*
X154438Y21386D01*
X154458Y21390D01*
X154547Y21443D01*
X154638Y21492D01*
X154652Y21506D01*
X154669Y21516D01*
X154736Y21595D01*
X154807Y21670D01*
X154816Y21688D01*
X154829Y21703D01*
X154867Y21799D01*
X154911Y21893D01*
X154913Y21913D01*
X154921Y21931D01*
X154939Y22098D01*
X154939Y23622D01*
X154936Y23642D01*
X154938Y23661D01*
X154916Y23763D01*
X154899Y23865D01*
X154890Y23882D01*
X154886Y23902D01*
X154833Y23991D01*
X154784Y24082D01*
X154770Y24096D01*
X154760Y24113D01*
X154681Y24180D01*
X154606Y24251D01*
X154588Y24260D01*
X154573Y24273D01*
X154477Y24312D01*
X154383Y24355D01*
X154363Y24357D01*
X154345Y24365D01*
X154178Y24383D01*
X143094Y24383D01*
X143295Y25656D01*
X143876Y27443D01*
X144729Y29117D01*
X145834Y30638D01*
X147162Y31966D01*
X148683Y33071D01*
X150357Y33924D01*
X150644Y34017D01*
X150734Y34064D01*
X150826Y34105D01*
X150842Y34120D01*
X150862Y34130D01*
X150933Y34203D01*
X151007Y34271D01*
X151018Y34291D01*
X151033Y34307D01*
X151077Y34398D01*
X151126Y34487D01*
X151130Y34509D01*
X151139Y34529D01*
X151152Y34629D01*
X151170Y34729D01*
X151166Y34751D01*
X151169Y34773D01*
X151149Y34872D01*
X151134Y34972D01*
X151124Y34992D01*
X151119Y35014D01*
X151068Y35101D01*
X151022Y35191D01*
X151006Y35207D01*
X150995Y35226D01*
X150919Y35293D01*
X150847Y35364D01*
X150823Y35377D01*
X150810Y35388D01*
X150780Y35400D01*
X150700Y35444D01*
X147314Y36847D01*
X143527Y40634D01*
X141477Y45582D01*
X141477Y50938D01*
X143527Y55886D01*
X147314Y59673D01*
X152262Y61723D01*
X157618Y61723D01*
X162566Y59673D01*
X166353Y55886D01*
X168403Y50938D01*
X168403Y45582D01*
X166353Y40634D01*
X162566Y36847D01*
X159180Y35444D01*
X159094Y35391D01*
X159005Y35343D01*
X158990Y35326D01*
X158971Y35315D01*
X158907Y35237D01*
X158838Y35163D01*
X158829Y35142D01*
X158814Y35125D01*
X158778Y35031D01*
X158736Y34938D01*
X158734Y34916D01*
X158726Y34896D01*
X158722Y34795D01*
X158712Y34694D01*
X158717Y34672D01*
X158716Y34650D01*
X158744Y34553D01*
X158767Y34454D01*
X158778Y34435D01*
X158784Y34414D01*
X158842Y34331D01*
X158895Y34244D01*
X158912Y34230D01*
X158925Y34212D01*
X159006Y34151D01*
X159084Y34086D01*
X159108Y34075D01*
X159122Y34065D01*
X159153Y34055D01*
X159236Y34017D01*
X159523Y33924D01*
X161197Y33071D01*
X162718Y31966D01*
X164046Y30638D01*
X165151Y29117D01*
X166004Y27443D01*
X166585Y25656D01*
X166786Y24383D01*
X155702Y24383D01*
X155682Y24380D01*
X155663Y24382D01*
X155561Y24360D01*
X155459Y24343D01*
X155442Y24334D01*
X155422Y24330D01*
X155333Y24277D01*
X155242Y24228D01*
X155228Y24214D01*
X155211Y24204D01*
X155144Y24125D01*
X155073Y24050D01*
X155064Y24032D01*
X155051Y24017D01*
X155013Y23921D01*
X154969Y23827D01*
X154967Y23807D01*
X154959Y23789D01*
X154941Y23622D01*
X154941Y22098D01*
X154944Y22078D01*
X154942Y22059D01*
X154964Y21957D01*
X154981Y21855D01*
X154990Y21838D01*
X154994Y21818D01*
X155047Y21729D01*
X155096Y21638D01*
X155110Y21624D01*
X155120Y21607D01*
X155199Y21540D01*
X155274Y21469D01*
X155292Y21460D01*
X155307Y21447D01*
X155403Y21408D01*
X155497Y21365D01*
X155517Y21363D01*
X155535Y21355D01*
X155702Y21337D01*
X166786Y21337D01*
X166585Y20064D01*
X166004Y18277D01*
X165151Y16603D01*
X164046Y15082D01*
X162718Y13754D01*
X161197Y12649D01*
X159523Y11796D01*
X159061Y11646D01*
X159058Y11644D01*
X159054Y11643D01*
X158949Y11588D01*
X158843Y11533D01*
X158840Y11530D01*
X158836Y11528D01*
X158755Y11443D01*
X158672Y11357D01*
X158670Y11353D01*
X158667Y11350D01*
X158617Y11242D01*
X158566Y11135D01*
X158565Y11131D01*
X158563Y11127D01*
X158550Y11008D01*
X158536Y10890D01*
X158537Y10886D01*
X158536Y10883D01*
X158562Y10766D01*
X158586Y10650D01*
X158588Y10646D01*
X158589Y10642D01*
X158650Y10540D01*
X158710Y10437D01*
X158713Y10434D01*
X158715Y10431D01*
X158806Y10353D01*
X158895Y10275D01*
X158899Y10274D01*
X158902Y10271D01*
X159012Y10227D01*
X159122Y10181D01*
X159126Y10181D01*
X159130Y10179D01*
X159297Y10161D01*
X203847Y10161D01*
X203918Y10172D01*
X203989Y10174D01*
X204038Y10192D01*
X204090Y10200D01*
X204153Y10234D01*
X204220Y10259D01*
X204261Y10291D01*
X204307Y10316D01*
X204356Y10368D01*
X204412Y10412D01*
X204441Y10456D01*
X204477Y10494D01*
X204507Y10559D01*
X204545Y10619D01*
X204558Y10670D01*
X204580Y10717D01*
X204588Y10788D01*
X204606Y10858D01*
X204601Y10910D01*
X204607Y10961D01*
X204592Y11032D01*
X204586Y11103D01*
X204566Y11151D01*
X204555Y11202D01*
X204518Y11263D01*
X204490Y11329D01*
X204445Y11385D01*
X204429Y11413D01*
X204411Y11428D01*
X204385Y11460D01*
X201806Y14040D01*
X200115Y18121D01*
X200115Y22539D01*
X201806Y26620D01*
X204930Y29744D01*
X209011Y31435D01*
X213429Y31435D01*
X217510Y29744D01*
X220634Y26620D01*
X222325Y22539D01*
X222325Y18121D01*
X220634Y14040D01*
X218055Y11460D01*
X218013Y11402D01*
X217963Y11350D01*
X217942Y11303D01*
X217911Y11261D01*
X217890Y11192D01*
X217860Y11127D01*
X217854Y11075D01*
X217839Y11025D01*
X217841Y10954D01*
X217833Y10883D01*
X217844Y10832D01*
X217845Y10780D01*
X217870Y10712D01*
X217885Y10642D01*
X217912Y10597D01*
X217930Y10549D01*
X217974Y10493D01*
X218011Y10431D01*
X218051Y10397D01*
X218083Y10357D01*
X218144Y10318D01*
X218198Y10271D01*
X218246Y10252D01*
X218290Y10224D01*
X218360Y10206D01*
X218426Y10179D01*
X218498Y10171D01*
X218529Y10163D01*
X218552Y10165D01*
X218593Y10161D01*
X228847Y10161D01*
X228918Y10172D01*
X228989Y10174D01*
X229038Y10192D01*
X229090Y10200D01*
X229153Y10234D01*
X229220Y10259D01*
X229261Y10291D01*
X229307Y10316D01*
X229356Y10368D01*
X229412Y10412D01*
X229441Y10456D01*
X229477Y10494D01*
X229507Y10559D01*
X229545Y10619D01*
X229558Y10670D01*
X229580Y10717D01*
X229588Y10788D01*
X229606Y10858D01*
X229601Y10910D01*
X229607Y10961D01*
X229592Y11032D01*
X229586Y11103D01*
X229566Y11151D01*
X229555Y11202D01*
X229518Y11263D01*
X229490Y11329D01*
X229445Y11385D01*
X229429Y11413D01*
X229411Y11428D01*
X229385Y11460D01*
X226806Y14040D01*
X225115Y18121D01*
X225115Y22539D01*
X226806Y26620D01*
X229930Y29744D01*
X234011Y31435D01*
X238429Y31435D01*
X242510Y29744D01*
X245634Y26620D01*
X247325Y22539D01*
X247325Y18121D01*
X245634Y14040D01*
X243055Y11460D01*
X243013Y11402D01*
X242963Y11350D01*
X242942Y11303D01*
X242911Y11261D01*
X242890Y11192D01*
X242860Y11127D01*
X242854Y11075D01*
X242839Y11025D01*
X242841Y10954D01*
X242833Y10883D01*
X242844Y10832D01*
X242845Y10780D01*
X242870Y10712D01*
X242885Y10642D01*
X242912Y10597D01*
X242930Y10549D01*
X242974Y10493D01*
X243011Y10431D01*
X243051Y10397D01*
X243083Y10357D01*
X243144Y10318D01*
X243198Y10271D01*
X243246Y10252D01*
X243290Y10224D01*
X243360Y10206D01*
X243426Y10179D01*
X243498Y10171D01*
X243529Y10163D01*
X243552Y10165D01*
X243593Y10161D01*
X253847Y10161D01*
X253918Y10172D01*
X253989Y10174D01*
X254038Y10192D01*
X254090Y10200D01*
X254153Y10234D01*
X254220Y10259D01*
X254261Y10291D01*
X254307Y10316D01*
X254356Y10368D01*
X254412Y10412D01*
X254441Y10456D01*
X254477Y10494D01*
X254507Y10559D01*
X254545Y10619D01*
X254558Y10670D01*
X254580Y10717D01*
X254588Y10788D01*
X254606Y10858D01*
X254601Y10910D01*
X254607Y10961D01*
X254592Y11032D01*
X254586Y11103D01*
X254566Y11151D01*
X254555Y11202D01*
X254518Y11263D01*
X254490Y11329D01*
X254445Y11385D01*
X254429Y11413D01*
X254411Y11428D01*
X254385Y11460D01*
X251806Y14040D01*
X250115Y18121D01*
X250115Y22539D01*
X251806Y26620D01*
X254930Y29744D01*
X259011Y31435D01*
X263429Y31435D01*
X267510Y29744D01*
X270634Y26620D01*
X272325Y22539D01*
X272325Y18121D01*
X270634Y14040D01*
X268055Y11460D01*
X268013Y11402D01*
X267963Y11350D01*
X267942Y11303D01*
X267911Y11261D01*
X267890Y11192D01*
X267860Y11127D01*
X267854Y11075D01*
X267839Y11025D01*
X267841Y10954D01*
X267833Y10883D01*
X267844Y10832D01*
X267845Y10780D01*
X267870Y10712D01*
X267885Y10642D01*
X267912Y10597D01*
X267930Y10549D01*
X267974Y10493D01*
X268011Y10431D01*
X268051Y10397D01*
X268083Y10357D01*
X268144Y10318D01*
X268198Y10271D01*
X268246Y10252D01*
X268290Y10224D01*
X268360Y10206D01*
X268426Y10179D01*
X268498Y10171D01*
X268529Y10163D01*
X268552Y10165D01*
X268593Y10161D01*
X289002Y10161D01*
X289073Y10172D01*
X289145Y10174D01*
X289194Y10192D01*
X289245Y10200D01*
X289308Y10234D01*
X289376Y10259D01*
X289416Y10291D01*
X289462Y10316D01*
X289512Y10368D01*
X289568Y10412D01*
X289596Y10456D01*
X289632Y10494D01*
X289662Y10559D01*
X289701Y10619D01*
X289713Y10670D01*
X289735Y10717D01*
X289743Y10788D01*
X289761Y10858D01*
X289757Y10910D01*
X289763Y10961D01*
X289747Y11032D01*
X289742Y11103D01*
X289721Y11151D01*
X289710Y11202D01*
X289673Y11263D01*
X289645Y11329D01*
X289601Y11385D01*
X289584Y11413D01*
X289566Y11428D01*
X289541Y11460D01*
X288307Y12694D01*
X286257Y17642D01*
X286257Y22998D01*
X288307Y27946D01*
X292094Y31733D01*
X297042Y33783D01*
X302398Y33783D01*
X307346Y31733D01*
X311133Y27946D01*
X311717Y26537D01*
X311754Y26476D01*
X311784Y26411D01*
X311819Y26372D01*
X311846Y26328D01*
X311902Y26282D01*
X311950Y26230D01*
X311996Y26205D01*
X312036Y26171D01*
X312103Y26146D01*
X312166Y26111D01*
X312217Y26102D01*
X312265Y26083D01*
X312337Y26080D01*
X312408Y26067D01*
X312459Y26075D01*
X312511Y26073D01*
X312580Y26093D01*
X312651Y26103D01*
X312697Y26127D01*
X312747Y26141D01*
X312806Y26182D01*
X312870Y26215D01*
X312907Y26252D01*
X312949Y26282D01*
X312992Y26339D01*
X313042Y26390D01*
X313077Y26453D01*
X313096Y26479D01*
X313103Y26501D01*
X313123Y26537D01*
X313707Y27946D01*
X317494Y31733D01*
X322442Y33783D01*
X327798Y33783D01*
X332746Y31733D01*
X336533Y27946D01*
X337117Y26537D01*
X337154Y26476D01*
X337184Y26411D01*
X337219Y26372D01*
X337246Y26328D01*
X337302Y26282D01*
X337350Y26230D01*
X337396Y26205D01*
X337436Y26171D01*
X337503Y26146D01*
X337566Y26111D01*
X337617Y26102D01*
X337665Y26083D01*
X337737Y26080D01*
X337808Y26067D01*
X337859Y26075D01*
X337911Y26073D01*
X337980Y26093D01*
X338051Y26103D01*
X338097Y26127D01*
X338147Y26141D01*
X338206Y26182D01*
X338270Y26215D01*
X338307Y26252D01*
X338349Y26282D01*
X338392Y26339D01*
X338442Y26390D01*
X338477Y26453D01*
X338496Y26479D01*
X338503Y26501D01*
X338523Y26537D01*
X339107Y27946D01*
X342894Y31733D01*
X347842Y33783D01*
X353198Y33783D01*
X358146Y31733D01*
X361933Y27946D01*
X362517Y26537D01*
X362554Y26476D01*
X362584Y26411D01*
X362619Y26372D01*
X362646Y26328D01*
X362702Y26282D01*
X362750Y26230D01*
X362796Y26205D01*
X362836Y26171D01*
X362903Y26146D01*
X362966Y26111D01*
X363017Y26102D01*
X363065Y26083D01*
X363137Y26080D01*
X363208Y26067D01*
X363259Y26075D01*
X363311Y26073D01*
X363380Y26093D01*
X363451Y26103D01*
X363497Y26127D01*
X363547Y26141D01*
X363606Y26182D01*
X363670Y26215D01*
X363707Y26252D01*
X363749Y26282D01*
X363792Y26339D01*
X363842Y26390D01*
X363877Y26453D01*
X363896Y26479D01*
X363903Y26501D01*
X363923Y26537D01*
X364507Y27946D01*
X368294Y31733D01*
X373242Y33783D01*
X378598Y33783D01*
X383546Y31733D01*
X387333Y27946D01*
X387917Y26537D01*
X387954Y26476D01*
X387984Y26411D01*
X388019Y26372D01*
X388046Y26328D01*
X388102Y26282D01*
X388150Y26230D01*
X388196Y26205D01*
X388236Y26171D01*
X388303Y26146D01*
X388366Y26111D01*
X388417Y26102D01*
X388465Y26083D01*
X388537Y26080D01*
X388608Y26067D01*
X388659Y26075D01*
X388711Y26073D01*
X388780Y26093D01*
X388851Y26103D01*
X388897Y26127D01*
X388947Y26141D01*
X389006Y26182D01*
X389070Y26215D01*
X389107Y26252D01*
X389149Y26282D01*
X389192Y26339D01*
X389242Y26390D01*
X389277Y26453D01*
X389296Y26479D01*
X389303Y26501D01*
X389323Y26537D01*
X389907Y27946D01*
X393694Y31733D01*
X398642Y33783D01*
X403998Y33783D01*
X408946Y31733D01*
X412733Y27946D01*
X414136Y24560D01*
X414189Y24474D01*
X414237Y24385D01*
X414254Y24370D01*
X414265Y24351D01*
X414343Y24287D01*
X414417Y24218D01*
X414438Y24209D01*
X414455Y24194D01*
X414549Y24158D01*
X414642Y24116D01*
X414664Y24114D01*
X414684Y24106D01*
X414785Y24102D01*
X414886Y24092D01*
X414908Y24097D01*
X414930Y24096D01*
X415027Y24124D01*
X415126Y24147D01*
X415145Y24158D01*
X415166Y24164D01*
X415249Y24222D01*
X415336Y24275D01*
X415350Y24292D01*
X415368Y24305D01*
X415429Y24386D01*
X415494Y24464D01*
X415505Y24488D01*
X415515Y24502D01*
X415525Y24533D01*
X415563Y24616D01*
X415656Y24903D01*
X416509Y26577D01*
X417614Y28098D01*
X418942Y29426D01*
X420463Y30531D01*
X422137Y31384D01*
X423924Y31965D01*
X425197Y32166D01*
X425197Y21082D01*
X425200Y21062D01*
X425198Y21043D01*
X425220Y20941D01*
X425237Y20839D01*
X425246Y20822D01*
X425250Y20802D01*
X425303Y20713D01*
X425352Y20622D01*
X425366Y20608D01*
X425376Y20591D01*
X425455Y20524D01*
X425530Y20453D01*
X425548Y20444D01*
X425563Y20431D01*
X425659Y20393D01*
X425753Y20349D01*
X425773Y20347D01*
X425791Y20339D01*
X425958Y20321D01*
X426721Y20321D01*
X426721Y19558D01*
X426724Y19538D01*
X426722Y19519D01*
X426744Y19417D01*
X426761Y19315D01*
X426770Y19298D01*
X426774Y19278D01*
X426827Y19189D01*
X426876Y19098D01*
X426890Y19084D01*
X426900Y19067D01*
X426979Y19000D01*
X427054Y18929D01*
X427072Y18920D01*
X427087Y18907D01*
X427183Y18868D01*
X427277Y18825D01*
X427297Y18823D01*
X427315Y18815D01*
X427482Y18797D01*
X438566Y18797D01*
X438365Y17524D01*
X437784Y15737D01*
X436931Y14063D01*
X435826Y12542D01*
X434744Y11460D01*
X434702Y11402D01*
X434653Y11350D01*
X434631Y11303D01*
X434601Y11261D01*
X434580Y11192D01*
X434549Y11127D01*
X434544Y11075D01*
X434528Y11025D01*
X434530Y10954D01*
X434522Y10883D01*
X434533Y10832D01*
X434535Y10780D01*
X434559Y10712D01*
X434574Y10642D01*
X434601Y10597D01*
X434619Y10549D01*
X434664Y10493D01*
X434701Y10431D01*
X434740Y10397D01*
X434773Y10357D01*
X434833Y10318D01*
X434888Y10271D01*
X434936Y10252D01*
X434980Y10224D01*
X435049Y10206D01*
X435116Y10179D01*
X435187Y10171D01*
X435218Y10163D01*
X435242Y10165D01*
X435282Y10161D01*
X447368Y10161D01*
X447438Y10172D01*
X447510Y10174D01*
X447559Y10192D01*
X447610Y10200D01*
X447674Y10234D01*
X447741Y10259D01*
X447782Y10291D01*
X447828Y10316D01*
X447877Y10368D01*
X447933Y10412D01*
X447961Y10456D01*
X447997Y10494D01*
X448027Y10559D01*
X448066Y10619D01*
X448079Y10670D01*
X448101Y10717D01*
X448109Y10788D01*
X448126Y10858D01*
X448122Y10910D01*
X448128Y10961D01*
X448113Y11032D01*
X448107Y11103D01*
X448087Y11151D01*
X448076Y11202D01*
X448039Y11263D01*
X448011Y11329D01*
X447966Y11385D01*
X447949Y11413D01*
X447932Y11428D01*
X447906Y11460D01*
X446824Y12542D01*
X445719Y14063D01*
X444866Y15737D01*
X444285Y17524D01*
X444084Y18797D01*
X455168Y18797D01*
X455188Y18800D01*
X455207Y18798D01*
X455309Y18820D01*
X455411Y18837D01*
X455428Y18846D01*
X455448Y18850D01*
X455537Y18903D01*
X455628Y18952D01*
X455642Y18966D01*
X455659Y18976D01*
X455726Y19055D01*
X455797Y19130D01*
X455806Y19148D01*
X455819Y19163D01*
X455857Y19259D01*
X455901Y19353D01*
X455903Y19373D01*
X455911Y19391D01*
X455929Y19558D01*
X455929Y21082D01*
X455926Y21102D01*
X455928Y21121D01*
X455906Y21223D01*
X455889Y21325D01*
X455880Y21342D01*
X455876Y21362D01*
X455823Y21451D01*
X455774Y21542D01*
X455760Y21556D01*
X455750Y21573D01*
X455671Y21640D01*
X455596Y21711D01*
X455578Y21720D01*
X455563Y21733D01*
X455467Y21772D01*
X455373Y21815D01*
X455353Y21817D01*
X455335Y21825D01*
X455168Y21843D01*
X444084Y21843D01*
X444285Y23116D01*
X444866Y24903D01*
X445719Y26577D01*
X446824Y28098D01*
X448152Y29426D01*
X449673Y30531D01*
X451347Y31384D01*
X451634Y31477D01*
X451724Y31524D01*
X451816Y31565D01*
X451832Y31580D01*
X451852Y31590D01*
X451923Y31663D01*
X451997Y31731D01*
X452008Y31751D01*
X452023Y31767D01*
X452067Y31858D01*
X452116Y31947D01*
X452120Y31969D01*
X452129Y31989D01*
X452142Y32089D01*
X452160Y32189D01*
X452156Y32211D01*
X452159Y32233D01*
X452139Y32332D01*
X452124Y32432D01*
X452114Y32452D01*
X452109Y32474D01*
X452058Y32561D01*
X452012Y32651D01*
X451996Y32667D01*
X451985Y32686D01*
X451909Y32753D01*
X451837Y32824D01*
X451813Y32837D01*
X451800Y32848D01*
X451770Y32860D01*
X451690Y32904D01*
X448304Y34307D01*
X444517Y38094D01*
X444078Y39153D01*
X444017Y39253D01*
X443957Y39353D01*
X443952Y39357D01*
X443948Y39362D01*
X443859Y39437D01*
X443770Y39513D01*
X443764Y39515D01*
X443759Y39519D01*
X443651Y39561D01*
X443541Y39605D01*
X443534Y39606D01*
X443529Y39607D01*
X443511Y39608D01*
X443375Y39623D01*
X283267Y39623D01*
X281026Y40551D01*
X272583Y48995D01*
X272546Y49021D01*
X272515Y49055D01*
X272447Y49093D01*
X272383Y49138D01*
X272340Y49152D01*
X272299Y49174D01*
X272223Y49188D01*
X272148Y49211D01*
X272103Y49209D01*
X272057Y49218D01*
X271980Y49206D01*
X271902Y49204D01*
X271859Y49188D01*
X271814Y49182D01*
X271745Y49147D01*
X271671Y49120D01*
X271636Y49091D01*
X271595Y49070D01*
X271540Y49015D01*
X271479Y48966D01*
X271455Y48927D01*
X271422Y48895D01*
X271357Y48775D01*
X271346Y48759D01*
X271345Y48754D01*
X271342Y48748D01*
X270634Y47040D01*
X267510Y43916D01*
X263429Y42225D01*
X259011Y42225D01*
X254930Y43916D01*
X251806Y47040D01*
X250115Y51121D01*
X250115Y55539D01*
X251806Y59620D01*
X254930Y62744D01*
X256638Y63452D01*
X256677Y63476D01*
X256720Y63492D01*
X256781Y63540D01*
X256847Y63581D01*
X256876Y63617D01*
X256912Y63645D01*
X256954Y63711D01*
X257004Y63771D01*
X257020Y63814D01*
X257045Y63852D01*
X257064Y63928D01*
X257092Y64000D01*
X257094Y64046D01*
X257105Y64091D01*
X257099Y64168D01*
X257102Y64246D01*
X257089Y64290D01*
X257086Y64336D01*
X257055Y64407D01*
X257034Y64482D01*
X257007Y64520D01*
X256990Y64562D01*
X256904Y64669D01*
X256893Y64684D01*
X256889Y64687D01*
X256885Y64693D01*
X234455Y87123D01*
X234418Y87150D01*
X234387Y87184D01*
X234318Y87221D01*
X234255Y87266D01*
X234211Y87280D01*
X234171Y87302D01*
X234094Y87316D01*
X234020Y87339D01*
X233974Y87338D01*
X233929Y87346D01*
X233852Y87335D01*
X233774Y87332D01*
X233731Y87317D01*
X233686Y87310D01*
X233616Y87275D01*
X233543Y87248D01*
X233507Y87219D01*
X233466Y87199D01*
X233412Y87143D01*
X233351Y87094D01*
X233326Y87056D01*
X233294Y87023D01*
X233228Y86903D01*
X233218Y86887D01*
X233217Y86883D01*
X233213Y86876D01*
X231549Y82857D01*
X228547Y79855D01*
X224626Y78231D01*
X207174Y78231D01*
X203253Y79855D01*
X200251Y82857D01*
X198627Y86778D01*
X198627Y91022D01*
X200251Y94943D01*
X203253Y97945D01*
X207174Y99569D01*
X220171Y99569D01*
X220242Y99580D01*
X220314Y99582D01*
X220363Y99600D01*
X220414Y99608D01*
X220477Y99642D01*
X220545Y99667D01*
X220586Y99699D01*
X220632Y99724D01*
X220681Y99775D01*
X220737Y99820D01*
X220765Y99864D01*
X220801Y99902D01*
X220831Y99967D01*
X220870Y100027D01*
X220883Y100078D01*
X220905Y100125D01*
X220912Y100196D01*
X220930Y100266D01*
X220926Y100318D01*
X220932Y100369D01*
X220916Y100440D01*
X220911Y100511D01*
X220890Y100559D01*
X220879Y100610D01*
X220843Y100671D01*
X220814Y100737D01*
X220770Y100793D01*
X220753Y100821D01*
X220735Y100836D01*
X220710Y100868D01*
X218170Y103408D01*
X218096Y103461D01*
X218026Y103521D01*
X217996Y103533D01*
X217970Y103552D01*
X217883Y103579D01*
X217798Y103613D01*
X217757Y103617D01*
X217735Y103624D01*
X217703Y103623D01*
X217631Y103631D01*
X207174Y103631D01*
X203253Y105255D01*
X200251Y108257D01*
X198627Y112178D01*
X198627Y116422D01*
X200251Y120343D01*
X203253Y123345D01*
X207174Y124969D01*
X224626Y124969D01*
X228547Y123345D01*
X231549Y120343D01*
X233173Y116422D01*
X233173Y112178D01*
X231534Y108222D01*
X231512Y108187D01*
X231452Y108104D01*
X231446Y108085D01*
X231435Y108068D01*
X231410Y107967D01*
X231379Y107869D01*
X231380Y107849D01*
X231375Y107829D01*
X231383Y107726D01*
X231386Y107623D01*
X231393Y107604D01*
X231394Y107584D01*
X231434Y107489D01*
X231470Y107392D01*
X231483Y107376D01*
X231490Y107358D01*
X231595Y107227D01*
X274064Y64758D01*
X274122Y64717D01*
X274174Y64667D01*
X274221Y64645D01*
X274263Y64615D01*
X274332Y64594D01*
X274397Y64563D01*
X274449Y64558D01*
X274499Y64542D01*
X274570Y64544D01*
X274641Y64536D01*
X274692Y64547D01*
X274744Y64549D01*
X274812Y64573D01*
X274882Y64589D01*
X274926Y64615D01*
X274975Y64633D01*
X275031Y64678D01*
X275093Y64715D01*
X275127Y64754D01*
X275167Y64787D01*
X275206Y64847D01*
X275253Y64902D01*
X275272Y64950D01*
X275300Y64994D01*
X275318Y65063D01*
X275345Y65130D01*
X275353Y65201D01*
X275361Y65232D01*
X275359Y65256D01*
X275363Y65297D01*
X275363Y67601D01*
X276558Y70485D01*
X278765Y72692D01*
X281649Y73887D01*
X284771Y73887D01*
X286403Y73211D01*
X286467Y73196D01*
X286528Y73171D01*
X286610Y73162D01*
X286642Y73155D01*
X286662Y73156D01*
X286694Y73153D01*
X329478Y73153D01*
X329568Y73167D01*
X329659Y73175D01*
X329689Y73187D01*
X329721Y73192D01*
X329802Y73235D01*
X329886Y73271D01*
X329918Y73297D01*
X329939Y73308D01*
X329961Y73331D01*
X330017Y73376D01*
X330327Y73686D01*
X330365Y73739D01*
X330411Y73786D01*
X330451Y73859D01*
X330470Y73885D01*
X330476Y73904D01*
X330492Y73933D01*
X331168Y75565D01*
X333375Y77772D01*
X336259Y78967D01*
X339381Y78967D01*
X342265Y77772D01*
X343124Y76913D01*
X343182Y76871D01*
X343234Y76822D01*
X343281Y76800D01*
X343323Y76770D01*
X343392Y76749D01*
X343457Y76718D01*
X343509Y76713D01*
X343559Y76697D01*
X343630Y76699D01*
X343701Y76691D01*
X343752Y76702D01*
X343804Y76704D01*
X343872Y76728D01*
X343942Y76744D01*
X343987Y76770D01*
X344035Y76788D01*
X344091Y76833D01*
X344153Y76870D01*
X344187Y76909D01*
X344227Y76942D01*
X344266Y77002D01*
X344313Y77057D01*
X344332Y77105D01*
X344360Y77149D01*
X344378Y77218D01*
X344405Y77285D01*
X344413Y77356D01*
X344421Y77387D01*
X344419Y77411D01*
X344423Y77451D01*
X344423Y78439D01*
X344409Y78529D01*
X344401Y78620D01*
X344389Y78650D01*
X344384Y78682D01*
X344341Y78763D01*
X344305Y78847D01*
X344279Y78879D01*
X344268Y78899D01*
X344245Y78922D01*
X344200Y78978D01*
X310655Y112523D01*
X310618Y112550D01*
X310587Y112584D01*
X310518Y112621D01*
X310455Y112666D01*
X310411Y112680D01*
X310371Y112702D01*
X310294Y112716D01*
X310220Y112739D01*
X310174Y112738D01*
X310129Y112746D01*
X310052Y112735D01*
X309974Y112732D01*
X309931Y112717D01*
X309886Y112710D01*
X309816Y112675D01*
X309743Y112648D01*
X309707Y112619D01*
X309666Y112599D01*
X309612Y112543D01*
X309551Y112494D01*
X309526Y112456D01*
X309494Y112423D01*
X309428Y112303D01*
X309418Y112287D01*
X309417Y112283D01*
X309413Y112276D01*
X307749Y108257D01*
X304747Y105255D01*
X300826Y103631D01*
X283374Y103631D01*
X279453Y105255D01*
X276451Y108257D01*
X274827Y112178D01*
X274827Y116422D01*
X276451Y120343D01*
X279453Y123345D01*
X283374Y124969D01*
X300826Y124969D01*
X301715Y124601D01*
X301759Y124590D01*
X301801Y124571D01*
X301878Y124562D01*
X301954Y124545D01*
X302000Y124549D01*
X302045Y124544D01*
X302122Y124560D01*
X302199Y124568D01*
X302241Y124586D01*
X302286Y124596D01*
X302353Y124636D01*
X302424Y124668D01*
X302458Y124699D01*
X302497Y124722D01*
X302548Y124781D01*
X302605Y124834D01*
X302627Y124874D01*
X302657Y124909D01*
X302686Y124981D01*
X302723Y125050D01*
X302732Y125095D01*
X302749Y125137D01*
X302764Y125273D01*
X302767Y125292D01*
X302766Y125297D01*
X302767Y125304D01*
X302767Y128696D01*
X302760Y128741D01*
X302762Y128787D01*
X302740Y128862D01*
X302728Y128939D01*
X302706Y128979D01*
X302693Y129023D01*
X302649Y129087D01*
X302612Y129156D01*
X302579Y129188D01*
X302553Y129225D01*
X302490Y129272D01*
X302434Y129326D01*
X302392Y129345D01*
X302356Y129372D01*
X302282Y129396D01*
X302211Y129429D01*
X302165Y129434D01*
X302122Y129448D01*
X302044Y129448D01*
X301967Y129456D01*
X301922Y129446D01*
X301876Y129446D01*
X301744Y129408D01*
X301726Y129404D01*
X301722Y129401D01*
X301715Y129399D01*
X300826Y129031D01*
X283374Y129031D01*
X279453Y130655D01*
X276451Y133657D01*
X274827Y137578D01*
X274827Y141822D01*
X276466Y145778D01*
X276488Y145813D01*
X276548Y145896D01*
X276554Y145915D01*
X276565Y145932D01*
X276590Y146033D01*
X276621Y146131D01*
X276620Y146151D01*
X276625Y146171D01*
X276617Y146274D01*
X276614Y146377D01*
X276607Y146396D01*
X276606Y146416D01*
X276566Y146511D01*
X276530Y146608D01*
X276517Y146624D01*
X276510Y146642D01*
X276405Y146773D01*
X234455Y188723D01*
X234418Y188750D01*
X234387Y188784D01*
X234318Y188821D01*
X234255Y188867D01*
X234211Y188880D01*
X234171Y188902D01*
X234094Y188916D01*
X234020Y188939D01*
X233974Y188938D01*
X233929Y188946D01*
X233852Y188935D01*
X233774Y188933D01*
X233731Y188917D01*
X233686Y188910D01*
X233616Y188875D01*
X233543Y188848D01*
X233507Y188819D01*
X233466Y188799D01*
X233412Y188743D01*
X233351Y188694D01*
X233326Y188656D01*
X233294Y188623D01*
X233228Y188503D01*
X233218Y188487D01*
X233217Y188483D01*
X233213Y188476D01*
X231549Y184457D01*
X228547Y181455D01*
X224626Y179831D01*
X207174Y179831D01*
X203253Y181455D01*
X200528Y184180D01*
X200454Y184233D01*
X200384Y184293D01*
X200354Y184305D01*
X200328Y184324D01*
X200241Y184351D01*
X200156Y184385D01*
X200115Y184389D01*
X200093Y184396D01*
X200061Y184395D01*
X199990Y184403D01*
X132316Y184403D01*
X132225Y184389D01*
X132135Y184381D01*
X132105Y184369D01*
X132073Y184364D01*
X131992Y184321D01*
X131908Y184285D01*
X131876Y184259D01*
X131855Y184248D01*
X131833Y184225D01*
X131777Y184180D01*
X131445Y183848D01*
X128561Y182653D01*
X125439Y182653D01*
X122555Y183848D01*
X120348Y186055D01*
X119153Y188939D01*
X119153Y192061D01*
X120348Y194945D01*
X122555Y197152D01*
X125439Y198347D01*
X128561Y198347D01*
X131445Y197152D01*
X131777Y196820D01*
X131851Y196767D01*
X131921Y196707D01*
X131951Y196695D01*
X131977Y196676D01*
X132064Y196649D01*
X132149Y196615D01*
X132190Y196611D01*
X132212Y196604D01*
X132244Y196605D01*
X132316Y196597D01*
X199990Y196597D01*
X200080Y196611D01*
X200171Y196619D01*
X200200Y196631D01*
X200232Y196636D01*
X200313Y196679D01*
X200397Y196715D01*
X200429Y196741D01*
X200450Y196752D01*
X200472Y196775D01*
X200528Y196820D01*
X203253Y199545D01*
X207174Y201169D01*
X220171Y201169D01*
X220242Y201180D01*
X220314Y201182D01*
X220363Y201200D01*
X220414Y201208D01*
X220477Y201242D01*
X220545Y201267D01*
X220586Y201299D01*
X220632Y201324D01*
X220681Y201375D01*
X220737Y201420D01*
X220765Y201464D01*
X220801Y201502D01*
X220831Y201567D01*
X220870Y201627D01*
X220883Y201678D01*
X220905Y201725D01*
X220912Y201796D01*
X220930Y201866D01*
X220926Y201918D01*
X220932Y201969D01*
X220916Y202040D01*
X220911Y202111D01*
X220890Y202159D01*
X220879Y202210D01*
X220843Y202271D01*
X220814Y202337D01*
X220770Y202393D01*
X220753Y202421D01*
X220735Y202436D01*
X220710Y202468D01*
X218170Y205008D01*
X218096Y205061D01*
X218026Y205121D01*
X217996Y205133D01*
X217970Y205152D01*
X217883Y205179D01*
X217798Y205213D01*
X217757Y205217D01*
X217735Y205224D01*
X217703Y205223D01*
X217631Y205231D01*
X207174Y205231D01*
X203253Y206855D01*
X200251Y209857D01*
X198627Y213778D01*
X198627Y218022D01*
X200251Y221943D01*
X203253Y224945D01*
X207174Y226569D01*
X224626Y226569D01*
X228547Y224945D01*
X231549Y221943D01*
X233173Y218022D01*
X233173Y213778D01*
X231534Y209822D01*
X231512Y209787D01*
X231452Y209704D01*
X231446Y209685D01*
X231435Y209668D01*
X231410Y209567D01*
X231379Y209469D01*
X231380Y209449D01*
X231375Y209429D01*
X231383Y209326D01*
X231386Y209223D01*
X231393Y209204D01*
X231394Y209184D01*
X231434Y209089D01*
X231470Y208992D01*
X231483Y208976D01*
X231490Y208958D01*
X231595Y208827D01*
X273545Y166877D01*
X273582Y166850D01*
X273613Y166816D01*
X273682Y166779D01*
X273745Y166734D01*
X273789Y166720D01*
X273829Y166698D01*
X273906Y166684D01*
X273980Y166661D01*
X274026Y166662D01*
X274071Y166654D01*
X274148Y166665D01*
X274226Y166668D01*
X274269Y166683D01*
X274314Y166690D01*
X274384Y166725D01*
X274457Y166752D01*
X274493Y166781D01*
X274534Y166801D01*
X274588Y166857D01*
X274649Y166906D01*
X274674Y166944D01*
X274706Y166977D01*
X274772Y167097D01*
X274782Y167113D01*
X274783Y167117D01*
X274787Y167124D01*
X276451Y171143D01*
X279453Y174145D01*
X283374Y175769D01*
X300826Y175769D01*
X304747Y174145D01*
X307749Y171143D01*
X309373Y167222D01*
X309373Y162978D01*
X307749Y159057D01*
X305301Y156609D01*
X305274Y156572D01*
X305240Y156541D01*
X305203Y156472D01*
X305157Y156409D01*
X305144Y156365D01*
X305122Y156325D01*
X305108Y156249D01*
X305085Y156174D01*
X305086Y156128D01*
X305078Y156083D01*
X305089Y156006D01*
X305091Y155928D01*
X305107Y155885D01*
X305114Y155840D01*
X305149Y155770D01*
X305176Y155697D01*
X305205Y155661D01*
X305225Y155621D01*
X305281Y155566D01*
X305330Y155505D01*
X305368Y155480D01*
X305401Y155448D01*
X305521Y155382D01*
X305536Y155372D01*
X305541Y155371D01*
X305548Y155367D01*
X306366Y155029D01*
X314033Y147362D01*
X314961Y145121D01*
X314961Y125777D01*
X314975Y125687D01*
X314983Y125596D01*
X314995Y125566D01*
X315000Y125534D01*
X315043Y125453D01*
X315079Y125369D01*
X315105Y125337D01*
X315116Y125317D01*
X315139Y125294D01*
X315184Y125238D01*
X340489Y99933D01*
X340505Y99921D01*
X340518Y99906D01*
X340605Y99849D01*
X340689Y99789D01*
X340708Y99783D01*
X340725Y99773D01*
X340825Y99747D01*
X340924Y99717D01*
X340944Y99717D01*
X340963Y99713D01*
X341066Y99721D01*
X341170Y99723D01*
X341189Y99730D01*
X341209Y99732D01*
X341303Y99772D01*
X341401Y99808D01*
X341417Y99820D01*
X341435Y99828D01*
X341566Y99933D01*
X341660Y100027D01*
X341713Y100101D01*
X341773Y100171D01*
X341785Y100201D01*
X341804Y100227D01*
X341831Y100314D01*
X341865Y100399D01*
X341869Y100440D01*
X341876Y100462D01*
X341875Y100494D01*
X341883Y100566D01*
X341883Y134384D01*
X341869Y134475D01*
X341861Y134565D01*
X341849Y134595D01*
X341844Y134627D01*
X341801Y134708D01*
X341765Y134792D01*
X341739Y134824D01*
X341728Y134845D01*
X341705Y134867D01*
X341660Y134923D01*
X341328Y135255D01*
X340133Y138139D01*
X340133Y141261D01*
X341328Y144145D01*
X343535Y146352D01*
X346063Y147399D01*
X346102Y147423D01*
X346145Y147439D01*
X346206Y147488D01*
X346272Y147529D01*
X346301Y147564D01*
X346337Y147593D01*
X346379Y147658D01*
X346429Y147718D01*
X346445Y147761D01*
X346470Y147800D01*
X346489Y147875D01*
X346517Y147948D01*
X346519Y147994D01*
X346530Y148038D01*
X346524Y148116D01*
X346527Y148194D01*
X346514Y148238D01*
X346511Y148283D01*
X346480Y148355D01*
X346459Y148430D01*
X346432Y148468D01*
X346415Y148510D01*
X346329Y148616D01*
X346318Y148632D01*
X346314Y148635D01*
X346310Y148641D01*
X308192Y186759D01*
X308155Y186785D01*
X308123Y186819D01*
X308055Y186857D01*
X307992Y186902D01*
X307948Y186916D01*
X307908Y186938D01*
X307831Y186952D01*
X307757Y186975D01*
X307711Y186973D01*
X307666Y186981D01*
X307589Y186970D01*
X307511Y186968D01*
X307468Y186952D01*
X307423Y186946D01*
X307353Y186910D01*
X307280Y186884D01*
X307244Y186855D01*
X307203Y186834D01*
X307149Y186779D01*
X307088Y186730D01*
X307063Y186691D01*
X307031Y186659D01*
X306965Y186539D01*
X306955Y186523D01*
X306954Y186518D01*
X306950Y186512D01*
X306808Y186168D01*
X305807Y184670D01*
X304534Y183397D01*
X303036Y182396D01*
X301371Y181707D01*
X299605Y181355D01*
X293623Y181355D01*
X293623Y189738D01*
X293620Y189758D01*
X293622Y189777D01*
X293600Y189879D01*
X293583Y189981D01*
X293574Y189998D01*
X293570Y190018D01*
X293517Y190107D01*
X293468Y190198D01*
X293454Y190212D01*
X293444Y190229D01*
X293365Y190296D01*
X293290Y190367D01*
X293272Y190376D01*
X293257Y190389D01*
X293161Y190427D01*
X293067Y190471D01*
X293047Y190473D01*
X293029Y190481D01*
X292862Y190499D01*
X292099Y190499D01*
X292099Y191262D01*
X292096Y191282D01*
X292098Y191301D01*
X292076Y191403D01*
X292059Y191505D01*
X292050Y191522D01*
X292046Y191542D01*
X291993Y191631D01*
X291944Y191722D01*
X291930Y191736D01*
X291920Y191753D01*
X291841Y191820D01*
X291766Y191891D01*
X291748Y191900D01*
X291733Y191913D01*
X291637Y191952D01*
X291543Y191995D01*
X291523Y191997D01*
X291505Y192005D01*
X291338Y192023D01*
X276475Y192023D01*
X276703Y193167D01*
X277392Y194832D01*
X277748Y195364D01*
X277776Y195426D01*
X277813Y195484D01*
X277827Y195537D01*
X277849Y195588D01*
X277856Y195656D01*
X277873Y195722D01*
X277869Y195777D01*
X277875Y195832D01*
X277859Y195899D01*
X277854Y195968D01*
X277832Y196018D01*
X277820Y196072D01*
X277785Y196131D01*
X277758Y196194D01*
X277710Y196254D01*
X277692Y196282D01*
X277676Y196296D01*
X277653Y196325D01*
X232948Y241030D01*
X232890Y241071D01*
X232838Y241121D01*
X232791Y241143D01*
X232749Y241173D01*
X232680Y241194D01*
X232615Y241225D01*
X232563Y241230D01*
X232513Y241246D01*
X232442Y241244D01*
X232371Y241252D01*
X232320Y241241D01*
X232268Y241239D01*
X232200Y241215D01*
X232130Y241199D01*
X232085Y241173D01*
X232037Y241155D01*
X231981Y241110D01*
X231919Y241073D01*
X231885Y241034D01*
X231845Y241001D01*
X231806Y240941D01*
X231759Y240886D01*
X231740Y240838D01*
X231712Y240794D01*
X231694Y240725D01*
X231667Y240658D01*
X231659Y240587D01*
X231651Y240556D01*
X231653Y240532D01*
X231649Y240491D01*
X231649Y240399D01*
X231297Y238633D01*
X230608Y236968D01*
X229607Y235470D01*
X228334Y234197D01*
X226836Y233196D01*
X225171Y232507D01*
X223405Y232155D01*
X217423Y232155D01*
X217423Y240538D01*
X217420Y240558D01*
X217422Y240577D01*
X217400Y240679D01*
X217383Y240781D01*
X217374Y240798D01*
X217370Y240818D01*
X217317Y240907D01*
X217268Y240998D01*
X217254Y241012D01*
X217244Y241029D01*
X217165Y241096D01*
X217090Y241167D01*
X217072Y241176D01*
X217057Y241189D01*
X216961Y241227D01*
X216867Y241271D01*
X216847Y241273D01*
X216829Y241281D01*
X216662Y241299D01*
X215899Y241299D01*
X215899Y241301D01*
X216662Y241301D01*
X216682Y241304D01*
X216701Y241302D01*
X216803Y241324D01*
X216905Y241341D01*
X216922Y241350D01*
X216942Y241354D01*
X217031Y241407D01*
X217122Y241456D01*
X217136Y241470D01*
X217153Y241480D01*
X217220Y241559D01*
X217291Y241634D01*
X217300Y241652D01*
X217313Y241667D01*
X217352Y241763D01*
X217395Y241857D01*
X217397Y241877D01*
X217405Y241895D01*
X217423Y242062D01*
X217423Y250445D01*
X221695Y250445D01*
X221766Y250456D01*
X221838Y250458D01*
X221887Y250476D01*
X221938Y250484D01*
X222001Y250518D01*
X222069Y250543D01*
X222109Y250575D01*
X222156Y250600D01*
X222205Y250652D01*
X222261Y250696D01*
X222289Y250740D01*
X222325Y250778D01*
X222355Y250843D01*
X222394Y250903D01*
X222407Y250954D01*
X222429Y251001D01*
X222436Y251072D01*
X222454Y251142D01*
X222450Y251194D01*
X222456Y251245D01*
X222440Y251316D01*
X222435Y251387D01*
X222414Y251435D01*
X222403Y251486D01*
X222367Y251547D01*
X222338Y251613D01*
X222294Y251669D01*
X222277Y251697D01*
X222259Y251712D01*
X222234Y251744D01*
X218170Y255808D01*
X218096Y255861D01*
X218026Y255921D01*
X217996Y255933D01*
X217970Y255952D01*
X217883Y255979D01*
X217798Y256013D01*
X217757Y256017D01*
X217735Y256024D01*
X217703Y256023D01*
X217631Y256031D01*
X207174Y256031D01*
X203253Y257655D01*
X200251Y260657D01*
X198627Y264578D01*
X198627Y268822D01*
X200251Y272743D01*
X203253Y275745D01*
X207174Y277369D01*
X224626Y277369D01*
X228547Y275745D01*
X231549Y272743D01*
X233173Y268822D01*
X233173Y264578D01*
X231534Y260622D01*
X231512Y260588D01*
X231452Y260504D01*
X231446Y260485D01*
X231435Y260468D01*
X231410Y260368D01*
X231379Y260269D01*
X231380Y260249D01*
X231375Y260229D01*
X231383Y260126D01*
X231386Y260023D01*
X231393Y260004D01*
X231394Y259984D01*
X231434Y259889D01*
X231470Y259792D01*
X231483Y259776D01*
X231490Y259758D01*
X231595Y259627D01*
X273545Y217677D01*
X273582Y217650D01*
X273613Y217616D01*
X273682Y217579D01*
X273745Y217534D01*
X273789Y217520D01*
X273829Y217498D01*
X273906Y217484D01*
X273980Y217461D01*
X274026Y217462D01*
X274071Y217454D01*
X274148Y217465D01*
X274226Y217468D01*
X274269Y217483D01*
X274314Y217490D01*
X274384Y217525D01*
X274457Y217552D01*
X274493Y217581D01*
X274534Y217601D01*
X274588Y217657D01*
X274649Y217706D01*
X274674Y217744D01*
X274706Y217777D01*
X274772Y217897D01*
X274782Y217913D01*
X274783Y217917D01*
X274787Y217924D01*
X276451Y221943D01*
X279453Y224945D01*
X283374Y226569D01*
X300826Y226569D01*
X304747Y224945D01*
X307749Y221943D01*
X309373Y218022D01*
X309373Y213778D01*
X307749Y209857D01*
X305301Y207409D01*
X305274Y207372D01*
X305240Y207341D01*
X305203Y207272D01*
X305157Y207209D01*
X305144Y207165D01*
X305122Y207125D01*
X305108Y207049D01*
X305085Y206974D01*
X305086Y206928D01*
X305078Y206883D01*
X305089Y206806D01*
X305091Y206728D01*
X305107Y206685D01*
X305114Y206640D01*
X305149Y206570D01*
X305176Y206497D01*
X305205Y206461D01*
X305225Y206420D01*
X305281Y206366D01*
X305330Y206305D01*
X305368Y206280D01*
X305401Y206248D01*
X305521Y206182D01*
X305536Y206172D01*
X305541Y206171D01*
X305548Y206167D01*
X306366Y205829D01*
X361702Y150492D01*
X361755Y150454D01*
X361802Y150408D01*
X361875Y150368D01*
X361902Y150349D01*
X361920Y150343D01*
X361949Y150327D01*
X362863Y149949D01*
X363444Y149368D01*
X363502Y149326D01*
X363554Y149277D01*
X363601Y149255D01*
X363643Y149225D01*
X363712Y149204D01*
X363777Y149173D01*
X363829Y149168D01*
X363879Y149152D01*
X363950Y149154D01*
X364021Y149146D01*
X364072Y149157D01*
X364124Y149159D01*
X364192Y149183D01*
X364262Y149199D01*
X364307Y149225D01*
X364355Y149243D01*
X364411Y149288D01*
X364473Y149325D01*
X364507Y149364D01*
X364547Y149397D01*
X364586Y149457D01*
X364633Y149512D01*
X364652Y149560D01*
X364680Y149604D01*
X364698Y149673D01*
X364725Y149740D01*
X364733Y149811D01*
X364741Y149842D01*
X364739Y149866D01*
X364743Y149907D01*
X364743Y159784D01*
X364729Y159875D01*
X364721Y159965D01*
X364709Y159995D01*
X364704Y160027D01*
X364661Y160108D01*
X364625Y160192D01*
X364599Y160224D01*
X364588Y160245D01*
X364565Y160267D01*
X364520Y160323D01*
X364188Y160655D01*
X362993Y163539D01*
X362993Y166661D01*
X364188Y169545D01*
X366395Y171752D01*
X369279Y172947D01*
X372401Y172947D01*
X375285Y171752D01*
X377492Y169545D01*
X378687Y166661D01*
X378687Y163539D01*
X377492Y160655D01*
X377160Y160323D01*
X377107Y160249D01*
X377047Y160179D01*
X377035Y160149D01*
X377016Y160123D01*
X376989Y160036D01*
X376955Y159951D01*
X376951Y159910D01*
X376944Y159888D01*
X376945Y159856D01*
X376937Y159784D01*
X376937Y127236D01*
X376951Y127145D01*
X376959Y127055D01*
X376971Y127025D01*
X376976Y126993D01*
X377019Y126912D01*
X377055Y126828D01*
X377081Y126796D01*
X377092Y126775D01*
X377115Y126753D01*
X377160Y126697D01*
X377492Y126365D01*
X378687Y123481D01*
X378687Y120359D01*
X377492Y117475D01*
X375285Y115268D01*
X372401Y114073D01*
X369279Y114073D01*
X366559Y115200D01*
X366515Y115210D01*
X366473Y115230D01*
X366396Y115238D01*
X366320Y115256D01*
X366274Y115252D01*
X366229Y115257D01*
X366152Y115240D01*
X366075Y115233D01*
X366033Y115214D01*
X365988Y115205D01*
X365921Y115165D01*
X365850Y115133D01*
X365816Y115102D01*
X365777Y115078D01*
X365726Y115019D01*
X365669Y114967D01*
X365647Y114926D01*
X365617Y114891D01*
X365588Y114819D01*
X365551Y114751D01*
X365542Y114706D01*
X365525Y114663D01*
X365510Y114527D01*
X365507Y114509D01*
X365508Y114504D01*
X365507Y114497D01*
X365507Y94281D01*
X365521Y94191D01*
X365529Y94100D01*
X365541Y94070D01*
X365546Y94038D01*
X365589Y93957D01*
X365625Y93873D01*
X365651Y93841D01*
X365662Y93821D01*
X365685Y93798D01*
X365730Y93742D01*
X370122Y89350D01*
X370196Y89297D01*
X370266Y89237D01*
X370296Y89225D01*
X370322Y89206D01*
X370409Y89179D01*
X370494Y89145D01*
X370535Y89141D01*
X370557Y89134D01*
X370589Y89135D01*
X370661Y89127D01*
X372401Y89127D01*
X375285Y87932D01*
X377492Y85725D01*
X378687Y82841D01*
X378687Y79719D01*
X377492Y76835D01*
X375285Y74628D01*
X372401Y73433D01*
X369279Y73433D01*
X366395Y74628D01*
X364188Y76835D01*
X363394Y78752D01*
X363359Y78808D01*
X363334Y78868D01*
X363282Y78933D01*
X363264Y78961D01*
X363249Y78974D01*
X363229Y78999D01*
X357118Y85110D01*
X357039Y85167D01*
X356964Y85229D01*
X356939Y85239D01*
X356918Y85254D01*
X356825Y85282D01*
X356734Y85317D01*
X356708Y85318D01*
X356683Y85326D01*
X356586Y85324D01*
X356488Y85328D01*
X356463Y85320D01*
X356437Y85320D01*
X356345Y85286D01*
X356252Y85259D01*
X356231Y85244D01*
X356206Y85235D01*
X356130Y85174D01*
X356050Y85119D01*
X356034Y85098D01*
X356014Y85082D01*
X355961Y85000D01*
X355903Y84922D01*
X355895Y84897D01*
X355881Y84875D01*
X355857Y84780D01*
X355827Y84688D01*
X355827Y84661D01*
X355821Y84636D01*
X355828Y84539D01*
X355829Y84442D01*
X355839Y84410D01*
X355840Y84391D01*
X355853Y84361D01*
X355876Y84281D01*
X356617Y82493D01*
X356617Y66276D01*
X356631Y66185D01*
X356639Y66095D01*
X356651Y66065D01*
X356656Y66033D01*
X356699Y65952D01*
X356735Y65868D01*
X356761Y65836D01*
X356772Y65815D01*
X356795Y65793D01*
X356840Y65737D01*
X357172Y65405D01*
X358367Y62521D01*
X358367Y59399D01*
X357172Y56515D01*
X354965Y54308D01*
X352486Y53281D01*
X352403Y53230D01*
X352318Y53184D01*
X352300Y53166D01*
X352277Y53152D01*
X352215Y53076D01*
X352148Y53006D01*
X352137Y52982D01*
X352121Y52962D01*
X352086Y52871D01*
X352045Y52783D01*
X352042Y52757D01*
X352032Y52733D01*
X352028Y52635D01*
X352017Y52539D01*
X352023Y52513D01*
X352022Y52487D01*
X352049Y52393D01*
X352070Y52298D01*
X352083Y52276D01*
X352090Y52251D01*
X352146Y52171D01*
X352196Y52087D01*
X352216Y52070D01*
X352231Y52049D01*
X352309Y51990D01*
X352383Y51927D01*
X352407Y51917D01*
X352428Y51902D01*
X352521Y51872D01*
X352611Y51835D01*
X352643Y51832D01*
X352662Y51826D01*
X352695Y51826D01*
X352778Y51817D01*
X443375Y51817D01*
X443490Y51836D01*
X443606Y51853D01*
X443611Y51855D01*
X443617Y51856D01*
X443720Y51911D01*
X443825Y51964D01*
X443829Y51969D01*
X443835Y51972D01*
X443915Y52056D01*
X443997Y52140D01*
X444001Y52146D01*
X444004Y52150D01*
X444012Y52167D01*
X444078Y52287D01*
X444517Y53346D01*
X448304Y57133D01*
X449713Y57717D01*
X449774Y57755D01*
X449839Y57784D01*
X449878Y57819D01*
X449922Y57846D01*
X449968Y57902D01*
X450020Y57950D01*
X450045Y57996D01*
X450079Y58036D01*
X450104Y58103D01*
X450139Y58166D01*
X450148Y58217D01*
X450167Y58265D01*
X450170Y58337D01*
X450183Y58408D01*
X450175Y58459D01*
X450177Y58511D01*
X450157Y58580D01*
X450147Y58651D01*
X450123Y58697D01*
X450109Y58747D01*
X450068Y58806D01*
X450035Y58870D01*
X449998Y58907D01*
X449968Y58949D01*
X449911Y58992D01*
X449860Y59042D01*
X449797Y59077D01*
X449771Y59096D01*
X449749Y59103D01*
X449713Y59123D01*
X448304Y59707D01*
X444517Y63494D01*
X442467Y68442D01*
X442467Y73798D01*
X444517Y78746D01*
X448304Y82533D01*
X449713Y83117D01*
X449774Y83155D01*
X449839Y83184D01*
X449878Y83219D01*
X449922Y83246D01*
X449968Y83302D01*
X450020Y83350D01*
X450045Y83396D01*
X450079Y83436D01*
X450104Y83503D01*
X450139Y83566D01*
X450148Y83617D01*
X450167Y83665D01*
X450170Y83737D01*
X450183Y83808D01*
X450175Y83859D01*
X450177Y83911D01*
X450157Y83980D01*
X450147Y84051D01*
X450123Y84097D01*
X450109Y84147D01*
X450068Y84206D01*
X450035Y84270D01*
X449998Y84307D01*
X449968Y84349D01*
X449911Y84392D01*
X449860Y84442D01*
X449797Y84477D01*
X449771Y84496D01*
X449749Y84503D01*
X449713Y84523D01*
X448304Y85107D01*
X444517Y88894D01*
X442467Y93842D01*
X442467Y99198D01*
X444517Y104146D01*
X448304Y107933D01*
X453252Y109983D01*
X458608Y109983D01*
X463556Y107933D01*
X467343Y104146D01*
X469393Y99198D01*
X469393Y93842D01*
X467343Y88894D01*
X463556Y85107D01*
X462147Y84523D01*
X462086Y84486D01*
X462021Y84456D01*
X461982Y84421D01*
X461938Y84394D01*
X461892Y84338D01*
X461840Y84290D01*
X461815Y84244D01*
X461781Y84204D01*
X461756Y84137D01*
X461721Y84074D01*
X461712Y84023D01*
X461693Y83975D01*
X461690Y83903D01*
X461677Y83832D01*
X461685Y83781D01*
X461683Y83729D01*
X461703Y83660D01*
X461713Y83589D01*
X461737Y83543D01*
X461751Y83493D01*
X461792Y83434D01*
X461825Y83370D01*
X461862Y83333D01*
X461892Y83291D01*
X461949Y83248D01*
X462000Y83198D01*
X462063Y83163D01*
X462089Y83144D01*
X462111Y83137D01*
X462147Y83117D01*
X463556Y82533D01*
X467343Y78746D01*
X469393Y73798D01*
X469393Y68442D01*
X467343Y63494D01*
X463556Y59707D01*
X462147Y59123D01*
X462086Y59086D01*
X462021Y59056D01*
X461982Y59021D01*
X461938Y58994D01*
X461892Y58938D01*
X461840Y58890D01*
X461815Y58844D01*
X461781Y58804D01*
X461756Y58737D01*
X461721Y58674D01*
X461712Y58623D01*
X461693Y58575D01*
X461690Y58503D01*
X461677Y58432D01*
X461685Y58381D01*
X461683Y58329D01*
X461703Y58260D01*
X461713Y58189D01*
X461737Y58143D01*
X461751Y58093D01*
X461792Y58034D01*
X461825Y57970D01*
X461862Y57933D01*
X461892Y57891D01*
X461949Y57848D01*
X462000Y57798D01*
X462063Y57763D01*
X462089Y57744D01*
X462111Y57737D01*
X462147Y57717D01*
X463556Y57133D01*
X467343Y53346D01*
X469393Y48398D01*
X469393Y43042D01*
X467343Y38094D01*
X463556Y34307D01*
X460170Y32904D01*
X460084Y32851D01*
X459995Y32803D01*
X459980Y32786D01*
X459961Y32775D01*
X459897Y32697D01*
X459828Y32623D01*
X459819Y32602D01*
X459804Y32585D01*
X459768Y32491D01*
X459726Y32398D01*
X459724Y32376D01*
X459716Y32356D01*
X459712Y32255D01*
X459702Y32154D01*
X459707Y32132D01*
X459706Y32110D01*
X459734Y32013D01*
X459757Y31914D01*
X459768Y31895D01*
X459774Y31874D01*
X459832Y31791D01*
X459885Y31704D01*
X459902Y31690D01*
X459915Y31672D01*
X459996Y31611D01*
X460074Y31546D01*
X460098Y31535D01*
X460112Y31525D01*
X460143Y31515D01*
X460226Y31477D01*
X460513Y31384D01*
X462187Y30531D01*
X463708Y29426D01*
X465036Y28098D01*
X466141Y26577D01*
X466994Y24903D01*
X467575Y23116D01*
X467776Y21843D01*
X456692Y21843D01*
X456672Y21840D01*
X456653Y21842D01*
X456551Y21820D01*
X456449Y21803D01*
X456432Y21794D01*
X456412Y21790D01*
X456323Y21737D01*
X456232Y21688D01*
X456218Y21674D01*
X456201Y21664D01*
X456134Y21585D01*
X456063Y21510D01*
X456054Y21492D01*
X456041Y21477D01*
X456003Y21381D01*
X455959Y21287D01*
X455957Y21267D01*
X455949Y21249D01*
X455931Y21082D01*
X455931Y19558D01*
X455934Y19538D01*
X455932Y19519D01*
X455954Y19417D01*
X455971Y19315D01*
X455980Y19298D01*
X455984Y19278D01*
X456037Y19189D01*
X456086Y19098D01*
X456100Y19084D01*
X456110Y19067D01*
X456189Y19000D01*
X456264Y18929D01*
X456282Y18920D01*
X456297Y18907D01*
X456393Y18868D01*
X456487Y18825D01*
X456507Y18823D01*
X456525Y18815D01*
X456692Y18797D01*
X467776Y18797D01*
X467575Y17524D01*
X466994Y15737D01*
X466141Y14063D01*
X465036Y12542D01*
X463954Y11460D01*
X463912Y11402D01*
X463863Y11350D01*
X463841Y11303D01*
X463811Y11261D01*
X463790Y11192D01*
X463759Y11127D01*
X463754Y11075D01*
X463738Y11025D01*
X463740Y10954D01*
X463732Y10883D01*
X463743Y10832D01*
X463745Y10780D01*
X463769Y10712D01*
X463784Y10642D01*
X463811Y10597D01*
X463829Y10549D01*
X463874Y10493D01*
X463911Y10431D01*
X463950Y10397D01*
X463983Y10357D01*
X464043Y10318D01*
X464098Y10271D01*
X464146Y10252D01*
X464190Y10224D01*
X464259Y10206D01*
X464326Y10179D01*
X464397Y10171D01*
X464428Y10163D01*
X464452Y10165D01*
X464492Y10161D01*
X489078Y10161D01*
X489098Y10164D01*
X489117Y10162D01*
X489219Y10184D01*
X489321Y10200D01*
X489338Y10210D01*
X489358Y10214D01*
X489447Y10267D01*
X489538Y10316D01*
X489552Y10330D01*
X489569Y10340D01*
X489636Y10419D01*
X489708Y10494D01*
X489716Y10512D01*
X489729Y10527D01*
X489768Y10623D01*
X489811Y10717D01*
X489813Y10737D01*
X489821Y10755D01*
X489839Y10922D01*
X489839Y460958D01*
X489828Y461028D01*
X489826Y461100D01*
X489808Y461149D01*
X489800Y461200D01*
X489766Y461264D01*
X489741Y461331D01*
X489709Y461372D01*
X489684Y461418D01*
X489632Y461467D01*
X489588Y461523D01*
X489544Y461551D01*
X489506Y461587D01*
X489441Y461617D01*
X489381Y461656D01*
X489330Y461669D01*
X489283Y461691D01*
X489212Y461699D01*
X489142Y461716D01*
X489090Y461712D01*
X489039Y461718D01*
X488968Y461703D01*
X488897Y461697D01*
X488849Y461677D01*
X488798Y461666D01*
X488737Y461629D01*
X488671Y461601D01*
X488615Y461556D01*
X488587Y461539D01*
X488572Y461522D01*
X488540Y461496D01*
X487838Y460794D01*
X486317Y459689D01*
X484643Y458836D01*
X482856Y458255D01*
X481583Y458054D01*
X481583Y469138D01*
X481580Y469158D01*
X481582Y469177D01*
X481560Y469279D01*
X481543Y469381D01*
X481534Y469398D01*
X481530Y469418D01*
X481477Y469507D01*
X481428Y469598D01*
X481414Y469612D01*
X481404Y469629D01*
X481325Y469696D01*
X481250Y469767D01*
X481232Y469776D01*
X481217Y469789D01*
X481121Y469827D01*
X481027Y469871D01*
X481007Y469873D01*
X480989Y469881D01*
X480822Y469899D01*
X480059Y469899D01*
X480059Y469901D01*
X480822Y469901D01*
X480842Y469904D01*
X480861Y469902D01*
X480963Y469924D01*
X481065Y469941D01*
X481082Y469950D01*
X481102Y469954D01*
X481191Y470007D01*
X481282Y470056D01*
X481296Y470070D01*
X481313Y470080D01*
X481380Y470159D01*
X481451Y470234D01*
X481460Y470252D01*
X481473Y470267D01*
X481512Y470363D01*
X481555Y470457D01*
X481557Y470477D01*
X481565Y470495D01*
X481583Y470662D01*
X481583Y481746D01*
X482856Y481545D01*
X484643Y480964D01*
X486317Y480111D01*
X487838Y479006D01*
X488540Y478304D01*
X488598Y478262D01*
X488650Y478213D01*
X488697Y478191D01*
X488739Y478161D01*
X488808Y478140D01*
X488873Y478109D01*
X488925Y478104D01*
X488975Y478088D01*
X489046Y478090D01*
X489117Y478082D01*
X489168Y478093D01*
X489220Y478095D01*
X489288Y478119D01*
X489358Y478134D01*
X489403Y478161D01*
X489451Y478179D01*
X489507Y478224D01*
X489569Y478261D01*
X489603Y478300D01*
X489643Y478333D01*
X489682Y478393D01*
X489729Y478448D01*
X489748Y478496D01*
X489776Y478540D01*
X489794Y478609D01*
X489821Y478676D01*
X489829Y478747D01*
X489837Y478778D01*
X489835Y478802D01*
X489839Y478842D01*
X489839Y489078D01*
X489836Y489098D01*
X489838Y489117D01*
X489816Y489219D01*
X489800Y489321D01*
X489790Y489338D01*
X489786Y489358D01*
X489733Y489447D01*
X489684Y489538D01*
X489670Y489552D01*
X489660Y489569D01*
X489581Y489636D01*
X489506Y489708D01*
X489488Y489716D01*
X489473Y489729D01*
X489377Y489768D01*
X489283Y489811D01*
X489263Y489813D01*
X489245Y489821D01*
X489078Y489839D01*
X399576Y489839D01*
X399506Y489828D01*
X399434Y489826D01*
X399385Y489808D01*
X399334Y489800D01*
X399270Y489766D01*
X399203Y489741D01*
X399162Y489709D01*
X399116Y489684D01*
X399067Y489632D01*
X399011Y489588D01*
X398983Y489544D01*
X398947Y489506D01*
X398917Y489441D01*
X398878Y489381D01*
X398865Y489330D01*
X398843Y489283D01*
X398835Y489212D01*
X398818Y489142D01*
X398822Y489090D01*
X398816Y489039D01*
X398831Y488968D01*
X398837Y488897D01*
X398857Y488849D01*
X398868Y488798D01*
X398905Y488737D01*
X398933Y488671D01*
X398978Y488615D01*
X398995Y488587D01*
X399012Y488572D01*
X399038Y488540D01*
X400559Y487019D01*
X400559Y478181D01*
X394309Y471931D01*
X385471Y471931D01*
X379221Y478181D01*
X379221Y487019D01*
X380742Y488540D01*
X380784Y488598D01*
X380833Y488650D01*
X380855Y488697D01*
X380885Y488739D01*
X380907Y488808D01*
X380937Y488873D01*
X380942Y488925D01*
X380958Y488975D01*
X380956Y489046D01*
X380964Y489117D01*
X380953Y489168D01*
X380951Y489220D01*
X380927Y489288D01*
X380912Y489358D01*
X380885Y489403D01*
X380867Y489451D01*
X380822Y489507D01*
X380785Y489569D01*
X380746Y489603D01*
X380713Y489643D01*
X380653Y489682D01*
X380598Y489729D01*
X380550Y489748D01*
X380506Y489776D01*
X380437Y489794D01*
X380370Y489821D01*
X380299Y489829D01*
X380268Y489837D01*
X380245Y489835D01*
X380204Y489839D01*
X318438Y489839D01*
X318367Y489828D01*
X318295Y489826D01*
X318246Y489808D01*
X318195Y489800D01*
X318132Y489766D01*
X318064Y489741D01*
X318024Y489709D01*
X317978Y489684D01*
X317928Y489632D01*
X317872Y489588D01*
X317844Y489544D01*
X317808Y489506D01*
X317778Y489441D01*
X317739Y489381D01*
X317727Y489330D01*
X317705Y489283D01*
X317697Y489212D01*
X317679Y489142D01*
X317683Y489090D01*
X317677Y489039D01*
X317693Y488968D01*
X317698Y488897D01*
X317719Y488849D01*
X317730Y488798D01*
X317767Y488737D01*
X317795Y488671D01*
X317839Y488615D01*
X317856Y488587D01*
X317874Y488572D01*
X317899Y488540D01*
X318753Y487686D01*
X320803Y482738D01*
X320803Y477382D01*
X318753Y472434D01*
X314966Y468647D01*
X310018Y466597D01*
X304662Y466597D01*
X299714Y468647D01*
X295927Y472434D01*
X295343Y473843D01*
X295306Y473904D01*
X295276Y473969D01*
X295241Y474008D01*
X295214Y474052D01*
X295158Y474098D01*
X295110Y474150D01*
X295064Y474175D01*
X295024Y474209D01*
X294957Y474234D01*
X294894Y474269D01*
X294843Y474278D01*
X294795Y474297D01*
X294723Y474300D01*
X294652Y474313D01*
X294601Y474305D01*
X294549Y474307D01*
X294480Y474287D01*
X294409Y474277D01*
X294363Y474253D01*
X294313Y474239D01*
X294254Y474198D01*
X294190Y474165D01*
X294153Y474128D01*
X294111Y474098D01*
X294068Y474041D01*
X294018Y473990D01*
X293983Y473927D01*
X293964Y473901D01*
X293957Y473879D01*
X293937Y473843D01*
X293353Y472434D01*
X289566Y468647D01*
X284618Y466597D01*
X279262Y466597D01*
X274314Y468647D01*
X270527Y472434D01*
X269124Y475820D01*
X269071Y475906D01*
X269023Y475995D01*
X269006Y476010D01*
X268995Y476029D01*
X268917Y476093D01*
X268843Y476162D01*
X268822Y476171D01*
X268805Y476186D01*
X268711Y476222D01*
X268618Y476264D01*
X268596Y476266D01*
X268576Y476274D01*
X268475Y476278D01*
X268374Y476288D01*
X268352Y476283D01*
X268330Y476284D01*
X268233Y476256D01*
X268134Y476233D01*
X268115Y476222D01*
X268094Y476216D01*
X268011Y476158D01*
X267924Y476105D01*
X267910Y476088D01*
X267892Y476075D01*
X267831Y475994D01*
X267766Y475916D01*
X267755Y475892D01*
X267745Y475878D01*
X267735Y475847D01*
X267697Y475764D01*
X267604Y475477D01*
X266751Y473803D01*
X265646Y472282D01*
X264318Y470954D01*
X262797Y469849D01*
X261123Y468996D01*
X259336Y468415D01*
X258063Y468214D01*
X258063Y479298D01*
X258060Y479318D01*
X258062Y479337D01*
X258040Y479439D01*
X258023Y479541D01*
X258014Y479558D01*
X258010Y479578D01*
X257957Y479667D01*
X257908Y479758D01*
X257894Y479772D01*
X257884Y479789D01*
X257805Y479856D01*
X257730Y479927D01*
X257712Y479936D01*
X257697Y479949D01*
X257601Y479987D01*
X257507Y480031D01*
X257487Y480033D01*
X257469Y480041D01*
X257302Y480059D01*
X255778Y480059D01*
X255758Y480056D01*
X255739Y480058D01*
X255637Y480036D01*
X255535Y480019D01*
X255518Y480010D01*
X255498Y480006D01*
X255409Y479953D01*
X255318Y479904D01*
X255304Y479890D01*
X255287Y479880D01*
X255220Y479801D01*
X255149Y479726D01*
X255140Y479708D01*
X255127Y479693D01*
X255088Y479597D01*
X255045Y479503D01*
X255043Y479483D01*
X255035Y479465D01*
X255017Y479298D01*
X255017Y468214D01*
X253744Y468415D01*
X251957Y468996D01*
X250283Y469849D01*
X248762Y470954D01*
X247434Y472282D01*
X246329Y473803D01*
X245476Y475477D01*
X245383Y475764D01*
X245336Y475854D01*
X245295Y475946D01*
X245280Y475962D01*
X245270Y475982D01*
X245197Y476053D01*
X245129Y476127D01*
X245109Y476138D01*
X245093Y476153D01*
X245002Y476197D01*
X244913Y476246D01*
X244891Y476250D01*
X244871Y476259D01*
X244771Y476272D01*
X244671Y476290D01*
X244649Y476286D01*
X244627Y476289D01*
X244528Y476269D01*
X244428Y476254D01*
X244408Y476244D01*
X244386Y476239D01*
X244299Y476188D01*
X244209Y476142D01*
X244193Y476126D01*
X244174Y476115D01*
X244107Y476039D01*
X244036Y475967D01*
X244023Y475943D01*
X244012Y475930D01*
X244000Y475900D01*
X243956Y475820D01*
X242553Y472434D01*
X238766Y468647D01*
X237707Y468208D01*
X237607Y468146D01*
X237507Y468087D01*
X237503Y468082D01*
X237498Y468078D01*
X237423Y467988D01*
X237347Y467900D01*
X237345Y467894D01*
X237341Y467889D01*
X237299Y467781D01*
X237255Y467671D01*
X237254Y467664D01*
X237253Y467659D01*
X237252Y467641D01*
X237237Y467505D01*
X237237Y451358D01*
X237240Y451338D01*
X237238Y451319D01*
X237260Y451217D01*
X237276Y451115D01*
X237286Y451098D01*
X237290Y451078D01*
X237343Y450989D01*
X237392Y450898D01*
X237406Y450884D01*
X237416Y450867D01*
X237495Y450800D01*
X237570Y450728D01*
X237588Y450720D01*
X237603Y450707D01*
X237699Y450668D01*
X237793Y450625D01*
X237813Y450623D01*
X237831Y450615D01*
X237998Y450597D01*
X286784Y450597D01*
X286875Y450611D01*
X286966Y450619D01*
X286995Y450631D01*
X287027Y450636D01*
X287108Y450679D01*
X287192Y450715D01*
X287224Y450741D01*
X287245Y450752D01*
X287267Y450775D01*
X287323Y450820D01*
X287655Y451152D01*
X290539Y452347D01*
X293661Y452347D01*
X296545Y451152D01*
X298752Y448945D01*
X299947Y446061D01*
X299947Y442939D01*
X298752Y440055D01*
X296545Y437848D01*
X294066Y436821D01*
X293983Y436770D01*
X293898Y436724D01*
X293880Y436706D01*
X293857Y436692D01*
X293795Y436616D01*
X293728Y436546D01*
X293717Y436522D01*
X293701Y436502D01*
X293666Y436411D01*
X293625Y436323D01*
X293622Y436297D01*
X293612Y436273D01*
X293608Y436175D01*
X293597Y436079D01*
X293603Y436053D01*
X293602Y436027D01*
X293629Y435933D01*
X293650Y435838D01*
X293663Y435816D01*
X293670Y435791D01*
X293726Y435711D01*
X293776Y435627D01*
X293796Y435610D01*
X293811Y435589D01*
X293889Y435530D01*
X293963Y435467D01*
X293987Y435457D01*
X294008Y435442D01*
X294101Y435412D01*
X294191Y435375D01*
X294223Y435372D01*
X294242Y435366D01*
X294275Y435366D01*
X294358Y435357D01*
X385779Y435357D01*
X385869Y435371D01*
X385960Y435379D01*
X385990Y435391D01*
X386022Y435396D01*
X386103Y435439D01*
X386187Y435475D01*
X386219Y435501D01*
X386239Y435512D01*
X386262Y435535D01*
X386318Y435580D01*
X416071Y465333D01*
X416139Y465427D01*
X416209Y465522D01*
X416211Y465528D01*
X416215Y465533D01*
X416249Y465644D01*
X416285Y465756D01*
X416285Y465762D01*
X416287Y465768D01*
X416284Y465885D01*
X416283Y466002D01*
X416281Y466009D01*
X416281Y466014D01*
X416274Y466031D01*
X416236Y466163D01*
X415797Y467222D01*
X415797Y472578D01*
X417847Y477526D01*
X421634Y481313D01*
X426582Y483363D01*
X431938Y483363D01*
X436886Y481313D01*
X440673Y477526D01*
X442723Y472578D01*
X442723Y467222D01*
X440673Y462274D01*
X436886Y458487D01*
X431938Y456437D01*
X426582Y456437D01*
X425523Y456876D01*
X425409Y456903D01*
X425296Y456931D01*
X425289Y456931D01*
X425283Y456932D01*
X425167Y456921D01*
X425050Y456912D01*
X425045Y456910D01*
X425038Y456909D01*
X424931Y456861D01*
X424824Y456816D01*
X424818Y456811D01*
X424814Y456809D01*
X424800Y456796D01*
X424693Y456711D01*
X392074Y424091D01*
X389833Y423163D01*
X350520Y423163D01*
X350500Y423160D01*
X350481Y423162D01*
X350379Y423140D01*
X350277Y423124D01*
X350260Y423114D01*
X350240Y423110D01*
X350151Y423057D01*
X350060Y423008D01*
X350046Y422994D01*
X350029Y422984D01*
X349962Y422905D01*
X349890Y422830D01*
X349882Y422812D01*
X349869Y422797D01*
X349830Y422701D01*
X349787Y422607D01*
X349785Y422587D01*
X349777Y422569D01*
X349759Y422402D01*
X349759Y414681D01*
X343509Y408431D01*
X334671Y408431D01*
X328421Y414681D01*
X328421Y422402D01*
X328418Y422422D01*
X328420Y422441D01*
X328398Y422543D01*
X328382Y422645D01*
X328372Y422662D01*
X328368Y422682D01*
X328315Y422771D01*
X328266Y422862D01*
X328252Y422876D01*
X328242Y422893D01*
X328163Y422960D01*
X328088Y423032D01*
X328070Y423040D01*
X328055Y423053D01*
X327959Y423092D01*
X327865Y423135D01*
X327845Y423137D01*
X327827Y423145D01*
X327660Y423163D01*
X309708Y423163D01*
X309663Y423156D01*
X309617Y423158D01*
X309542Y423136D01*
X309465Y423124D01*
X309425Y423102D01*
X309381Y423089D01*
X309317Y423045D01*
X309248Y423008D01*
X309216Y422975D01*
X309179Y422949D01*
X309132Y422886D01*
X309078Y422830D01*
X309059Y422788D01*
X309032Y422752D01*
X309008Y422678D01*
X308975Y422607D01*
X308970Y422561D01*
X308956Y422518D01*
X308956Y422440D01*
X308948Y422363D01*
X308958Y422318D01*
X308958Y422272D01*
X308996Y422140D01*
X309000Y422122D01*
X309003Y422118D01*
X309005Y422111D01*
X309373Y421222D01*
X309373Y416978D01*
X307749Y413057D01*
X304747Y410055D01*
X300826Y408431D01*
X283374Y408431D01*
X279453Y410055D01*
X276451Y413057D01*
X276083Y413945D01*
X276059Y413984D01*
X276043Y414027D01*
X275995Y414088D01*
X275954Y414154D01*
X275918Y414184D01*
X275890Y414219D01*
X275824Y414261D01*
X275764Y414311D01*
X275721Y414328D01*
X275683Y414352D01*
X275607Y414371D01*
X275535Y414399D01*
X275489Y414401D01*
X275444Y414412D01*
X275367Y414406D01*
X275289Y414410D01*
X275245Y414397D01*
X275199Y414393D01*
X275127Y414363D01*
X275053Y414341D01*
X275015Y414315D01*
X274973Y414297D01*
X274866Y414212D01*
X274851Y414201D01*
X274848Y414197D01*
X274842Y414192D01*
X274581Y413931D01*
X272340Y413003D01*
X231810Y413003D01*
X231720Y412989D01*
X231629Y412981D01*
X231600Y412969D01*
X231568Y412964D01*
X231487Y412921D01*
X231403Y412885D01*
X231371Y412859D01*
X231350Y412848D01*
X231328Y412825D01*
X231272Y412780D01*
X228547Y410055D01*
X224626Y408431D01*
X218596Y408431D01*
X218506Y408417D01*
X218415Y408409D01*
X218385Y408397D01*
X218353Y408392D01*
X218273Y408349D01*
X218189Y408313D01*
X218157Y408287D01*
X218136Y408276D01*
X218114Y408253D01*
X218058Y408208D01*
X215518Y405668D01*
X215476Y405610D01*
X215427Y405558D01*
X215405Y405511D01*
X215374Y405469D01*
X215353Y405400D01*
X215323Y405335D01*
X215317Y405283D01*
X215302Y405233D01*
X215304Y405162D01*
X215296Y405091D01*
X215307Y405040D01*
X215308Y404988D01*
X215333Y404920D01*
X215348Y404850D01*
X215375Y404805D01*
X215393Y404757D01*
X215438Y404701D01*
X215474Y404639D01*
X215514Y404605D01*
X215547Y404565D01*
X215607Y404526D01*
X215661Y404479D01*
X215710Y404460D01*
X215753Y404432D01*
X215823Y404414D01*
X215889Y404387D01*
X215961Y404379D01*
X215992Y404371D01*
X216015Y404373D01*
X216056Y404369D01*
X224626Y404369D01*
X228547Y402745D01*
X231549Y399743D01*
X233173Y395822D01*
X233173Y391578D01*
X231549Y387657D01*
X228547Y384655D01*
X224626Y383031D01*
X207174Y383031D01*
X203253Y384655D01*
X200251Y387657D01*
X200075Y388084D01*
X200050Y388123D01*
X200035Y388166D01*
X199986Y388227D01*
X199945Y388293D01*
X199910Y388322D01*
X199881Y388358D01*
X199815Y388400D01*
X199755Y388450D01*
X199713Y388466D01*
X199674Y388491D01*
X199598Y388510D01*
X199526Y388538D01*
X199480Y388540D01*
X199435Y388551D01*
X199358Y388545D01*
X199280Y388548D01*
X199236Y388536D01*
X199190Y388532D01*
X199119Y388502D01*
X199044Y388480D01*
X199006Y388454D01*
X198964Y388436D01*
X198857Y388350D01*
X198842Y388340D01*
X198839Y388336D01*
X198833Y388331D01*
X162022Y351520D01*
X161969Y351446D01*
X161909Y351376D01*
X161897Y351346D01*
X161878Y351320D01*
X161851Y351233D01*
X161817Y351148D01*
X161813Y351107D01*
X161806Y351085D01*
X161807Y351053D01*
X161799Y350981D01*
X161799Y344831D01*
X155549Y338581D01*
X146711Y338581D01*
X140461Y344831D01*
X140461Y353669D01*
X146711Y359919D01*
X152861Y359919D01*
X152951Y359933D01*
X153042Y359941D01*
X153072Y359953D01*
X153104Y359958D01*
X153185Y360001D01*
X153269Y360037D01*
X153301Y360063D01*
X153321Y360074D01*
X153344Y360097D01*
X153400Y360142D01*
X193399Y400141D01*
X193437Y400194D01*
X193483Y400241D01*
X193489Y400251D01*
X193491Y400254D01*
X193497Y400267D01*
X193523Y400314D01*
X193543Y400341D01*
X193548Y400359D01*
X193564Y400388D01*
X193967Y401362D01*
X202419Y409813D01*
X202430Y409829D01*
X202446Y409842D01*
X202502Y409929D01*
X202562Y410013D01*
X202568Y410032D01*
X202579Y410049D01*
X202604Y410149D01*
X202634Y410248D01*
X202634Y410268D01*
X202639Y410287D01*
X202631Y410390D01*
X202628Y410494D01*
X202621Y410513D01*
X202620Y410532D01*
X202579Y410627D01*
X202544Y410725D01*
X202531Y410740D01*
X202523Y410759D01*
X202419Y410890D01*
X200251Y413057D01*
X198627Y416978D01*
X198627Y421222D01*
X200251Y425143D01*
X203253Y428145D01*
X207174Y429769D01*
X224626Y429769D01*
X228547Y428145D01*
X231272Y425420D01*
X231346Y425367D01*
X231416Y425307D01*
X231446Y425295D01*
X231472Y425276D01*
X231559Y425249D01*
X231644Y425215D01*
X231685Y425211D01*
X231707Y425204D01*
X231739Y425205D01*
X231810Y425197D01*
X268287Y425197D01*
X268377Y425211D01*
X268468Y425219D01*
X268498Y425231D01*
X268530Y425236D01*
X268610Y425279D01*
X268694Y425315D01*
X268726Y425341D01*
X268747Y425352D01*
X268769Y425375D01*
X268825Y425420D01*
X277834Y434429D01*
X280075Y435357D01*
X289842Y435357D01*
X289938Y435372D01*
X290035Y435382D01*
X290059Y435392D01*
X290085Y435396D01*
X290171Y435442D01*
X290260Y435482D01*
X290279Y435499D01*
X290302Y435512D01*
X290369Y435582D01*
X290441Y435648D01*
X290454Y435671D01*
X290472Y435690D01*
X290513Y435778D01*
X290560Y435864D01*
X290564Y435889D01*
X290575Y435913D01*
X290586Y436010D01*
X290603Y436106D01*
X290600Y436132D01*
X290603Y436157D01*
X290582Y436253D01*
X290568Y436349D01*
X290556Y436372D01*
X290550Y436398D01*
X290500Y436481D01*
X290456Y436568D01*
X290437Y436587D01*
X290424Y436609D01*
X290350Y436672D01*
X290281Y436740D01*
X290252Y436756D01*
X290237Y436769D01*
X290206Y436781D01*
X290134Y436821D01*
X287655Y437848D01*
X287323Y438180D01*
X287249Y438234D01*
X287179Y438293D01*
X287149Y438305D01*
X287123Y438324D01*
X287036Y438351D01*
X286951Y438385D01*
X286910Y438389D01*
X286888Y438396D01*
X286856Y438395D01*
X286784Y438403D01*
X157988Y438403D01*
X157968Y438400D01*
X157949Y438402D01*
X157847Y438380D01*
X157745Y438364D01*
X157728Y438354D01*
X157708Y438350D01*
X157619Y438297D01*
X157528Y438248D01*
X157514Y438234D01*
X157497Y438224D01*
X157430Y438145D01*
X157358Y438070D01*
X157350Y438052D01*
X157337Y438037D01*
X157298Y437941D01*
X157255Y437847D01*
X157253Y437827D01*
X157245Y437809D01*
X157227Y437642D01*
X157227Y434756D01*
X157241Y434666D01*
X157249Y434575D01*
X157261Y434546D01*
X157266Y434514D01*
X157309Y434433D01*
X157345Y434349D01*
X157371Y434317D01*
X157382Y434296D01*
X157405Y434274D01*
X157450Y434218D01*
X161799Y429869D01*
X161799Y421031D01*
X155549Y414781D01*
X146711Y414781D01*
X140461Y421031D01*
X140461Y427181D01*
X140447Y427271D01*
X140439Y427362D01*
X140427Y427392D01*
X140422Y427424D01*
X140379Y427505D01*
X140343Y427589D01*
X140317Y427621D01*
X140306Y427641D01*
X140283Y427664D01*
X140238Y427720D01*
X129778Y438180D01*
X129704Y438233D01*
X129634Y438293D01*
X129604Y438305D01*
X129578Y438324D01*
X129491Y438351D01*
X129406Y438385D01*
X129365Y438389D01*
X129343Y438396D01*
X129311Y438395D01*
X129239Y438403D01*
X43416Y438403D01*
X43325Y438389D01*
X43235Y438381D01*
X43205Y438369D01*
X43173Y438364D01*
X43092Y438321D01*
X43008Y438285D01*
X42976Y438259D01*
X42955Y438248D01*
X42933Y438225D01*
X42877Y438180D01*
X42545Y437848D01*
X39661Y436653D01*
X36539Y436653D01*
X33655Y437848D01*
X31448Y440055D01*
X30253Y442939D01*
X30253Y446061D01*
X31448Y448945D01*
X33655Y451152D01*
X36539Y452347D01*
X39661Y452347D01*
X42545Y451152D01*
X42877Y450820D01*
X42951Y450767D01*
X43021Y450707D01*
X43051Y450695D01*
X43077Y450676D01*
X43164Y450649D01*
X43249Y450615D01*
X43290Y450611D01*
X43312Y450604D01*
X43344Y450605D01*
X43416Y450597D01*
X100330Y450597D01*
X100350Y450600D01*
X100369Y450598D01*
X100471Y450620D01*
X100573Y450636D01*
X100590Y450646D01*
X100610Y450650D01*
X100699Y450703D01*
X100790Y450752D01*
X100804Y450766D01*
X100821Y450776D01*
X100888Y450855D01*
X100960Y450930D01*
X100968Y450948D01*
X100981Y450963D01*
X101020Y451059D01*
X101063Y451153D01*
X101065Y451173D01*
X101073Y451191D01*
X101091Y451358D01*
X101091Y460349D01*
X107341Y466599D01*
X116179Y466599D01*
X122429Y460349D01*
X122429Y451358D01*
X122432Y451338D01*
X122430Y451319D01*
X122452Y451217D01*
X122468Y451115D01*
X122478Y451098D01*
X122482Y451078D01*
X122535Y450989D01*
X122584Y450898D01*
X122598Y450884D01*
X122608Y450867D01*
X122687Y450800D01*
X122762Y450728D01*
X122780Y450720D01*
X122795Y450707D01*
X122891Y450668D01*
X122985Y450625D01*
X123005Y450623D01*
X123023Y450615D01*
X123190Y450597D01*
X133293Y450597D01*
X135534Y449669D01*
X143734Y441468D01*
X143792Y441426D01*
X143844Y441377D01*
X143891Y441355D01*
X143933Y441325D01*
X144002Y441304D01*
X144067Y441273D01*
X144119Y441268D01*
X144169Y441252D01*
X144240Y441254D01*
X144311Y441246D01*
X144362Y441257D01*
X144414Y441259D01*
X144482Y441283D01*
X144552Y441299D01*
X144597Y441325D01*
X144645Y441343D01*
X144701Y441388D01*
X144763Y441425D01*
X144797Y441464D01*
X144837Y441497D01*
X144876Y441557D01*
X144923Y441612D01*
X144942Y441660D01*
X144970Y441704D01*
X144988Y441773D01*
X145015Y441840D01*
X145023Y441911D01*
X145031Y441942D01*
X145029Y441966D01*
X145033Y442007D01*
X145033Y445713D01*
X145961Y447954D01*
X147676Y449669D01*
X149917Y450597D01*
X224282Y450597D01*
X224302Y450600D01*
X224321Y450598D01*
X224423Y450620D01*
X224525Y450636D01*
X224542Y450646D01*
X224562Y450650D01*
X224651Y450703D01*
X224742Y450752D01*
X224756Y450766D01*
X224773Y450776D01*
X224840Y450855D01*
X224912Y450930D01*
X224920Y450948D01*
X224933Y450963D01*
X224972Y451059D01*
X225015Y451153D01*
X225017Y451173D01*
X225025Y451191D01*
X225043Y451358D01*
X225043Y467505D01*
X225024Y467619D01*
X225007Y467736D01*
X225005Y467741D01*
X225004Y467748D01*
X224949Y467850D01*
X224896Y467955D01*
X224891Y467959D01*
X224888Y467965D01*
X224804Y468045D01*
X224720Y468127D01*
X224714Y468131D01*
X224710Y468134D01*
X224693Y468142D01*
X224573Y468208D01*
X223514Y468647D01*
X219727Y472434D01*
X219143Y473843D01*
X219106Y473904D01*
X219076Y473969D01*
X219041Y474008D01*
X219014Y474052D01*
X218958Y474098D01*
X218910Y474150D01*
X218864Y474175D01*
X218824Y474209D01*
X218757Y474234D01*
X218694Y474269D01*
X218643Y474278D01*
X218595Y474297D01*
X218523Y474300D01*
X218452Y474313D01*
X218401Y474305D01*
X218349Y474307D01*
X218280Y474287D01*
X218209Y474277D01*
X218163Y474253D01*
X218113Y474239D01*
X218054Y474198D01*
X217990Y474165D01*
X217953Y474128D01*
X217911Y474098D01*
X217868Y474041D01*
X217818Y473990D01*
X217783Y473927D01*
X217764Y473901D01*
X217757Y473879D01*
X217737Y473843D01*
X217153Y472434D01*
X213366Y468647D01*
X208418Y466597D01*
X203062Y466597D01*
X198114Y468647D01*
X194327Y472434D01*
X192277Y477382D01*
X192277Y482738D01*
X194327Y487686D01*
X195181Y488540D01*
X195222Y488598D01*
X195272Y488650D01*
X195294Y488697D01*
X195324Y488739D01*
X195345Y488808D01*
X195375Y488873D01*
X195381Y488925D01*
X195396Y488975D01*
X195395Y489046D01*
X195403Y489117D01*
X195391Y489168D01*
X195390Y489220D01*
X195365Y489288D01*
X195350Y489358D01*
X195324Y489403D01*
X195306Y489451D01*
X195261Y489507D01*
X195224Y489569D01*
X195185Y489603D01*
X195152Y489643D01*
X195092Y489682D01*
X195037Y489729D01*
X194989Y489748D01*
X194945Y489776D01*
X194876Y489794D01*
X194809Y489821D01*
X194738Y489829D01*
X194707Y489837D01*
X194683Y489835D01*
X194642Y489839D01*
X120176Y489839D01*
X120106Y489828D01*
X120034Y489826D01*
X119985Y489808D01*
X119934Y489800D01*
X119870Y489766D01*
X119803Y489741D01*
X119762Y489709D01*
X119716Y489684D01*
X119667Y489632D01*
X119611Y489588D01*
X119583Y489544D01*
X119547Y489506D01*
X119517Y489441D01*
X119478Y489381D01*
X119465Y489330D01*
X119443Y489283D01*
X119435Y489212D01*
X119418Y489142D01*
X119422Y489090D01*
X119416Y489039D01*
X119431Y488968D01*
X119437Y488897D01*
X119457Y488849D01*
X119468Y488798D01*
X119505Y488737D01*
X119533Y488671D01*
X119578Y488615D01*
X119595Y488587D01*
X119612Y488572D01*
X119638Y488540D01*
X122429Y485749D01*
X122429Y476911D01*
X116179Y470661D01*
X107341Y470661D01*
X101091Y476911D01*
X101091Y485749D01*
X103882Y488540D01*
X103924Y488598D01*
X103973Y488650D01*
X103995Y488697D01*
X104025Y488739D01*
X104047Y488808D01*
X104077Y488873D01*
X104082Y488925D01*
X104098Y488975D01*
X104096Y489046D01*
X104104Y489117D01*
X104093Y489168D01*
X104091Y489220D01*
X104067Y489288D01*
X104052Y489358D01*
X104025Y489403D01*
X104007Y489451D01*
X103962Y489507D01*
X103925Y489569D01*
X103886Y489603D01*
X103853Y489643D01*
X103793Y489682D01*
X103738Y489729D01*
X103690Y489748D01*
X103646Y489776D01*
X103577Y489794D01*
X103510Y489821D01*
X103439Y489829D01*
X103408Y489837D01*
X103385Y489835D01*
X103344Y489839D01*
X10922Y489839D01*
X10902Y489836D01*
X10883Y489838D01*
X10781Y489816D01*
X10679Y489800D01*
X10662Y489790D01*
X10642Y489786D01*
X10553Y489733D01*
X10462Y489684D01*
X10448Y489670D01*
X10431Y489660D01*
X10364Y489581D01*
X10292Y489506D01*
X10284Y489488D01*
X10271Y489473D01*
X10232Y489377D01*
X10189Y489283D01*
X10187Y489263D01*
X10179Y489245D01*
X10161Y489078D01*
X10161Y474257D01*
X10161Y474253D01*
X10161Y474249D01*
X10181Y474131D01*
X10200Y474014D01*
X10202Y474010D01*
X10203Y474006D01*
X10260Y473901D01*
X10316Y473796D01*
X10318Y473794D01*
X10320Y473790D01*
X10408Y473709D01*
X10494Y473627D01*
X10498Y473625D01*
X10500Y473623D01*
X10609Y473574D01*
X10717Y473523D01*
X10721Y473523D01*
X10725Y473521D01*
X10844Y473509D01*
X10961Y473496D01*
X10965Y473497D01*
X10969Y473497D01*
X11085Y473523D01*
X11202Y473549D01*
X11205Y473551D01*
X11209Y473552D01*
X11309Y473613D01*
X11413Y473675D01*
X11416Y473678D01*
X11419Y473680D01*
X11495Y473770D01*
X11573Y473862D01*
X11574Y473865D01*
X11577Y473868D01*
X11646Y474021D01*
X11796Y474483D01*
X12649Y476157D01*
X13754Y477678D01*
X15082Y479006D01*
X16603Y480111D01*
X18277Y480964D01*
X20064Y481545D01*
X21337Y481746D01*
X21337Y470662D01*
X21340Y470642D01*
X21338Y470623D01*
X21360Y470521D01*
X21377Y470419D01*
X21386Y470402D01*
X21390Y470382D01*
X21443Y470293D01*
X21492Y470202D01*
X21506Y470188D01*
X21516Y470171D01*
X21595Y470104D01*
X21670Y470033D01*
X21688Y470024D01*
X21703Y470011D01*
X21799Y469973D01*
X21893Y469929D01*
X21913Y469927D01*
X21931Y469919D01*
X22098Y469901D01*
X22861Y469901D01*
X22861Y469899D01*
X22098Y469899D01*
X22078Y469896D01*
X22059Y469898D01*
X21957Y469876D01*
X21855Y469859D01*
X21838Y469850D01*
X21818Y469846D01*
X21729Y469793D01*
X21638Y469744D01*
X21624Y469730D01*
X21607Y469720D01*
X21540Y469641D01*
X21469Y469566D01*
X21460Y469548D01*
X21447Y469533D01*
X21408Y469437D01*
X21365Y469343D01*
X21363Y469323D01*
X21355Y469305D01*
X21337Y469138D01*
X21337Y458054D01*
X20064Y458255D01*
X18277Y458836D01*
X16603Y459689D01*
X15082Y460794D01*
X13754Y462122D01*
X12649Y463643D01*
X11796Y465317D01*
X11646Y465779D01*
X11644Y465782D01*
X11643Y465786D01*
X11588Y465890D01*
X11533Y465997D01*
X11530Y466000D01*
X11528Y466004D01*
X11442Y466085D01*
X11357Y466168D01*
X11353Y466170D01*
X11350Y466173D01*
X11241Y466224D01*
X11135Y466274D01*
X11131Y466275D01*
X11127Y466277D01*
X11008Y466290D01*
X10890Y466304D01*
X10886Y466303D01*
X10883Y466304D01*
X10767Y466278D01*
X10650Y466254D01*
X10646Y466252D01*
X10642Y466251D01*
X10541Y466191D01*
X10437Y466130D01*
X10434Y466127D01*
X10431Y466125D01*
X10354Y466035D01*
X10275Y465945D01*
X10274Y465941D01*
X10271Y465938D01*
X10226Y465827D01*
X10181Y465718D01*
X10181Y465714D01*
X10179Y465710D01*
X10161Y465543D01*
X10161Y10922D01*
X10164Y10902D01*
X10162Y10883D01*
X10184Y10781D01*
X10200Y10679D01*
X10210Y10662D01*
X10214Y10642D01*
X10267Y10553D01*
X10316Y10462D01*
X10330Y10448D01*
X10340Y10431D01*
X10419Y10364D01*
X10494Y10292D01*
X10512Y10284D01*
X10527Y10271D01*
X10623Y10232D01*
X10717Y10189D01*
X10737Y10187D01*
X10755Y10179D01*
X10922Y10161D01*
X115368Y10161D01*
X115464Y10176D01*
G37*
%LPC*%
G36*
X25399Y165099D02*
X25399Y165099D01*
X25399Y165862D01*
X25396Y165882D01*
X25398Y165901D01*
X25376Y166003D01*
X25359Y166105D01*
X25350Y166122D01*
X25346Y166142D01*
X25293Y166231D01*
X25244Y166322D01*
X25230Y166336D01*
X25220Y166353D01*
X25141Y166420D01*
X25066Y166491D01*
X25048Y166500D01*
X25033Y166513D01*
X24937Y166552D01*
X24843Y166595D01*
X24823Y166597D01*
X24805Y166605D01*
X24638Y166623D01*
X13554Y166623D01*
X13755Y167896D01*
X14336Y169683D01*
X15189Y171357D01*
X16294Y172878D01*
X17622Y174206D01*
X19143Y175311D01*
X20817Y176164D01*
X21104Y176257D01*
X21194Y176304D01*
X21286Y176345D01*
X21302Y176360D01*
X21322Y176370D01*
X21393Y176443D01*
X21467Y176511D01*
X21478Y176531D01*
X21493Y176547D01*
X21537Y176638D01*
X21586Y176727D01*
X21590Y176749D01*
X21599Y176769D01*
X21612Y176869D01*
X21630Y176969D01*
X21626Y176991D01*
X21629Y177013D01*
X21609Y177112D01*
X21594Y177212D01*
X21584Y177232D01*
X21579Y177254D01*
X21528Y177341D01*
X21482Y177431D01*
X21466Y177447D01*
X21455Y177466D01*
X21379Y177533D01*
X21307Y177604D01*
X21283Y177617D01*
X21270Y177628D01*
X21240Y177640D01*
X21160Y177684D01*
X17774Y179087D01*
X13987Y182874D01*
X11937Y187822D01*
X11937Y193178D01*
X13987Y198126D01*
X17774Y201913D01*
X19183Y202497D01*
X19244Y202534D01*
X19309Y202564D01*
X19348Y202599D01*
X19392Y202626D01*
X19438Y202682D01*
X19490Y202730D01*
X19515Y202776D01*
X19549Y202816D01*
X19574Y202883D01*
X19609Y202946D01*
X19618Y202997D01*
X19637Y203045D01*
X19640Y203117D01*
X19653Y203188D01*
X19645Y203239D01*
X19647Y203291D01*
X19627Y203360D01*
X19617Y203431D01*
X19593Y203477D01*
X19579Y203527D01*
X19538Y203586D01*
X19505Y203650D01*
X19468Y203687D01*
X19438Y203729D01*
X19381Y203772D01*
X19330Y203822D01*
X19267Y203857D01*
X19241Y203876D01*
X19219Y203883D01*
X19183Y203903D01*
X17774Y204487D01*
X13987Y208274D01*
X11937Y213222D01*
X11937Y218578D01*
X13987Y223526D01*
X17774Y227313D01*
X19183Y227897D01*
X19244Y227934D01*
X19309Y227964D01*
X19348Y227999D01*
X19392Y228026D01*
X19438Y228082D01*
X19490Y228130D01*
X19515Y228176D01*
X19549Y228216D01*
X19574Y228283D01*
X19609Y228346D01*
X19618Y228397D01*
X19637Y228445D01*
X19640Y228517D01*
X19653Y228588D01*
X19645Y228639D01*
X19647Y228691D01*
X19627Y228760D01*
X19617Y228831D01*
X19593Y228877D01*
X19579Y228927D01*
X19538Y228986D01*
X19505Y229050D01*
X19468Y229087D01*
X19438Y229129D01*
X19381Y229172D01*
X19330Y229222D01*
X19267Y229257D01*
X19241Y229276D01*
X19219Y229283D01*
X19183Y229303D01*
X17774Y229887D01*
X13987Y233674D01*
X11937Y238622D01*
X11937Y243978D01*
X13987Y248926D01*
X17774Y252713D01*
X19183Y253297D01*
X19244Y253334D01*
X19309Y253364D01*
X19348Y253399D01*
X19392Y253426D01*
X19438Y253482D01*
X19490Y253530D01*
X19515Y253576D01*
X19549Y253616D01*
X19574Y253683D01*
X19609Y253746D01*
X19618Y253797D01*
X19637Y253845D01*
X19640Y253917D01*
X19653Y253988D01*
X19645Y254039D01*
X19647Y254091D01*
X19627Y254160D01*
X19617Y254231D01*
X19593Y254277D01*
X19579Y254327D01*
X19538Y254386D01*
X19505Y254450D01*
X19468Y254487D01*
X19438Y254529D01*
X19381Y254572D01*
X19330Y254622D01*
X19267Y254657D01*
X19241Y254676D01*
X19219Y254683D01*
X19183Y254703D01*
X17774Y255287D01*
X13987Y259074D01*
X11937Y264022D01*
X11937Y269378D01*
X13987Y274326D01*
X17774Y278113D01*
X19183Y278697D01*
X19244Y278734D01*
X19309Y278764D01*
X19348Y278799D01*
X19392Y278826D01*
X19438Y278882D01*
X19490Y278930D01*
X19515Y278976D01*
X19549Y279016D01*
X19574Y279083D01*
X19609Y279146D01*
X19618Y279197D01*
X19637Y279245D01*
X19640Y279317D01*
X19653Y279388D01*
X19645Y279439D01*
X19647Y279491D01*
X19627Y279560D01*
X19617Y279631D01*
X19593Y279677D01*
X19579Y279727D01*
X19538Y279786D01*
X19505Y279850D01*
X19468Y279887D01*
X19438Y279929D01*
X19381Y279972D01*
X19330Y280022D01*
X19267Y280057D01*
X19241Y280076D01*
X19219Y280083D01*
X19183Y280103D01*
X17774Y280687D01*
X13987Y284474D01*
X11937Y289422D01*
X11937Y294778D01*
X13987Y299726D01*
X17774Y303513D01*
X19183Y304097D01*
X19244Y304134D01*
X19309Y304164D01*
X19348Y304199D01*
X19392Y304226D01*
X19438Y304282D01*
X19490Y304330D01*
X19515Y304376D01*
X19549Y304416D01*
X19574Y304483D01*
X19609Y304546D01*
X19618Y304597D01*
X19637Y304645D01*
X19640Y304717D01*
X19653Y304788D01*
X19645Y304839D01*
X19647Y304891D01*
X19627Y304960D01*
X19617Y305031D01*
X19593Y305077D01*
X19579Y305127D01*
X19538Y305186D01*
X19505Y305250D01*
X19468Y305287D01*
X19438Y305329D01*
X19381Y305372D01*
X19330Y305422D01*
X19267Y305457D01*
X19241Y305476D01*
X19219Y305483D01*
X19183Y305503D01*
X17774Y306087D01*
X13987Y309874D01*
X11937Y314822D01*
X11937Y320178D01*
X13987Y325126D01*
X17774Y328913D01*
X19183Y329497D01*
X19244Y329534D01*
X19309Y329564D01*
X19348Y329599D01*
X19392Y329626D01*
X19438Y329682D01*
X19490Y329730D01*
X19515Y329776D01*
X19549Y329816D01*
X19574Y329883D01*
X19609Y329946D01*
X19618Y329997D01*
X19637Y330045D01*
X19640Y330117D01*
X19653Y330188D01*
X19645Y330239D01*
X19647Y330291D01*
X19627Y330360D01*
X19617Y330431D01*
X19593Y330477D01*
X19579Y330527D01*
X19538Y330586D01*
X19505Y330650D01*
X19468Y330687D01*
X19438Y330729D01*
X19381Y330772D01*
X19330Y330822D01*
X19267Y330857D01*
X19241Y330876D01*
X19219Y330883D01*
X19183Y330903D01*
X17774Y331487D01*
X13987Y335274D01*
X11937Y340222D01*
X11937Y345578D01*
X13987Y350526D01*
X17774Y354313D01*
X19183Y354897D01*
X19244Y354934D01*
X19309Y354964D01*
X19348Y354999D01*
X19392Y355026D01*
X19438Y355082D01*
X19490Y355130D01*
X19515Y355176D01*
X19549Y355216D01*
X19574Y355283D01*
X19609Y355346D01*
X19618Y355397D01*
X19637Y355445D01*
X19640Y355517D01*
X19653Y355588D01*
X19645Y355639D01*
X19647Y355691D01*
X19627Y355760D01*
X19617Y355831D01*
X19593Y355877D01*
X19579Y355927D01*
X19538Y355986D01*
X19505Y356050D01*
X19468Y356087D01*
X19438Y356129D01*
X19381Y356172D01*
X19330Y356222D01*
X19267Y356257D01*
X19241Y356276D01*
X19219Y356283D01*
X19183Y356303D01*
X17774Y356887D01*
X13987Y360674D01*
X11937Y365622D01*
X11937Y370978D01*
X13987Y375926D01*
X17774Y379713D01*
X22722Y381763D01*
X28078Y381763D01*
X29137Y381324D01*
X29250Y381297D01*
X29364Y381269D01*
X29371Y381269D01*
X29377Y381268D01*
X29493Y381279D01*
X29610Y381288D01*
X29615Y381290D01*
X29622Y381291D01*
X29730Y381339D01*
X29836Y381384D01*
X29842Y381389D01*
X29846Y381391D01*
X29860Y381404D01*
X29967Y381489D01*
X45524Y397046D01*
X47346Y398869D01*
X49587Y399797D01*
X121684Y399797D01*
X121775Y399811D01*
X121865Y399819D01*
X121895Y399831D01*
X121927Y399836D01*
X122008Y399879D01*
X122092Y399915D01*
X122124Y399941D01*
X122145Y399952D01*
X122167Y399975D01*
X122223Y400020D01*
X122555Y400352D01*
X125439Y401547D01*
X128561Y401547D01*
X131445Y400352D01*
X133652Y398145D01*
X134847Y395261D01*
X134847Y392139D01*
X133652Y389255D01*
X131445Y387048D01*
X128561Y385853D01*
X125439Y385853D01*
X122555Y387048D01*
X122223Y387380D01*
X122149Y387433D01*
X122079Y387493D01*
X122049Y387505D01*
X122023Y387524D01*
X121936Y387551D01*
X121851Y387585D01*
X121810Y387589D01*
X121788Y387596D01*
X121756Y387595D01*
X121684Y387603D01*
X53641Y387603D01*
X53551Y387589D01*
X53460Y387581D01*
X53430Y387569D01*
X53398Y387564D01*
X53317Y387521D01*
X53233Y387485D01*
X53201Y387459D01*
X53181Y387448D01*
X53158Y387425D01*
X53102Y387380D01*
X38589Y372867D01*
X38521Y372772D01*
X38451Y372678D01*
X38449Y372672D01*
X38445Y372667D01*
X38411Y372555D01*
X38375Y372444D01*
X38375Y372438D01*
X38373Y372432D01*
X38376Y372315D01*
X38377Y372198D01*
X38379Y372191D01*
X38379Y372186D01*
X38386Y372169D01*
X38424Y372037D01*
X38863Y370978D01*
X38863Y366823D01*
X38874Y366752D01*
X38876Y366680D01*
X38894Y366631D01*
X38902Y366580D01*
X38936Y366517D01*
X38961Y366449D01*
X38993Y366409D01*
X39018Y366362D01*
X39070Y366313D01*
X39114Y366257D01*
X39158Y366229D01*
X39196Y366193D01*
X39261Y366163D01*
X39321Y366124D01*
X39372Y366111D01*
X39419Y366089D01*
X39490Y366082D01*
X39560Y366064D01*
X39612Y366068D01*
X39663Y366062D01*
X39734Y366078D01*
X39805Y366083D01*
X39853Y366104D01*
X39904Y366115D01*
X39965Y366151D01*
X40031Y366180D01*
X40087Y366224D01*
X40115Y366241D01*
X40130Y366259D01*
X40162Y366284D01*
X47346Y373469D01*
X49587Y374397D01*
X121684Y374397D01*
X121775Y374411D01*
X121865Y374419D01*
X121895Y374431D01*
X121927Y374436D01*
X122008Y374479D01*
X122092Y374515D01*
X122124Y374541D01*
X122145Y374552D01*
X122167Y374575D01*
X122223Y374620D01*
X122555Y374952D01*
X125439Y376147D01*
X128561Y376147D01*
X131445Y374952D01*
X133652Y372745D01*
X134847Y369861D01*
X134847Y366739D01*
X133652Y363855D01*
X131445Y361648D01*
X128561Y360453D01*
X125439Y360453D01*
X122555Y361648D01*
X122223Y361980D01*
X122149Y362033D01*
X122079Y362093D01*
X122049Y362105D01*
X122023Y362124D01*
X121936Y362151D01*
X121851Y362185D01*
X121810Y362189D01*
X121788Y362196D01*
X121756Y362195D01*
X121684Y362203D01*
X53641Y362203D01*
X53551Y362189D01*
X53460Y362181D01*
X53430Y362169D01*
X53398Y362164D01*
X53317Y362121D01*
X53233Y362085D01*
X53201Y362059D01*
X53181Y362048D01*
X53158Y362025D01*
X53102Y361980D01*
X38589Y347467D01*
X38521Y347372D01*
X38451Y347278D01*
X38449Y347272D01*
X38445Y347267D01*
X38411Y347156D01*
X38375Y347044D01*
X38375Y347038D01*
X38373Y347032D01*
X38376Y346915D01*
X38377Y346798D01*
X38379Y346791D01*
X38379Y346786D01*
X38386Y346769D01*
X38424Y346637D01*
X38863Y345578D01*
X38863Y340222D01*
X36813Y335274D01*
X33026Y331487D01*
X31617Y330903D01*
X31556Y330865D01*
X31491Y330836D01*
X31452Y330801D01*
X31408Y330774D01*
X31362Y330718D01*
X31310Y330670D01*
X31285Y330624D01*
X31251Y330584D01*
X31226Y330517D01*
X31191Y330454D01*
X31182Y330403D01*
X31163Y330355D01*
X31160Y330283D01*
X31147Y330212D01*
X31155Y330161D01*
X31153Y330109D01*
X31173Y330040D01*
X31183Y329969D01*
X31207Y329923D01*
X31221Y329873D01*
X31262Y329814D01*
X31295Y329750D01*
X31332Y329713D01*
X31362Y329671D01*
X31419Y329628D01*
X31470Y329578D01*
X31533Y329543D01*
X31559Y329524D01*
X31581Y329517D01*
X31617Y329497D01*
X33026Y328913D01*
X36813Y325126D01*
X38863Y320178D01*
X38863Y314822D01*
X36813Y309874D01*
X33026Y306087D01*
X31617Y305503D01*
X31556Y305465D01*
X31491Y305436D01*
X31452Y305401D01*
X31408Y305374D01*
X31362Y305318D01*
X31310Y305270D01*
X31285Y305224D01*
X31251Y305184D01*
X31226Y305117D01*
X31191Y305054D01*
X31182Y305003D01*
X31163Y304955D01*
X31160Y304883D01*
X31147Y304812D01*
X31155Y304761D01*
X31153Y304709D01*
X31173Y304640D01*
X31183Y304569D01*
X31207Y304523D01*
X31221Y304473D01*
X31262Y304414D01*
X31295Y304350D01*
X31332Y304313D01*
X31362Y304271D01*
X31419Y304228D01*
X31470Y304178D01*
X31533Y304143D01*
X31559Y304124D01*
X31581Y304117D01*
X31617Y304097D01*
X33026Y303513D01*
X36813Y299726D01*
X38863Y294778D01*
X38863Y289422D01*
X36813Y284474D01*
X33026Y280687D01*
X31617Y280103D01*
X31556Y280065D01*
X31491Y280036D01*
X31452Y280001D01*
X31408Y279974D01*
X31362Y279918D01*
X31310Y279870D01*
X31285Y279824D01*
X31251Y279784D01*
X31226Y279717D01*
X31191Y279654D01*
X31182Y279603D01*
X31163Y279555D01*
X31160Y279483D01*
X31147Y279412D01*
X31155Y279361D01*
X31153Y279309D01*
X31173Y279240D01*
X31183Y279169D01*
X31207Y279123D01*
X31221Y279073D01*
X31262Y279014D01*
X31295Y278950D01*
X31332Y278913D01*
X31362Y278871D01*
X31419Y278828D01*
X31470Y278778D01*
X31533Y278743D01*
X31559Y278724D01*
X31581Y278717D01*
X31617Y278697D01*
X33026Y278113D01*
X36813Y274326D01*
X38863Y269378D01*
X38863Y264022D01*
X36813Y259074D01*
X33026Y255287D01*
X31617Y254703D01*
X31556Y254665D01*
X31491Y254636D01*
X31452Y254601D01*
X31408Y254574D01*
X31362Y254518D01*
X31310Y254470D01*
X31285Y254424D01*
X31251Y254384D01*
X31226Y254317D01*
X31191Y254254D01*
X31182Y254203D01*
X31163Y254155D01*
X31160Y254083D01*
X31147Y254012D01*
X31155Y253961D01*
X31153Y253909D01*
X31173Y253840D01*
X31183Y253769D01*
X31207Y253723D01*
X31221Y253673D01*
X31262Y253614D01*
X31295Y253550D01*
X31332Y253513D01*
X31362Y253471D01*
X31419Y253428D01*
X31470Y253378D01*
X31533Y253343D01*
X31559Y253324D01*
X31581Y253317D01*
X31617Y253297D01*
X33026Y252713D01*
X36813Y248926D01*
X38863Y243978D01*
X38863Y238622D01*
X36813Y233674D01*
X33026Y229887D01*
X31617Y229303D01*
X31556Y229265D01*
X31491Y229236D01*
X31452Y229201D01*
X31408Y229174D01*
X31362Y229118D01*
X31310Y229070D01*
X31285Y229024D01*
X31251Y228984D01*
X31226Y228917D01*
X31191Y228854D01*
X31182Y228803D01*
X31163Y228755D01*
X31160Y228683D01*
X31147Y228612D01*
X31155Y228561D01*
X31153Y228509D01*
X31173Y228440D01*
X31183Y228369D01*
X31207Y228323D01*
X31221Y228273D01*
X31262Y228214D01*
X31295Y228150D01*
X31332Y228113D01*
X31362Y228071D01*
X31419Y228028D01*
X31470Y227978D01*
X31533Y227943D01*
X31559Y227924D01*
X31581Y227917D01*
X31617Y227897D01*
X33026Y227313D01*
X36813Y223526D01*
X38863Y218578D01*
X38863Y214423D01*
X38874Y214352D01*
X38876Y214280D01*
X38894Y214231D01*
X38902Y214180D01*
X38936Y214117D01*
X38961Y214049D01*
X38993Y214009D01*
X39018Y213962D01*
X39070Y213913D01*
X39114Y213857D01*
X39158Y213829D01*
X39196Y213793D01*
X39261Y213763D01*
X39321Y213724D01*
X39372Y213711D01*
X39419Y213689D01*
X39490Y213682D01*
X39560Y213664D01*
X39612Y213668D01*
X39663Y213662D01*
X39734Y213678D01*
X39805Y213683D01*
X39853Y213704D01*
X39904Y213715D01*
X39965Y213751D01*
X40031Y213780D01*
X40087Y213824D01*
X40115Y213841D01*
X40130Y213859D01*
X40162Y213884D01*
X67340Y241062D01*
X67385Y241125D01*
X67412Y241153D01*
X67417Y241163D01*
X67453Y241206D01*
X67465Y241236D01*
X67484Y241262D01*
X67511Y241349D01*
X67545Y241434D01*
X67549Y241475D01*
X67556Y241497D01*
X67555Y241529D01*
X67563Y241601D01*
X67563Y339944D01*
X67549Y340034D01*
X67541Y340125D01*
X67529Y340154D01*
X67524Y340186D01*
X67481Y340267D01*
X67445Y340351D01*
X67419Y340383D01*
X67408Y340404D01*
X67385Y340426D01*
X67340Y340482D01*
X62991Y344831D01*
X62991Y353669D01*
X69241Y359919D01*
X78079Y359919D01*
X84329Y353669D01*
X84329Y344831D01*
X79980Y340482D01*
X79927Y340408D01*
X79867Y340338D01*
X79855Y340308D01*
X79836Y340282D01*
X79809Y340195D01*
X79775Y340110D01*
X79771Y340069D01*
X79764Y340047D01*
X79765Y340015D01*
X79757Y339944D01*
X79757Y237547D01*
X78829Y235306D01*
X38589Y195067D01*
X38521Y194973D01*
X38451Y194878D01*
X38449Y194872D01*
X38445Y194867D01*
X38411Y194756D01*
X38375Y194644D01*
X38375Y194638D01*
X38373Y194632D01*
X38376Y194515D01*
X38377Y194398D01*
X38379Y194391D01*
X38379Y194386D01*
X38386Y194369D01*
X38424Y194237D01*
X38863Y193178D01*
X38863Y187822D01*
X36813Y182874D01*
X33026Y179087D01*
X29640Y177684D01*
X29554Y177631D01*
X29465Y177583D01*
X29450Y177566D01*
X29431Y177555D01*
X29367Y177477D01*
X29298Y177403D01*
X29289Y177382D01*
X29274Y177365D01*
X29238Y177271D01*
X29196Y177178D01*
X29194Y177156D01*
X29186Y177136D01*
X29182Y177035D01*
X29172Y176934D01*
X29177Y176912D01*
X29176Y176890D01*
X29204Y176793D01*
X29227Y176694D01*
X29238Y176675D01*
X29244Y176654D01*
X29302Y176571D01*
X29355Y176484D01*
X29372Y176470D01*
X29385Y176452D01*
X29466Y176391D01*
X29544Y176326D01*
X29568Y176315D01*
X29582Y176305D01*
X29613Y176295D01*
X29696Y176257D01*
X29983Y176164D01*
X31657Y175311D01*
X33178Y174206D01*
X34506Y172878D01*
X35611Y171357D01*
X36464Y169683D01*
X37045Y167896D01*
X37246Y166623D01*
X26162Y166623D01*
X26142Y166620D01*
X26123Y166622D01*
X26021Y166600D01*
X25919Y166583D01*
X25902Y166574D01*
X25882Y166570D01*
X25793Y166517D01*
X25702Y166468D01*
X25688Y166454D01*
X25671Y166444D01*
X25604Y166365D01*
X25533Y166290D01*
X25524Y166272D01*
X25511Y166257D01*
X25473Y166161D01*
X25429Y166067D01*
X25427Y166047D01*
X25419Y166029D01*
X25401Y165862D01*
X25401Y165099D01*
X25399Y165099D01*
G37*
%LPD*%
%LPC*%
G36*
X469899Y139699D02*
X469899Y139699D01*
X469899Y140462D01*
X469896Y140482D01*
X469898Y140501D01*
X469876Y140603D01*
X469859Y140705D01*
X469850Y140722D01*
X469846Y140742D01*
X469793Y140831D01*
X469744Y140922D01*
X469730Y140936D01*
X469720Y140953D01*
X469641Y141020D01*
X469566Y141091D01*
X469548Y141100D01*
X469533Y141113D01*
X469437Y141152D01*
X469343Y141195D01*
X469323Y141197D01*
X469305Y141205D01*
X469138Y141223D01*
X458054Y141223D01*
X458255Y142496D01*
X458836Y144283D01*
X459689Y145957D01*
X460794Y147478D01*
X462122Y148806D01*
X463643Y149911D01*
X465317Y150764D01*
X465604Y150857D01*
X465694Y150904D01*
X465786Y150945D01*
X465802Y150960D01*
X465822Y150970D01*
X465893Y151043D01*
X465967Y151111D01*
X465978Y151131D01*
X465993Y151147D01*
X466037Y151238D01*
X466086Y151327D01*
X466090Y151349D01*
X466099Y151369D01*
X466112Y151469D01*
X466130Y151569D01*
X466126Y151591D01*
X466129Y151613D01*
X466109Y151712D01*
X466094Y151812D01*
X466084Y151832D01*
X466079Y151854D01*
X466028Y151941D01*
X465982Y152031D01*
X465966Y152047D01*
X465955Y152066D01*
X465879Y152133D01*
X465807Y152204D01*
X465783Y152217D01*
X465770Y152228D01*
X465740Y152240D01*
X465660Y152284D01*
X462274Y153687D01*
X458487Y157474D01*
X456437Y162422D01*
X456437Y167778D01*
X458487Y172726D01*
X462274Y176513D01*
X463683Y177097D01*
X463744Y177134D01*
X463809Y177164D01*
X463848Y177199D01*
X463892Y177226D01*
X463938Y177282D01*
X463990Y177330D01*
X464015Y177376D01*
X464049Y177416D01*
X464074Y177483D01*
X464109Y177546D01*
X464118Y177597D01*
X464137Y177645D01*
X464140Y177717D01*
X464153Y177788D01*
X464145Y177839D01*
X464147Y177891D01*
X464127Y177960D01*
X464117Y178031D01*
X464093Y178077D01*
X464079Y178127D01*
X464038Y178186D01*
X464005Y178250D01*
X463968Y178287D01*
X463938Y178329D01*
X463881Y178372D01*
X463830Y178422D01*
X463767Y178457D01*
X463741Y178476D01*
X463719Y178483D01*
X463683Y178503D01*
X462274Y179087D01*
X458487Y182874D01*
X456437Y187822D01*
X456437Y193178D01*
X458487Y198126D01*
X462274Y201913D01*
X463683Y202497D01*
X463744Y202534D01*
X463809Y202564D01*
X463848Y202599D01*
X463892Y202626D01*
X463938Y202682D01*
X463990Y202730D01*
X464015Y202776D01*
X464049Y202816D01*
X464074Y202883D01*
X464109Y202946D01*
X464118Y202997D01*
X464137Y203045D01*
X464140Y203117D01*
X464153Y203188D01*
X464145Y203239D01*
X464147Y203291D01*
X464127Y203360D01*
X464117Y203431D01*
X464093Y203477D01*
X464079Y203527D01*
X464038Y203586D01*
X464005Y203650D01*
X463968Y203687D01*
X463938Y203729D01*
X463881Y203772D01*
X463830Y203822D01*
X463767Y203857D01*
X463741Y203876D01*
X463719Y203883D01*
X463683Y203903D01*
X462274Y204487D01*
X458487Y208274D01*
X456437Y213222D01*
X456437Y218578D01*
X458487Y223526D01*
X462274Y227313D01*
X463683Y227897D01*
X463744Y227934D01*
X463809Y227964D01*
X463848Y227999D01*
X463892Y228026D01*
X463938Y228082D01*
X463990Y228130D01*
X464015Y228176D01*
X464049Y228216D01*
X464074Y228283D01*
X464109Y228346D01*
X464118Y228397D01*
X464137Y228445D01*
X464140Y228517D01*
X464153Y228588D01*
X464145Y228639D01*
X464147Y228691D01*
X464127Y228760D01*
X464117Y228831D01*
X464093Y228877D01*
X464079Y228927D01*
X464038Y228986D01*
X464005Y229050D01*
X463968Y229087D01*
X463938Y229129D01*
X463881Y229172D01*
X463830Y229222D01*
X463767Y229257D01*
X463741Y229276D01*
X463719Y229283D01*
X463683Y229303D01*
X462274Y229887D01*
X458487Y233674D01*
X456437Y238622D01*
X456437Y243978D01*
X458487Y248926D01*
X462274Y252713D01*
X463683Y253297D01*
X463744Y253334D01*
X463809Y253364D01*
X463848Y253399D01*
X463892Y253426D01*
X463938Y253482D01*
X463990Y253530D01*
X464015Y253576D01*
X464049Y253616D01*
X464074Y253683D01*
X464109Y253746D01*
X464118Y253797D01*
X464137Y253845D01*
X464140Y253917D01*
X464153Y253988D01*
X464145Y254039D01*
X464147Y254091D01*
X464127Y254160D01*
X464117Y254231D01*
X464093Y254277D01*
X464079Y254327D01*
X464038Y254386D01*
X464005Y254450D01*
X463968Y254487D01*
X463938Y254529D01*
X463881Y254572D01*
X463830Y254622D01*
X463767Y254657D01*
X463741Y254676D01*
X463719Y254683D01*
X463683Y254703D01*
X462274Y255287D01*
X458487Y259074D01*
X456437Y264022D01*
X456437Y269378D01*
X458487Y274326D01*
X462274Y278113D01*
X463683Y278697D01*
X463744Y278734D01*
X463809Y278764D01*
X463848Y278799D01*
X463892Y278826D01*
X463938Y278882D01*
X463990Y278930D01*
X464015Y278976D01*
X464049Y279016D01*
X464074Y279083D01*
X464109Y279146D01*
X464118Y279197D01*
X464137Y279245D01*
X464140Y279317D01*
X464153Y279388D01*
X464145Y279439D01*
X464147Y279491D01*
X464127Y279560D01*
X464117Y279631D01*
X464093Y279677D01*
X464079Y279727D01*
X464038Y279786D01*
X464005Y279850D01*
X463968Y279887D01*
X463938Y279929D01*
X463881Y279972D01*
X463830Y280022D01*
X463767Y280057D01*
X463741Y280076D01*
X463719Y280083D01*
X463683Y280103D01*
X462274Y280687D01*
X458487Y284474D01*
X456437Y289422D01*
X456437Y294778D01*
X458487Y299726D01*
X462274Y303513D01*
X463683Y304097D01*
X463744Y304134D01*
X463809Y304164D01*
X463848Y304199D01*
X463892Y304226D01*
X463938Y304282D01*
X463990Y304330D01*
X464015Y304376D01*
X464049Y304416D01*
X464074Y304483D01*
X464109Y304546D01*
X464118Y304597D01*
X464137Y304645D01*
X464140Y304717D01*
X464153Y304788D01*
X464145Y304839D01*
X464147Y304891D01*
X464127Y304960D01*
X464117Y305031D01*
X464093Y305077D01*
X464079Y305127D01*
X464038Y305186D01*
X464005Y305250D01*
X463968Y305287D01*
X463938Y305329D01*
X463881Y305372D01*
X463830Y305422D01*
X463767Y305457D01*
X463741Y305476D01*
X463719Y305483D01*
X463683Y305503D01*
X462274Y306087D01*
X458487Y309874D01*
X456437Y314822D01*
X456437Y320178D01*
X458487Y325126D01*
X462274Y328913D01*
X463683Y329497D01*
X463744Y329534D01*
X463809Y329564D01*
X463848Y329599D01*
X463892Y329626D01*
X463938Y329682D01*
X463990Y329730D01*
X464015Y329776D01*
X464049Y329816D01*
X464074Y329883D01*
X464109Y329946D01*
X464118Y329997D01*
X464137Y330045D01*
X464140Y330117D01*
X464153Y330188D01*
X464145Y330239D01*
X464147Y330291D01*
X464127Y330360D01*
X464117Y330431D01*
X464093Y330477D01*
X464079Y330527D01*
X464038Y330586D01*
X464005Y330650D01*
X463968Y330687D01*
X463938Y330729D01*
X463881Y330772D01*
X463830Y330822D01*
X463767Y330857D01*
X463741Y330876D01*
X463719Y330883D01*
X463683Y330903D01*
X462274Y331487D01*
X458487Y335274D01*
X456437Y340222D01*
X456437Y345578D01*
X458487Y350526D01*
X462274Y354313D01*
X463683Y354897D01*
X463744Y354934D01*
X463809Y354964D01*
X463848Y354999D01*
X463892Y355026D01*
X463938Y355082D01*
X463990Y355130D01*
X464015Y355176D01*
X464049Y355216D01*
X464074Y355283D01*
X464109Y355346D01*
X464118Y355397D01*
X464137Y355445D01*
X464140Y355517D01*
X464153Y355588D01*
X464145Y355639D01*
X464147Y355691D01*
X464127Y355760D01*
X464117Y355831D01*
X464093Y355877D01*
X464079Y355927D01*
X464038Y355986D01*
X464005Y356050D01*
X463968Y356087D01*
X463938Y356129D01*
X463881Y356172D01*
X463830Y356222D01*
X463767Y356257D01*
X463741Y356276D01*
X463719Y356283D01*
X463683Y356303D01*
X462274Y356887D01*
X458487Y360674D01*
X456437Y365622D01*
X456437Y370978D01*
X458487Y375926D01*
X462274Y379713D01*
X467222Y381763D01*
X472578Y381763D01*
X477526Y379713D01*
X481313Y375926D01*
X483363Y370978D01*
X483363Y365622D01*
X481313Y360674D01*
X477526Y356887D01*
X476117Y356303D01*
X476056Y356265D01*
X475991Y356236D01*
X475952Y356201D01*
X475908Y356174D01*
X475862Y356118D01*
X475810Y356070D01*
X475785Y356024D01*
X475751Y355984D01*
X475726Y355917D01*
X475691Y355854D01*
X475682Y355803D01*
X475663Y355755D01*
X475660Y355683D01*
X475647Y355612D01*
X475655Y355561D01*
X475653Y355509D01*
X475673Y355440D01*
X475683Y355369D01*
X475707Y355323D01*
X475721Y355273D01*
X475762Y355214D01*
X475795Y355150D01*
X475832Y355113D01*
X475862Y355071D01*
X475919Y355028D01*
X475970Y354978D01*
X476033Y354943D01*
X476059Y354924D01*
X476081Y354917D01*
X476117Y354897D01*
X477526Y354313D01*
X481313Y350526D01*
X483363Y345578D01*
X483363Y340222D01*
X481313Y335274D01*
X477526Y331487D01*
X476117Y330903D01*
X476056Y330865D01*
X475991Y330836D01*
X475952Y330801D01*
X475908Y330774D01*
X475862Y330718D01*
X475810Y330670D01*
X475785Y330624D01*
X475751Y330584D01*
X475726Y330517D01*
X475691Y330454D01*
X475682Y330403D01*
X475663Y330355D01*
X475660Y330283D01*
X475647Y330212D01*
X475655Y330161D01*
X475653Y330109D01*
X475673Y330040D01*
X475683Y329969D01*
X475707Y329923D01*
X475721Y329873D01*
X475762Y329814D01*
X475795Y329750D01*
X475832Y329713D01*
X475862Y329671D01*
X475919Y329628D01*
X475970Y329578D01*
X476033Y329543D01*
X476059Y329524D01*
X476081Y329517D01*
X476117Y329497D01*
X477526Y328913D01*
X481313Y325126D01*
X483363Y320178D01*
X483363Y314822D01*
X481313Y309874D01*
X477526Y306087D01*
X476117Y305503D01*
X476056Y305465D01*
X475991Y305436D01*
X475952Y305401D01*
X475908Y305374D01*
X475862Y305318D01*
X475810Y305270D01*
X475785Y305224D01*
X475751Y305184D01*
X475726Y305117D01*
X475691Y305054D01*
X475682Y305003D01*
X475663Y304955D01*
X475660Y304883D01*
X475647Y304812D01*
X475655Y304761D01*
X475653Y304709D01*
X475673Y304640D01*
X475683Y304569D01*
X475707Y304523D01*
X475721Y304473D01*
X475762Y304414D01*
X475795Y304350D01*
X475832Y304313D01*
X475862Y304271D01*
X475919Y304228D01*
X475970Y304178D01*
X476033Y304143D01*
X476059Y304124D01*
X476081Y304117D01*
X476117Y304097D01*
X477526Y303513D01*
X481313Y299726D01*
X483363Y294778D01*
X483363Y289422D01*
X481313Y284474D01*
X477526Y280687D01*
X476117Y280103D01*
X476056Y280065D01*
X475991Y280036D01*
X475952Y280001D01*
X475908Y279974D01*
X475862Y279918D01*
X475810Y279870D01*
X475785Y279824D01*
X475751Y279784D01*
X475726Y279717D01*
X475691Y279654D01*
X475682Y279603D01*
X475663Y279555D01*
X475660Y279483D01*
X475647Y279412D01*
X475655Y279361D01*
X475653Y279309D01*
X475673Y279240D01*
X475683Y279169D01*
X475707Y279123D01*
X475721Y279073D01*
X475762Y279014D01*
X475795Y278950D01*
X475832Y278913D01*
X475862Y278871D01*
X475919Y278828D01*
X475970Y278778D01*
X476033Y278743D01*
X476059Y278724D01*
X476081Y278717D01*
X476117Y278697D01*
X477526Y278113D01*
X481313Y274326D01*
X483363Y269378D01*
X483363Y264022D01*
X481313Y259074D01*
X477526Y255287D01*
X476117Y254703D01*
X476056Y254665D01*
X475991Y254636D01*
X475952Y254601D01*
X475908Y254574D01*
X475862Y254518D01*
X475810Y254470D01*
X475785Y254424D01*
X475751Y254384D01*
X475726Y254317D01*
X475691Y254254D01*
X475682Y254203D01*
X475663Y254155D01*
X475660Y254083D01*
X475647Y254012D01*
X475655Y253961D01*
X475653Y253909D01*
X475673Y253840D01*
X475683Y253769D01*
X475707Y253723D01*
X475721Y253673D01*
X475762Y253614D01*
X475795Y253550D01*
X475832Y253513D01*
X475862Y253471D01*
X475919Y253428D01*
X475970Y253378D01*
X476033Y253343D01*
X476059Y253324D01*
X476081Y253317D01*
X476117Y253297D01*
X477526Y252713D01*
X481313Y248926D01*
X483363Y243978D01*
X483363Y238622D01*
X481313Y233674D01*
X477526Y229887D01*
X476117Y229303D01*
X476056Y229265D01*
X475991Y229236D01*
X475952Y229201D01*
X475908Y229174D01*
X475862Y229118D01*
X475810Y229070D01*
X475785Y229024D01*
X475751Y228984D01*
X475726Y228917D01*
X475691Y228854D01*
X475682Y228803D01*
X475663Y228755D01*
X475660Y228683D01*
X475647Y228612D01*
X475655Y228561D01*
X475653Y228509D01*
X475673Y228440D01*
X475683Y228369D01*
X475707Y228323D01*
X475721Y228273D01*
X475762Y228214D01*
X475795Y228150D01*
X475832Y228113D01*
X475862Y228071D01*
X475919Y228028D01*
X475970Y227978D01*
X476033Y227943D01*
X476059Y227924D01*
X476081Y227917D01*
X476117Y227897D01*
X477526Y227313D01*
X481313Y223526D01*
X483363Y218578D01*
X483363Y213222D01*
X481313Y208274D01*
X477526Y204487D01*
X476117Y203903D01*
X476056Y203865D01*
X475991Y203836D01*
X475952Y203801D01*
X475908Y203774D01*
X475862Y203718D01*
X475810Y203670D01*
X475785Y203624D01*
X475751Y203584D01*
X475726Y203517D01*
X475691Y203454D01*
X475682Y203403D01*
X475663Y203355D01*
X475660Y203283D01*
X475647Y203212D01*
X475655Y203161D01*
X475653Y203109D01*
X475673Y203040D01*
X475683Y202969D01*
X475707Y202923D01*
X475721Y202873D01*
X475762Y202814D01*
X475795Y202750D01*
X475832Y202713D01*
X475862Y202671D01*
X475919Y202628D01*
X475970Y202578D01*
X476033Y202543D01*
X476059Y202524D01*
X476081Y202517D01*
X476117Y202497D01*
X477526Y201913D01*
X481313Y198126D01*
X483363Y193178D01*
X483363Y187822D01*
X481313Y182874D01*
X477526Y179087D01*
X476117Y178503D01*
X476056Y178465D01*
X475991Y178436D01*
X475952Y178401D01*
X475908Y178374D01*
X475862Y178318D01*
X475810Y178270D01*
X475785Y178224D01*
X475751Y178184D01*
X475726Y178117D01*
X475691Y178054D01*
X475682Y178003D01*
X475663Y177955D01*
X475660Y177883D01*
X475647Y177812D01*
X475655Y177761D01*
X475653Y177709D01*
X475673Y177640D01*
X475683Y177569D01*
X475707Y177523D01*
X475721Y177473D01*
X475762Y177414D01*
X475795Y177350D01*
X475832Y177313D01*
X475862Y177271D01*
X475919Y177228D01*
X475970Y177178D01*
X476033Y177143D01*
X476059Y177124D01*
X476081Y177117D01*
X476117Y177097D01*
X477526Y176513D01*
X481313Y172726D01*
X483363Y167778D01*
X483363Y162422D01*
X481313Y157474D01*
X477526Y153687D01*
X474140Y152284D01*
X474054Y152231D01*
X473965Y152183D01*
X473950Y152166D01*
X473931Y152155D01*
X473867Y152077D01*
X473798Y152003D01*
X473789Y151982D01*
X473774Y151965D01*
X473738Y151871D01*
X473696Y151778D01*
X473694Y151756D01*
X473686Y151736D01*
X473682Y151635D01*
X473672Y151534D01*
X473677Y151512D01*
X473676Y151490D01*
X473704Y151393D01*
X473727Y151294D01*
X473738Y151275D01*
X473744Y151254D01*
X473802Y151171D01*
X473855Y151084D01*
X473872Y151070D01*
X473885Y151052D01*
X473966Y150991D01*
X474044Y150926D01*
X474068Y150915D01*
X474082Y150905D01*
X474113Y150895D01*
X474196Y150857D01*
X474483Y150764D01*
X476157Y149911D01*
X477678Y148806D01*
X479006Y147478D01*
X480111Y145957D01*
X480964Y144283D01*
X481545Y142496D01*
X481746Y141223D01*
X470662Y141223D01*
X470642Y141220D01*
X470623Y141222D01*
X470521Y141200D01*
X470419Y141183D01*
X470402Y141174D01*
X470382Y141170D01*
X470293Y141117D01*
X470202Y141068D01*
X470188Y141054D01*
X470171Y141044D01*
X470104Y140965D01*
X470033Y140890D01*
X470024Y140872D01*
X470011Y140857D01*
X469973Y140761D01*
X469929Y140667D01*
X469927Y140647D01*
X469919Y140629D01*
X469901Y140462D01*
X469901Y139699D01*
X469899Y139699D01*
G37*
%LPD*%
%LPC*%
G36*
X38099Y38099D02*
X38099Y38099D01*
X38099Y38862D01*
X38096Y38882D01*
X38098Y38901D01*
X38076Y39003D01*
X38059Y39105D01*
X38050Y39122D01*
X38046Y39142D01*
X37993Y39231D01*
X37944Y39322D01*
X37930Y39336D01*
X37920Y39353D01*
X37841Y39420D01*
X37766Y39491D01*
X37748Y39500D01*
X37733Y39513D01*
X37637Y39552D01*
X37543Y39595D01*
X37523Y39597D01*
X37505Y39605D01*
X37338Y39623D01*
X26254Y39623D01*
X26455Y40896D01*
X27036Y42683D01*
X27889Y44357D01*
X28994Y45878D01*
X30322Y47206D01*
X31843Y48311D01*
X33517Y49164D01*
X33804Y49257D01*
X33894Y49304D01*
X33986Y49345D01*
X34002Y49360D01*
X34022Y49370D01*
X34093Y49443D01*
X34167Y49511D01*
X34178Y49531D01*
X34193Y49547D01*
X34237Y49638D01*
X34286Y49727D01*
X34290Y49749D01*
X34299Y49769D01*
X34312Y49869D01*
X34330Y49969D01*
X34326Y49991D01*
X34329Y50013D01*
X34309Y50112D01*
X34294Y50212D01*
X34284Y50232D01*
X34279Y50254D01*
X34228Y50341D01*
X34182Y50431D01*
X34166Y50447D01*
X34155Y50466D01*
X34079Y50533D01*
X34007Y50604D01*
X33983Y50617D01*
X33970Y50628D01*
X33940Y50640D01*
X33860Y50684D01*
X30474Y52087D01*
X26687Y55874D01*
X24637Y60822D01*
X24637Y66178D01*
X26687Y71126D01*
X30474Y74913D01*
X31883Y75497D01*
X31944Y75534D01*
X32009Y75564D01*
X32048Y75599D01*
X32092Y75626D01*
X32138Y75682D01*
X32190Y75730D01*
X32215Y75776D01*
X32249Y75816D01*
X32274Y75883D01*
X32309Y75946D01*
X32318Y75997D01*
X32337Y76045D01*
X32340Y76117D01*
X32353Y76188D01*
X32345Y76239D01*
X32347Y76291D01*
X32327Y76360D01*
X32317Y76431D01*
X32293Y76477D01*
X32279Y76527D01*
X32238Y76586D01*
X32205Y76650D01*
X32168Y76687D01*
X32138Y76729D01*
X32081Y76772D01*
X32030Y76822D01*
X31967Y76857D01*
X31941Y76876D01*
X31919Y76883D01*
X31883Y76903D01*
X30474Y77487D01*
X26687Y81274D01*
X24637Y86222D01*
X24637Y91578D01*
X26687Y96526D01*
X30474Y100313D01*
X35422Y102363D01*
X40778Y102363D01*
X45726Y100313D01*
X49513Y96526D01*
X51563Y91578D01*
X51563Y86222D01*
X49513Y81274D01*
X45726Y77487D01*
X44317Y76903D01*
X44256Y76865D01*
X44191Y76836D01*
X44152Y76801D01*
X44108Y76774D01*
X44062Y76718D01*
X44010Y76670D01*
X43985Y76624D01*
X43951Y76584D01*
X43926Y76517D01*
X43891Y76454D01*
X43882Y76403D01*
X43863Y76355D01*
X43860Y76283D01*
X43847Y76212D01*
X43855Y76161D01*
X43853Y76109D01*
X43873Y76040D01*
X43883Y75969D01*
X43907Y75923D01*
X43921Y75873D01*
X43962Y75814D01*
X43995Y75750D01*
X44032Y75713D01*
X44062Y75671D01*
X44119Y75628D01*
X44170Y75578D01*
X44233Y75543D01*
X44259Y75524D01*
X44281Y75517D01*
X44317Y75497D01*
X45726Y74913D01*
X49513Y71126D01*
X51563Y66178D01*
X51563Y60822D01*
X49513Y55874D01*
X45726Y52087D01*
X42340Y50684D01*
X42254Y50631D01*
X42165Y50583D01*
X42150Y50566D01*
X42131Y50555D01*
X42067Y50477D01*
X41998Y50403D01*
X41989Y50382D01*
X41974Y50365D01*
X41938Y50271D01*
X41896Y50178D01*
X41894Y50156D01*
X41886Y50136D01*
X41882Y50035D01*
X41872Y49934D01*
X41877Y49912D01*
X41876Y49890D01*
X41904Y49793D01*
X41927Y49694D01*
X41938Y49675D01*
X41944Y49654D01*
X42002Y49570D01*
X42055Y49484D01*
X42072Y49470D01*
X42085Y49452D01*
X42166Y49391D01*
X42244Y49326D01*
X42268Y49315D01*
X42282Y49305D01*
X42313Y49295D01*
X42396Y49257D01*
X42683Y49164D01*
X44357Y48311D01*
X45878Y47206D01*
X47206Y45878D01*
X48311Y44357D01*
X49164Y42683D01*
X49745Y40896D01*
X49946Y39623D01*
X38862Y39623D01*
X38842Y39620D01*
X38823Y39622D01*
X38721Y39600D01*
X38619Y39583D01*
X38602Y39574D01*
X38582Y39570D01*
X38493Y39517D01*
X38402Y39468D01*
X38388Y39454D01*
X38371Y39444D01*
X38304Y39365D01*
X38233Y39290D01*
X38224Y39272D01*
X38211Y39257D01*
X38173Y39161D01*
X38129Y39067D01*
X38127Y39047D01*
X38119Y39029D01*
X38101Y38862D01*
X38101Y38099D01*
X38099Y38099D01*
G37*
%LPD*%
%LPC*%
G36*
X394832Y81787D02*
X394832Y81787D01*
X389884Y83837D01*
X386097Y87624D01*
X384047Y92572D01*
X384047Y97928D01*
X386097Y102876D01*
X389884Y106663D01*
X392826Y107882D01*
X392887Y107920D01*
X392952Y107949D01*
X392991Y107984D01*
X393035Y108011D01*
X393081Y108067D01*
X393133Y108115D01*
X393159Y108161D01*
X393192Y108201D01*
X393217Y108268D01*
X393252Y108331D01*
X393261Y108382D01*
X393280Y108430D01*
X393283Y108502D01*
X393296Y108573D01*
X393288Y108624D01*
X393290Y108676D01*
X393270Y108745D01*
X393260Y108816D01*
X393236Y108862D01*
X393222Y108912D01*
X393181Y108971D01*
X393148Y109035D01*
X393111Y109072D01*
X393082Y109114D01*
X393024Y109157D01*
X392973Y109207D01*
X392910Y109242D01*
X392884Y109261D01*
X392862Y109268D01*
X392826Y109288D01*
X389884Y110507D01*
X386097Y114294D01*
X384047Y119242D01*
X384047Y124598D01*
X386097Y129546D01*
X389884Y133333D01*
X394832Y135383D01*
X400188Y135383D01*
X405136Y133333D01*
X408923Y129546D01*
X410973Y124598D01*
X410973Y119242D01*
X408923Y114294D01*
X405136Y110507D01*
X402194Y109288D01*
X402133Y109250D01*
X402068Y109221D01*
X402029Y109186D01*
X401985Y109159D01*
X401939Y109103D01*
X401887Y109055D01*
X401862Y109009D01*
X401828Y108969D01*
X401803Y108902D01*
X401768Y108839D01*
X401759Y108788D01*
X401740Y108740D01*
X401737Y108668D01*
X401724Y108597D01*
X401732Y108546D01*
X401730Y108494D01*
X401750Y108425D01*
X401760Y108354D01*
X401784Y108308D01*
X401798Y108258D01*
X401839Y108199D01*
X401872Y108135D01*
X401909Y108098D01*
X401938Y108056D01*
X401996Y108013D01*
X402047Y107963D01*
X402110Y107928D01*
X402136Y107909D01*
X402158Y107902D01*
X402194Y107882D01*
X405136Y106663D01*
X408923Y102876D01*
X410973Y97928D01*
X410973Y92572D01*
X408923Y87624D01*
X405136Y83837D01*
X400188Y81787D01*
X394832Y81787D01*
G37*
%LPD*%
%LPC*%
G36*
X87339Y131853D02*
X87339Y131853D01*
X84455Y133048D01*
X82248Y135255D01*
X81053Y138139D01*
X81053Y141261D01*
X82248Y144145D01*
X82580Y144477D01*
X82633Y144551D01*
X82693Y144621D01*
X82705Y144651D01*
X82724Y144677D01*
X82751Y144764D01*
X82785Y144849D01*
X82789Y144890D01*
X82796Y144912D01*
X82795Y144944D01*
X82803Y145016D01*
X82803Y185184D01*
X82789Y185275D01*
X82781Y185365D01*
X82769Y185395D01*
X82764Y185427D01*
X82721Y185508D01*
X82685Y185592D01*
X82659Y185624D01*
X82648Y185645D01*
X82625Y185667D01*
X82580Y185723D01*
X82248Y186055D01*
X81053Y188939D01*
X81053Y192061D01*
X82248Y194945D01*
X84455Y197152D01*
X87339Y198347D01*
X90461Y198347D01*
X93345Y197152D01*
X95552Y194945D01*
X96747Y192061D01*
X96747Y188939D01*
X95552Y186055D01*
X95220Y185723D01*
X95167Y185649D01*
X95107Y185579D01*
X95095Y185549D01*
X95076Y185523D01*
X95049Y185436D01*
X95015Y185351D01*
X95011Y185310D01*
X95004Y185288D01*
X95005Y185256D01*
X94997Y185184D01*
X94997Y145016D01*
X95011Y144925D01*
X95019Y144835D01*
X95031Y144805D01*
X95036Y144773D01*
X95079Y144692D01*
X95115Y144608D01*
X95141Y144576D01*
X95152Y144555D01*
X95175Y144533D01*
X95220Y144477D01*
X95552Y144145D01*
X96747Y141261D01*
X96747Y138139D01*
X95552Y135255D01*
X93345Y133048D01*
X90461Y131853D01*
X87339Y131853D01*
G37*
%LPD*%
%LPC*%
G36*
X283374Y281431D02*
X283374Y281431D01*
X279453Y283055D01*
X276451Y286057D01*
X274827Y289978D01*
X274827Y294222D01*
X276451Y298143D01*
X279453Y301145D01*
X283374Y302769D01*
X300826Y302769D01*
X304747Y301145D01*
X307749Y298143D01*
X309373Y294222D01*
X309373Y289978D01*
X307749Y286057D01*
X304747Y283055D01*
X300826Y281431D01*
X283374Y281431D01*
G37*
%LPD*%
%LPC*%
G36*
X283374Y357631D02*
X283374Y357631D01*
X279453Y359255D01*
X276451Y362257D01*
X274827Y366178D01*
X274827Y370422D01*
X276451Y374343D01*
X279453Y377345D01*
X283374Y378969D01*
X300826Y378969D01*
X304747Y377345D01*
X307749Y374343D01*
X309373Y370422D01*
X309373Y366178D01*
X307749Y362257D01*
X304747Y359255D01*
X300826Y357631D01*
X283374Y357631D01*
G37*
%LPD*%
%LPC*%
G36*
X207174Y357631D02*
X207174Y357631D01*
X203253Y359255D01*
X200251Y362257D01*
X198627Y366178D01*
X198627Y370422D01*
X200251Y374343D01*
X203253Y377345D01*
X207174Y378969D01*
X224626Y378969D01*
X228547Y377345D01*
X231549Y374343D01*
X233173Y370422D01*
X233173Y366178D01*
X231549Y362257D01*
X228547Y359255D01*
X224626Y357631D01*
X207174Y357631D01*
G37*
%LPD*%
%LPC*%
G36*
X283374Y78231D02*
X283374Y78231D01*
X279453Y79855D01*
X276451Y82857D01*
X274827Y86778D01*
X274827Y91022D01*
X276451Y94943D01*
X279453Y97945D01*
X283374Y99569D01*
X300826Y99569D01*
X304747Y97945D01*
X307749Y94943D01*
X309373Y91022D01*
X309373Y86778D01*
X307749Y82857D01*
X304747Y79855D01*
X300826Y78231D01*
X283374Y78231D01*
G37*
%LPD*%
%LPC*%
G36*
X207174Y332231D02*
X207174Y332231D01*
X203253Y333855D01*
X200251Y336857D01*
X198627Y340778D01*
X198627Y345022D01*
X200251Y348943D01*
X203253Y351945D01*
X207174Y353569D01*
X224626Y353569D01*
X228547Y351945D01*
X231549Y348943D01*
X233173Y345022D01*
X233173Y340778D01*
X231549Y336857D01*
X228547Y333855D01*
X224626Y332231D01*
X207174Y332231D01*
G37*
%LPD*%
%LPC*%
G36*
X283374Y332231D02*
X283374Y332231D01*
X279453Y333855D01*
X276451Y336857D01*
X274827Y340778D01*
X274827Y345022D01*
X276451Y348943D01*
X279453Y351945D01*
X283374Y353569D01*
X300826Y353569D01*
X304747Y351945D01*
X307749Y348943D01*
X309373Y345022D01*
X309373Y340778D01*
X307749Y336857D01*
X304747Y333855D01*
X300826Y332231D01*
X283374Y332231D01*
G37*
%LPD*%
%LPC*%
G36*
X207174Y306831D02*
X207174Y306831D01*
X203253Y308455D01*
X200251Y311457D01*
X198627Y315378D01*
X198627Y319622D01*
X200251Y323543D01*
X203253Y326545D01*
X207174Y328169D01*
X224626Y328169D01*
X228547Y326545D01*
X231549Y323543D01*
X233173Y319622D01*
X233173Y315378D01*
X231549Y311457D01*
X228547Y308455D01*
X224626Y306831D01*
X207174Y306831D01*
G37*
%LPD*%
%LPC*%
G36*
X283374Y306831D02*
X283374Y306831D01*
X279453Y308455D01*
X276451Y311457D01*
X274827Y315378D01*
X274827Y319622D01*
X276451Y323543D01*
X279453Y326545D01*
X283374Y328169D01*
X300826Y328169D01*
X304747Y326545D01*
X307749Y323543D01*
X309373Y319622D01*
X309373Y315378D01*
X307749Y311457D01*
X304747Y308455D01*
X300826Y306831D01*
X283374Y306831D01*
G37*
%LPD*%
%LPC*%
G36*
X207174Y281431D02*
X207174Y281431D01*
X203253Y283055D01*
X200251Y286057D01*
X198627Y289978D01*
X198627Y294222D01*
X200251Y298143D01*
X203253Y301145D01*
X207174Y302769D01*
X224626Y302769D01*
X228547Y301145D01*
X231549Y298143D01*
X233173Y294222D01*
X233173Y289978D01*
X231549Y286057D01*
X228547Y283055D01*
X224626Y281431D01*
X207174Y281431D01*
G37*
%LPD*%
%LPC*%
G36*
X283374Y256031D02*
X283374Y256031D01*
X279453Y257655D01*
X276451Y260657D01*
X274827Y264578D01*
X274827Y268822D01*
X276451Y272743D01*
X279453Y275745D01*
X283374Y277369D01*
X300826Y277369D01*
X304747Y275745D01*
X307749Y272743D01*
X309373Y268822D01*
X309373Y264578D01*
X307749Y260657D01*
X304747Y257655D01*
X300826Y256031D01*
X283374Y256031D01*
G37*
%LPD*%
%LPC*%
G36*
X283374Y230631D02*
X283374Y230631D01*
X279453Y232255D01*
X276451Y235257D01*
X274827Y239178D01*
X274827Y243422D01*
X276451Y247343D01*
X279453Y250345D01*
X283374Y251969D01*
X300826Y251969D01*
X304747Y250345D01*
X307749Y247343D01*
X309373Y243422D01*
X309373Y239178D01*
X307749Y235257D01*
X304747Y232255D01*
X300826Y230631D01*
X283374Y230631D01*
G37*
%LPD*%
%LPC*%
G36*
X207174Y154431D02*
X207174Y154431D01*
X203253Y156055D01*
X200251Y159057D01*
X198627Y162978D01*
X198627Y167222D01*
X200251Y171143D01*
X203253Y174145D01*
X207174Y175769D01*
X224626Y175769D01*
X228547Y174145D01*
X231549Y171143D01*
X233173Y167222D01*
X233173Y162978D01*
X231549Y159057D01*
X228547Y156055D01*
X224626Y154431D01*
X207174Y154431D01*
G37*
%LPD*%
%LPC*%
G36*
X207174Y129031D02*
X207174Y129031D01*
X203253Y130655D01*
X200251Y133657D01*
X198627Y137578D01*
X198627Y141822D01*
X200251Y145743D01*
X203253Y148745D01*
X207174Y150369D01*
X224626Y150369D01*
X228547Y148745D01*
X231549Y145743D01*
X233173Y141822D01*
X233173Y137578D01*
X231549Y133657D01*
X228547Y130655D01*
X224626Y129031D01*
X207174Y129031D01*
G37*
%LPD*%
%LPC*%
G36*
X70982Y456437D02*
X70982Y456437D01*
X66034Y458487D01*
X62247Y462274D01*
X60197Y467222D01*
X60197Y472578D01*
X62247Y477526D01*
X66034Y481313D01*
X70982Y483363D01*
X76338Y483363D01*
X81286Y481313D01*
X85073Y477526D01*
X87123Y472578D01*
X87123Y467222D01*
X85073Y462274D01*
X81286Y458487D01*
X76338Y456437D01*
X70982Y456437D01*
G37*
%LPD*%
%LPC*%
G36*
X209011Y42225D02*
X209011Y42225D01*
X204930Y43916D01*
X201806Y47040D01*
X200115Y51121D01*
X200115Y55539D01*
X201806Y59620D01*
X204930Y62744D01*
X209011Y64435D01*
X213429Y64435D01*
X217510Y62744D01*
X220634Y59620D01*
X222325Y55539D01*
X222325Y51121D01*
X220634Y47040D01*
X217510Y43916D01*
X213429Y42225D01*
X209011Y42225D01*
G37*
%LPD*%
%LPC*%
G36*
X234011Y42225D02*
X234011Y42225D01*
X229930Y43916D01*
X226806Y47040D01*
X225115Y51121D01*
X225115Y55539D01*
X226806Y59620D01*
X229930Y62744D01*
X234011Y64435D01*
X238429Y64435D01*
X242510Y62744D01*
X245634Y59620D01*
X247325Y55539D01*
X247325Y51121D01*
X245634Y47040D01*
X242510Y43916D01*
X238429Y42225D01*
X234011Y42225D01*
G37*
%LPD*%
%LPC*%
G36*
X385471Y446531D02*
X385471Y446531D01*
X379221Y452781D01*
X379221Y461619D01*
X385471Y467869D01*
X394309Y467869D01*
X400559Y461619D01*
X400559Y452781D01*
X394309Y446531D01*
X385471Y446531D01*
G37*
%LPD*%
%LPC*%
G36*
X107341Y414781D02*
X107341Y414781D01*
X101091Y421031D01*
X101091Y429869D01*
X107341Y436119D01*
X116179Y436119D01*
X122429Y429869D01*
X122429Y421031D01*
X116179Y414781D01*
X107341Y414781D01*
G37*
%LPD*%
%LPC*%
G36*
X334671Y206501D02*
X334671Y206501D01*
X328421Y212751D01*
X328421Y221589D01*
X334671Y227839D01*
X343509Y227839D01*
X349759Y221589D01*
X349759Y212751D01*
X343509Y206501D01*
X334671Y206501D01*
G37*
%LPD*%
%LPC*%
G36*
X69241Y414781D02*
X69241Y414781D01*
X62991Y421031D01*
X62991Y429869D01*
X69241Y436119D01*
X78079Y436119D01*
X84329Y429869D01*
X84329Y421031D01*
X78079Y414781D01*
X69241Y414781D01*
G37*
%LPD*%
%LPC*%
G36*
X363881Y383031D02*
X363881Y383031D01*
X357631Y389281D01*
X357631Y398119D01*
X363881Y404369D01*
X372719Y404369D01*
X378969Y398119D01*
X378969Y389281D01*
X372719Y383031D01*
X363881Y383031D01*
G37*
%LPD*%
%LPC*%
G36*
X293623Y395223D02*
X293623Y395223D01*
X293623Y402845D01*
X299605Y402845D01*
X301371Y402493D01*
X303036Y401804D01*
X304534Y400803D01*
X305807Y399530D01*
X306808Y398032D01*
X307497Y396367D01*
X307725Y395223D01*
X293623Y395223D01*
G37*
%LPD*%
%LPC*%
G36*
X200275Y242823D02*
X200275Y242823D01*
X200503Y243967D01*
X201192Y245632D01*
X202193Y247130D01*
X203466Y248403D01*
X204964Y249404D01*
X206629Y250093D01*
X208395Y250445D01*
X214377Y250445D01*
X214377Y242823D01*
X200275Y242823D01*
G37*
%LPD*%
%LPC*%
G36*
X276475Y395223D02*
X276475Y395223D01*
X276703Y396367D01*
X277392Y398032D01*
X278393Y399530D01*
X279666Y400803D01*
X281164Y401804D01*
X282829Y402493D01*
X284595Y402845D01*
X290577Y402845D01*
X290577Y395223D01*
X276475Y395223D01*
G37*
%LPD*%
%LPC*%
G36*
X293623Y384555D02*
X293623Y384555D01*
X293623Y392177D01*
X307725Y392177D01*
X307497Y391033D01*
X306808Y389368D01*
X305807Y387870D01*
X304534Y386597D01*
X303036Y385596D01*
X301371Y384907D01*
X299605Y384555D01*
X293623Y384555D01*
G37*
%LPD*%
%LPC*%
G36*
X284595Y181355D02*
X284595Y181355D01*
X282829Y181707D01*
X281164Y182396D01*
X279666Y183397D01*
X278393Y184670D01*
X277392Y186168D01*
X276703Y187833D01*
X276475Y188977D01*
X290577Y188977D01*
X290577Y181355D01*
X284595Y181355D01*
G37*
%LPD*%
%LPC*%
G36*
X284595Y384555D02*
X284595Y384555D01*
X282829Y384907D01*
X281164Y385596D01*
X279666Y386597D01*
X278393Y387870D01*
X277392Y389368D01*
X276703Y391033D01*
X276475Y392177D01*
X290577Y392177D01*
X290577Y384555D01*
X284595Y384555D01*
G37*
%LPD*%
%LPC*%
G36*
X208395Y232155D02*
X208395Y232155D01*
X206629Y232507D01*
X204964Y233196D01*
X203466Y234197D01*
X202193Y235470D01*
X201192Y236968D01*
X200503Y238633D01*
X200275Y239777D01*
X214377Y239777D01*
X214377Y232155D01*
X208395Y232155D01*
G37*
%LPD*%
%LPC*%
G36*
X24383Y471423D02*
X24383Y471423D01*
X24383Y481746D01*
X25656Y481545D01*
X27443Y480964D01*
X29117Y480111D01*
X30638Y479006D01*
X31966Y477678D01*
X33071Y476157D01*
X33924Y474483D01*
X34505Y472696D01*
X34706Y471423D01*
X24383Y471423D01*
G37*
%LPD*%
%LPC*%
G36*
X26923Y141223D02*
X26923Y141223D01*
X26923Y151546D01*
X28196Y151345D01*
X29983Y150764D01*
X31657Y149911D01*
X33178Y148806D01*
X34506Y147478D01*
X35611Y145957D01*
X36464Y144283D01*
X37045Y142496D01*
X37246Y141223D01*
X26923Y141223D01*
G37*
%LPD*%
%LPC*%
G36*
X428243Y21843D02*
X428243Y21843D01*
X428243Y32166D01*
X429516Y31965D01*
X431303Y31384D01*
X432977Y30531D01*
X434498Y29426D01*
X435826Y28098D01*
X436931Y26577D01*
X437784Y24903D01*
X438365Y23116D01*
X438566Y21843D01*
X428243Y21843D01*
G37*
%LPD*%
%LPC*%
G36*
X26923Y138177D02*
X26923Y138177D01*
X37246Y138177D01*
X37045Y136904D01*
X36464Y135117D01*
X35611Y133443D01*
X34506Y131922D01*
X33178Y130594D01*
X31657Y129489D01*
X29983Y128636D01*
X28196Y128055D01*
X26923Y127854D01*
X26923Y138177D01*
G37*
%LPD*%
%LPC*%
G36*
X471423Y138177D02*
X471423Y138177D01*
X481746Y138177D01*
X481545Y136904D01*
X480964Y135117D01*
X480111Y133443D01*
X479006Y131922D01*
X477678Y130594D01*
X476157Y129489D01*
X474483Y128636D01*
X472696Y128055D01*
X471423Y127854D01*
X471423Y138177D01*
G37*
%LPD*%
%LPC*%
G36*
X13554Y141223D02*
X13554Y141223D01*
X13755Y142496D01*
X14336Y144283D01*
X15189Y145957D01*
X16294Y147478D01*
X17622Y148806D01*
X19143Y149911D01*
X20817Y150764D01*
X22604Y151345D01*
X23877Y151546D01*
X23877Y141223D01*
X13554Y141223D01*
G37*
%LPD*%
%LPC*%
G36*
X26923Y163577D02*
X26923Y163577D01*
X37246Y163577D01*
X37045Y162304D01*
X36464Y160517D01*
X35611Y158843D01*
X34506Y157322D01*
X33178Y155994D01*
X31657Y154889D01*
X29983Y154036D01*
X28196Y153455D01*
X26923Y153254D01*
X26923Y163577D01*
G37*
%LPD*%
%LPC*%
G36*
X39623Y36577D02*
X39623Y36577D01*
X49946Y36577D01*
X49745Y35304D01*
X49164Y33517D01*
X48311Y31843D01*
X47206Y30322D01*
X45878Y28994D01*
X44357Y27889D01*
X42683Y27036D01*
X40896Y26455D01*
X39623Y26254D01*
X39623Y36577D01*
G37*
%LPD*%
%LPC*%
G36*
X24383Y468377D02*
X24383Y468377D01*
X34706Y468377D01*
X34505Y467104D01*
X33924Y465317D01*
X33071Y463643D01*
X31966Y462122D01*
X30638Y460794D01*
X29117Y459689D01*
X27443Y458836D01*
X25656Y458255D01*
X24383Y458054D01*
X24383Y468377D01*
G37*
%LPD*%
%LPC*%
G36*
X468214Y471423D02*
X468214Y471423D01*
X468415Y472696D01*
X468996Y474483D01*
X469849Y476157D01*
X470954Y477678D01*
X472282Y479006D01*
X473803Y480111D01*
X475477Y480964D01*
X477264Y481545D01*
X478537Y481746D01*
X478537Y471423D01*
X468214Y471423D01*
G37*
%LPD*%
%LPC*%
G36*
X22604Y128055D02*
X22604Y128055D01*
X20817Y128636D01*
X19143Y129489D01*
X17622Y130594D01*
X16294Y131922D01*
X15189Y133443D01*
X14336Y135117D01*
X13755Y136904D01*
X13554Y138177D01*
X23877Y138177D01*
X23877Y127854D01*
X22604Y128055D01*
G37*
%LPD*%
%LPC*%
G36*
X467104Y128055D02*
X467104Y128055D01*
X465317Y128636D01*
X463643Y129489D01*
X462122Y130594D01*
X460794Y131922D01*
X459689Y133443D01*
X458836Y135117D01*
X458255Y136904D01*
X458054Y138177D01*
X468377Y138177D01*
X468377Y127854D01*
X467104Y128055D01*
G37*
%LPD*%
%LPC*%
G36*
X477264Y458255D02*
X477264Y458255D01*
X475477Y458836D01*
X473803Y459689D01*
X472282Y460794D01*
X470954Y462122D01*
X469849Y463643D01*
X468996Y465317D01*
X468415Y467104D01*
X468214Y468377D01*
X478537Y468377D01*
X478537Y458054D01*
X477264Y458255D01*
G37*
%LPD*%
%LPC*%
G36*
X22604Y153455D02*
X22604Y153455D01*
X20817Y154036D01*
X19143Y154889D01*
X17622Y155994D01*
X16294Y157322D01*
X15189Y158843D01*
X14336Y160517D01*
X13755Y162304D01*
X13554Y163577D01*
X23877Y163577D01*
X23877Y153254D01*
X22604Y153455D01*
G37*
%LPD*%
%LPC*%
G36*
X35304Y26455D02*
X35304Y26455D01*
X33517Y27036D01*
X31843Y27889D01*
X30322Y28994D01*
X28994Y30322D01*
X27889Y31843D01*
X27036Y33517D01*
X26455Y35304D01*
X26254Y36577D01*
X36577Y36577D01*
X36577Y26254D01*
X35304Y26455D01*
G37*
%LPD*%
%LPC*%
G36*
X340613Y395223D02*
X340613Y395223D01*
X340613Y402845D01*
X342878Y402845D01*
X348235Y397488D01*
X348235Y395223D01*
X340613Y395223D01*
G37*
%LPD*%
%LPC*%
G36*
X113283Y350773D02*
X113283Y350773D01*
X113283Y358395D01*
X115548Y358395D01*
X120905Y353038D01*
X120905Y350773D01*
X113283Y350773D01*
G37*
%LPD*%
%LPC*%
G36*
X446023Y395223D02*
X446023Y395223D01*
X446023Y402845D01*
X448288Y402845D01*
X453645Y397488D01*
X453645Y395223D01*
X446023Y395223D01*
G37*
%LPD*%
%LPC*%
G36*
X155193Y139953D02*
X155193Y139953D01*
X155193Y147575D01*
X157458Y147575D01*
X162815Y142218D01*
X162815Y139953D01*
X155193Y139953D01*
G37*
%LPD*%
%LPC*%
G36*
X340613Y193293D02*
X340613Y193293D01*
X340613Y200915D01*
X342878Y200915D01*
X348235Y195558D01*
X348235Y193293D01*
X340613Y193293D01*
G37*
%LPD*%
%LPC*%
G36*
X435355Y395223D02*
X435355Y395223D01*
X435355Y397488D01*
X440712Y402845D01*
X442977Y402845D01*
X442977Y395223D01*
X435355Y395223D01*
G37*
%LPD*%
%LPC*%
G36*
X144525Y139953D02*
X144525Y139953D01*
X144525Y142218D01*
X149882Y147575D01*
X152147Y147575D01*
X152147Y139953D01*
X144525Y139953D01*
G37*
%LPD*%
%LPC*%
G36*
X329945Y395223D02*
X329945Y395223D01*
X329945Y397488D01*
X335302Y402845D01*
X337567Y402845D01*
X337567Y395223D01*
X329945Y395223D01*
G37*
%LPD*%
%LPC*%
G36*
X340613Y384555D02*
X340613Y384555D01*
X340613Y392177D01*
X348235Y392177D01*
X348235Y389912D01*
X342878Y384555D01*
X340613Y384555D01*
G37*
%LPD*%
%LPC*%
G36*
X340613Y182625D02*
X340613Y182625D01*
X340613Y190247D01*
X348235Y190247D01*
X348235Y187982D01*
X342878Y182625D01*
X340613Y182625D01*
G37*
%LPD*%
%LPC*%
G36*
X155193Y129285D02*
X155193Y129285D01*
X155193Y136907D01*
X162815Y136907D01*
X162815Y134642D01*
X157458Y129285D01*
X155193Y129285D01*
G37*
%LPD*%
%LPC*%
G36*
X113283Y340105D02*
X113283Y340105D01*
X113283Y347727D01*
X120905Y347727D01*
X120905Y345462D01*
X115548Y340105D01*
X113283Y340105D01*
G37*
%LPD*%
%LPC*%
G36*
X102615Y350773D02*
X102615Y350773D01*
X102615Y353038D01*
X107972Y358395D01*
X110237Y358395D01*
X110237Y350773D01*
X102615Y350773D01*
G37*
%LPD*%
%LPC*%
G36*
X329945Y193293D02*
X329945Y193293D01*
X329945Y195558D01*
X335302Y200915D01*
X337567Y200915D01*
X337567Y193293D01*
X329945Y193293D01*
G37*
%LPD*%
%LPC*%
G36*
X446023Y384555D02*
X446023Y384555D01*
X446023Y392177D01*
X453645Y392177D01*
X453645Y389912D01*
X448288Y384555D01*
X446023Y384555D01*
G37*
%LPD*%
%LPC*%
G36*
X335302Y384555D02*
X335302Y384555D01*
X329945Y389912D01*
X329945Y392177D01*
X337567Y392177D01*
X337567Y384555D01*
X335302Y384555D01*
G37*
%LPD*%
%LPC*%
G36*
X335302Y182625D02*
X335302Y182625D01*
X329945Y187982D01*
X329945Y190247D01*
X337567Y190247D01*
X337567Y182625D01*
X335302Y182625D01*
G37*
%LPD*%
%LPC*%
G36*
X107972Y340105D02*
X107972Y340105D01*
X102615Y345462D01*
X102615Y347727D01*
X110237Y347727D01*
X110237Y340105D01*
X107972Y340105D01*
G37*
%LPD*%
%LPC*%
G36*
X149882Y129285D02*
X149882Y129285D01*
X144525Y134642D01*
X144525Y136907D01*
X152147Y136907D01*
X152147Y129285D01*
X149882Y129285D01*
G37*
%LPD*%
%LPC*%
G36*
X440712Y384555D02*
X440712Y384555D01*
X435355Y389912D01*
X435355Y392177D01*
X442977Y392177D01*
X442977Y384555D01*
X440712Y384555D01*
G37*
%LPD*%
%LPC*%
G36*
X153669Y138429D02*
X153669Y138429D01*
X153669Y138431D01*
X153671Y138431D01*
X153671Y138429D01*
X153669Y138429D01*
G37*
%LPD*%
%LPC*%
G36*
X25399Y139699D02*
X25399Y139699D01*
X25399Y139701D01*
X25401Y139701D01*
X25401Y139699D01*
X25399Y139699D01*
G37*
%LPD*%
%LPC*%
G36*
X339089Y191769D02*
X339089Y191769D01*
X339089Y191771D01*
X339091Y191771D01*
X339091Y191769D01*
X339089Y191769D01*
G37*
%LPD*%
%LPC*%
G36*
X111759Y349249D02*
X111759Y349249D01*
X111759Y349251D01*
X111761Y349251D01*
X111761Y349249D01*
X111759Y349249D01*
G37*
%LPD*%
%LPC*%
G36*
X444499Y393699D02*
X444499Y393699D01*
X444499Y393701D01*
X444501Y393701D01*
X444501Y393699D01*
X444499Y393699D01*
G37*
%LPD*%
%LPC*%
G36*
X339089Y393699D02*
X339089Y393699D01*
X339089Y393701D01*
X339091Y393701D01*
X339091Y393699D01*
X339089Y393699D01*
G37*
%LPD*%
%LPC*%
G36*
X292099Y393699D02*
X292099Y393699D01*
X292099Y393701D01*
X292101Y393701D01*
X292101Y393699D01*
X292099Y393699D01*
G37*
%LPD*%
D10*
X339090Y419100D03*
X339090Y393700D03*
D11*
X179070Y138430D03*
X153670Y138430D03*
D10*
X339090Y217170D03*
X339090Y191770D03*
X389890Y482600D03*
X389890Y457200D03*
X111760Y481330D03*
X111760Y455930D03*
D11*
X444500Y393700D03*
X368300Y393700D03*
D12*
X111760Y349250D03*
X111760Y425450D03*
X151130Y349250D03*
X151130Y425450D03*
D10*
X73660Y425450D03*
X73660Y349250D03*
D13*
X209296Y419100D02*
X222504Y419100D01*
X222504Y393700D02*
X209296Y393700D01*
X209296Y368300D02*
X222504Y368300D01*
X222504Y342900D02*
X209296Y342900D01*
X209296Y317500D02*
X222504Y317500D01*
X222504Y292100D02*
X209296Y292100D01*
X209296Y266700D02*
X222504Y266700D01*
X222504Y241300D02*
X209296Y241300D01*
X209296Y215900D02*
X222504Y215900D01*
X222504Y190500D02*
X209296Y190500D01*
X209296Y165100D02*
X222504Y165100D01*
X222504Y139700D02*
X209296Y139700D01*
X209296Y114300D02*
X222504Y114300D01*
X222504Y88900D02*
X209296Y88900D01*
X285496Y88900D02*
X298704Y88900D01*
X298704Y114300D02*
X285496Y114300D01*
X285496Y139700D02*
X298704Y139700D01*
X298704Y165100D02*
X285496Y165100D01*
X285496Y190500D02*
X298704Y190500D01*
X298704Y215900D02*
X285496Y215900D01*
X285496Y241300D02*
X298704Y241300D01*
X298704Y266700D02*
X285496Y266700D01*
X285496Y292100D02*
X298704Y292100D01*
X298704Y317500D02*
X285496Y317500D01*
X285496Y342900D02*
X298704Y342900D01*
X298704Y368300D02*
X285496Y368300D01*
X285496Y393700D02*
X298704Y393700D01*
X298704Y419100D02*
X285496Y419100D01*
D14*
X397510Y121920D03*
X397510Y95250D03*
X469900Y368300D03*
X469900Y342900D03*
X469900Y317500D03*
X469900Y292100D03*
X469900Y266700D03*
X469900Y241300D03*
X469900Y215900D03*
X469900Y190500D03*
X469900Y165100D03*
X469900Y139700D03*
X25400Y241300D03*
X25400Y215900D03*
X25400Y190500D03*
X25400Y165100D03*
X25400Y139700D03*
X25400Y368300D03*
X25400Y342900D03*
X25400Y317500D03*
X25400Y292100D03*
X25400Y266700D03*
X38100Y88900D03*
X38100Y63500D03*
X38100Y38100D03*
X154940Y22860D03*
X154940Y48260D03*
D15*
X211220Y53330D03*
X236220Y53330D03*
X261220Y53330D03*
X261220Y20330D03*
X236220Y20330D03*
X211220Y20330D03*
D14*
X120650Y24130D03*
X120650Y49530D03*
X120650Y74930D03*
X120650Y100330D03*
X426720Y20320D03*
X401320Y20320D03*
X375920Y20320D03*
X350520Y20320D03*
X325120Y20320D03*
X299720Y20320D03*
X205740Y480060D03*
X231140Y480060D03*
X256540Y480060D03*
X281940Y480060D03*
X307340Y480060D03*
X455930Y20320D03*
X455930Y45720D03*
X455930Y71120D03*
X455930Y96520D03*
X429260Y469900D03*
X480060Y469900D03*
X73660Y469900D03*
X22860Y469900D03*
D16*
X292100Y444500D03*
D17*
X151130Y444500D02*
X151130Y425450D01*
X179070Y138430D02*
X154940Y114300D01*
X38354Y114300D02*
X38100Y114300D01*
D16*
X38354Y114300D03*
D17*
X154940Y114300D01*
X73660Y238760D02*
X73660Y349250D01*
X73660Y238760D02*
X25400Y190500D01*
X215900Y114300D02*
X284480Y45720D01*
X455930Y45720D01*
D16*
X38100Y444500D03*
D17*
X132080Y444500D01*
X151130Y425450D01*
X151130Y444500D02*
X231140Y444500D01*
X231140Y480060D01*
X231140Y444500D02*
X292100Y444500D01*
D16*
X337820Y71120D03*
D18*
X332740Y66040D01*
X283210Y66040D01*
D16*
X283210Y66040D03*
D17*
X271128Y419100D02*
X215900Y419100D01*
X271128Y419100D02*
X281288Y429260D01*
X388620Y429260D02*
X429260Y469900D01*
X388620Y429260D02*
X281288Y429260D01*
X199136Y397908D02*
X199136Y397256D01*
X151130Y349250D01*
X215900Y414672D02*
X215900Y419100D01*
X215900Y414672D02*
X199136Y397908D01*
D16*
X370840Y121920D03*
D17*
X370840Y165100D01*
D16*
X370840Y165100D03*
X347980Y95250D03*
D17*
X347980Y139700D01*
D16*
X347980Y139700D03*
D17*
X281940Y200660D02*
X215900Y266700D01*
X281940Y200660D02*
X302912Y200660D01*
X358792Y144780D02*
X359410Y144780D01*
X358792Y144780D02*
X302912Y200660D01*
X359410Y144780D02*
X359410Y91440D01*
X369570Y81280D01*
X370840Y81280D01*
D16*
X370840Y81280D03*
D17*
X350520Y81280D02*
X350520Y60960D01*
X281940Y149860D02*
X215900Y215900D01*
X281940Y149860D02*
X302912Y149860D01*
X308864Y143908D01*
X308864Y122936D02*
X350520Y81280D01*
X308864Y122936D02*
X308864Y143908D01*
D16*
X350520Y60960D03*
D17*
X25400Y368300D02*
X50800Y393700D01*
X127000Y393700D01*
D16*
X127000Y393700D03*
X127000Y368300D03*
D17*
X50800Y368300D01*
X25400Y342900D01*
D16*
X127000Y190500D03*
D17*
X215900Y190500D01*
D16*
X88900Y190500D03*
D17*
X88900Y139700D01*
D16*
X88900Y139700D03*
M02*
