G04 EAGLE Gerber RS-274X export*
G75*
%MOMM*%
%FSLAX34Y34*%
%LPD*%
%INSilkscreen Bottom*%
%IPPOS*%
%AMOC8*
5,1,8,0,0,1.08239X$1,22.5*%
G01*
%ADD10C,0.203200*%


D10*
X452374Y367905D02*
X448000Y367905D01*
X448000Y367904D02*
X447869Y367902D01*
X447738Y367896D01*
X447608Y367886D01*
X447478Y367873D01*
X447348Y367855D01*
X447219Y367834D01*
X447091Y367808D01*
X446963Y367779D01*
X446836Y367746D01*
X446711Y367710D01*
X446586Y367669D01*
X446463Y367625D01*
X446341Y367577D01*
X446221Y367526D01*
X446102Y367471D01*
X445985Y367412D01*
X445870Y367350D01*
X445757Y367285D01*
X445645Y367216D01*
X445536Y367144D01*
X445429Y367069D01*
X445324Y366990D01*
X445222Y366909D01*
X445122Y366824D01*
X445025Y366736D01*
X444930Y366646D01*
X444838Y366553D01*
X444749Y366457D01*
X444663Y366358D01*
X444580Y366257D01*
X444500Y366154D01*
X444423Y366048D01*
X444350Y365940D01*
X444279Y365829D01*
X444212Y365717D01*
X444148Y365603D01*
X444088Y365487D01*
X444031Y365369D01*
X443978Y365249D01*
X443928Y365128D01*
X443882Y365005D01*
X443840Y364882D01*
X443802Y364757D01*
X443767Y364630D01*
X443736Y364503D01*
X443708Y364375D01*
X443685Y364247D01*
X443666Y364117D01*
X443650Y363987D01*
X443638Y363857D01*
X443630Y363726D01*
X443626Y363595D01*
X443626Y363465D01*
X443630Y363334D01*
X443638Y363203D01*
X443650Y363073D01*
X443666Y362943D01*
X443685Y362813D01*
X443708Y362685D01*
X443736Y362557D01*
X443767Y362430D01*
X443802Y362303D01*
X443840Y362178D01*
X443882Y362055D01*
X443928Y361932D01*
X443978Y361811D01*
X444031Y361691D01*
X444088Y361573D01*
X444148Y361457D01*
X444212Y361343D01*
X444279Y361231D01*
X444350Y361120D01*
X444423Y361012D01*
X444500Y360906D01*
X444580Y360803D01*
X444663Y360702D01*
X444749Y360603D01*
X444838Y360507D01*
X444930Y360414D01*
X445025Y360324D01*
X445122Y360236D01*
X445222Y360151D01*
X445324Y360070D01*
X445429Y359991D01*
X445536Y359916D01*
X445645Y359844D01*
X445757Y359775D01*
X445870Y359710D01*
X445985Y359648D01*
X446102Y359589D01*
X446221Y359534D01*
X446341Y359483D01*
X446463Y359435D01*
X446586Y359391D01*
X446711Y359350D01*
X446836Y359314D01*
X446963Y359281D01*
X447091Y359252D01*
X447219Y359226D01*
X447348Y359205D01*
X447478Y359187D01*
X447608Y359174D01*
X447738Y359164D01*
X447869Y359158D01*
X448000Y359156D01*
X452374Y359156D01*
X452374Y374904D01*
X448000Y374904D01*
X447882Y374902D01*
X447764Y374896D01*
X447646Y374886D01*
X447529Y374872D01*
X447412Y374854D01*
X447295Y374832D01*
X447180Y374807D01*
X447066Y374777D01*
X446952Y374743D01*
X446840Y374706D01*
X446729Y374665D01*
X446620Y374620D01*
X446512Y374572D01*
X446406Y374520D01*
X446301Y374464D01*
X446199Y374405D01*
X446099Y374343D01*
X446001Y374277D01*
X445905Y374208D01*
X445811Y374135D01*
X445720Y374060D01*
X445632Y373981D01*
X445546Y373900D01*
X445463Y373815D01*
X445383Y373728D01*
X445306Y373639D01*
X445232Y373546D01*
X445162Y373452D01*
X445094Y373355D01*
X445030Y373255D01*
X444969Y373154D01*
X444912Y373051D01*
X444858Y372945D01*
X444807Y372838D01*
X444761Y372730D01*
X444718Y372620D01*
X444679Y372508D01*
X444643Y372395D01*
X444612Y372281D01*
X444584Y372166D01*
X444560Y372051D01*
X444540Y371934D01*
X444524Y371817D01*
X444512Y371699D01*
X444504Y371581D01*
X444500Y371463D01*
X444500Y371345D01*
X444504Y371227D01*
X444512Y371109D01*
X444524Y370991D01*
X444540Y370874D01*
X444560Y370757D01*
X444584Y370642D01*
X444612Y370527D01*
X444643Y370413D01*
X444679Y370300D01*
X444718Y370188D01*
X444761Y370078D01*
X444807Y369970D01*
X444858Y369863D01*
X444912Y369757D01*
X444969Y369654D01*
X445030Y369553D01*
X445094Y369453D01*
X445162Y369356D01*
X445232Y369262D01*
X445306Y369169D01*
X445383Y369080D01*
X445463Y368993D01*
X445546Y368908D01*
X445632Y368827D01*
X445720Y368748D01*
X445811Y368673D01*
X445905Y368600D01*
X446001Y368531D01*
X446099Y368465D01*
X446199Y368403D01*
X446301Y368344D01*
X446406Y368288D01*
X446512Y368236D01*
X446620Y368188D01*
X446729Y368143D01*
X446840Y368102D01*
X446952Y368065D01*
X447066Y368031D01*
X447180Y368001D01*
X447295Y367976D01*
X447412Y367954D01*
X447529Y367936D01*
X447646Y367922D01*
X447764Y367912D01*
X447882Y367906D01*
X448000Y367904D01*
X437518Y371404D02*
X433143Y374904D01*
X433143Y359156D01*
X428769Y359156D02*
X437518Y359156D01*
X421886Y359156D02*
X416637Y359156D01*
X416520Y359158D01*
X416403Y359164D01*
X416287Y359174D01*
X416170Y359187D01*
X416055Y359205D01*
X415940Y359226D01*
X415826Y359251D01*
X415712Y359280D01*
X415600Y359313D01*
X415489Y359350D01*
X415379Y359390D01*
X415271Y359434D01*
X415164Y359481D01*
X415058Y359532D01*
X414955Y359587D01*
X414853Y359645D01*
X414754Y359706D01*
X414656Y359770D01*
X414561Y359838D01*
X414468Y359909D01*
X414377Y359983D01*
X414289Y360060D01*
X414204Y360140D01*
X414121Y360223D01*
X414041Y360308D01*
X413964Y360396D01*
X413890Y360487D01*
X413819Y360580D01*
X413751Y360675D01*
X413687Y360773D01*
X413626Y360872D01*
X413568Y360974D01*
X413513Y361077D01*
X413462Y361183D01*
X413415Y361290D01*
X413371Y361398D01*
X413331Y361508D01*
X413294Y361619D01*
X413261Y361731D01*
X413232Y361845D01*
X413207Y361959D01*
X413186Y362074D01*
X413168Y362189D01*
X413155Y362306D01*
X413145Y362422D01*
X413139Y362539D01*
X413137Y362656D01*
X413137Y364405D01*
X413139Y364522D01*
X413145Y364639D01*
X413155Y364755D01*
X413168Y364872D01*
X413186Y364987D01*
X413207Y365102D01*
X413232Y365216D01*
X413261Y365330D01*
X413294Y365442D01*
X413331Y365553D01*
X413371Y365663D01*
X413415Y365771D01*
X413462Y365878D01*
X413513Y365984D01*
X413568Y366087D01*
X413626Y366189D01*
X413687Y366288D01*
X413751Y366386D01*
X413819Y366481D01*
X413890Y366574D01*
X413964Y366665D01*
X414041Y366753D01*
X414121Y366838D01*
X414204Y366921D01*
X414289Y367001D01*
X414377Y367078D01*
X414468Y367152D01*
X414561Y367223D01*
X414656Y367291D01*
X414754Y367355D01*
X414853Y367416D01*
X414955Y367474D01*
X415058Y367529D01*
X415164Y367580D01*
X415271Y367627D01*
X415379Y367671D01*
X415489Y367711D01*
X415600Y367748D01*
X415712Y367781D01*
X415826Y367810D01*
X415940Y367835D01*
X416055Y367856D01*
X416170Y367874D01*
X416287Y367887D01*
X416403Y367897D01*
X416520Y367903D01*
X416637Y367905D01*
X421886Y367905D01*
X421886Y374904D01*
X413137Y374904D01*
X448000Y342505D02*
X452374Y342505D01*
X448000Y342504D02*
X447869Y342502D01*
X447738Y342496D01*
X447608Y342486D01*
X447478Y342473D01*
X447348Y342455D01*
X447219Y342434D01*
X447091Y342408D01*
X446963Y342379D01*
X446836Y342346D01*
X446711Y342310D01*
X446586Y342269D01*
X446463Y342225D01*
X446341Y342177D01*
X446221Y342126D01*
X446102Y342071D01*
X445985Y342012D01*
X445870Y341950D01*
X445757Y341885D01*
X445645Y341816D01*
X445536Y341744D01*
X445429Y341669D01*
X445324Y341590D01*
X445222Y341509D01*
X445122Y341424D01*
X445025Y341336D01*
X444930Y341246D01*
X444838Y341153D01*
X444749Y341057D01*
X444663Y340958D01*
X444580Y340857D01*
X444500Y340754D01*
X444423Y340648D01*
X444350Y340540D01*
X444279Y340429D01*
X444212Y340317D01*
X444148Y340203D01*
X444088Y340087D01*
X444031Y339969D01*
X443978Y339849D01*
X443928Y339728D01*
X443882Y339605D01*
X443840Y339482D01*
X443802Y339357D01*
X443767Y339230D01*
X443736Y339103D01*
X443708Y338975D01*
X443685Y338847D01*
X443666Y338717D01*
X443650Y338587D01*
X443638Y338457D01*
X443630Y338326D01*
X443626Y338195D01*
X443626Y338065D01*
X443630Y337934D01*
X443638Y337803D01*
X443650Y337673D01*
X443666Y337543D01*
X443685Y337413D01*
X443708Y337285D01*
X443736Y337157D01*
X443767Y337030D01*
X443802Y336903D01*
X443840Y336778D01*
X443882Y336655D01*
X443928Y336532D01*
X443978Y336411D01*
X444031Y336291D01*
X444088Y336173D01*
X444148Y336057D01*
X444212Y335943D01*
X444279Y335831D01*
X444350Y335720D01*
X444423Y335612D01*
X444500Y335506D01*
X444580Y335403D01*
X444663Y335302D01*
X444749Y335203D01*
X444838Y335107D01*
X444930Y335014D01*
X445025Y334924D01*
X445122Y334836D01*
X445222Y334751D01*
X445324Y334670D01*
X445429Y334591D01*
X445536Y334516D01*
X445645Y334444D01*
X445757Y334375D01*
X445870Y334310D01*
X445985Y334248D01*
X446102Y334189D01*
X446221Y334134D01*
X446341Y334083D01*
X446463Y334035D01*
X446586Y333991D01*
X446711Y333950D01*
X446836Y333914D01*
X446963Y333881D01*
X447091Y333852D01*
X447219Y333826D01*
X447348Y333805D01*
X447478Y333787D01*
X447608Y333774D01*
X447738Y333764D01*
X447869Y333758D01*
X448000Y333756D01*
X452374Y333756D01*
X452374Y349504D01*
X448000Y349504D01*
X447882Y349502D01*
X447764Y349496D01*
X447646Y349486D01*
X447529Y349472D01*
X447412Y349454D01*
X447295Y349432D01*
X447180Y349407D01*
X447066Y349377D01*
X446952Y349343D01*
X446840Y349306D01*
X446729Y349265D01*
X446620Y349220D01*
X446512Y349172D01*
X446406Y349120D01*
X446301Y349064D01*
X446199Y349005D01*
X446099Y348943D01*
X446001Y348877D01*
X445905Y348808D01*
X445811Y348735D01*
X445720Y348660D01*
X445632Y348581D01*
X445546Y348500D01*
X445463Y348415D01*
X445383Y348328D01*
X445306Y348239D01*
X445232Y348146D01*
X445162Y348052D01*
X445094Y347955D01*
X445030Y347855D01*
X444969Y347754D01*
X444912Y347651D01*
X444858Y347545D01*
X444807Y347438D01*
X444761Y347330D01*
X444718Y347220D01*
X444679Y347108D01*
X444643Y346995D01*
X444612Y346881D01*
X444584Y346766D01*
X444560Y346651D01*
X444540Y346534D01*
X444524Y346417D01*
X444512Y346299D01*
X444504Y346181D01*
X444500Y346063D01*
X444500Y345945D01*
X444504Y345827D01*
X444512Y345709D01*
X444524Y345591D01*
X444540Y345474D01*
X444560Y345357D01*
X444584Y345242D01*
X444612Y345127D01*
X444643Y345013D01*
X444679Y344900D01*
X444718Y344788D01*
X444761Y344678D01*
X444807Y344570D01*
X444858Y344463D01*
X444912Y344357D01*
X444969Y344254D01*
X445030Y344153D01*
X445094Y344053D01*
X445162Y343956D01*
X445232Y343862D01*
X445306Y343769D01*
X445383Y343680D01*
X445463Y343593D01*
X445546Y343508D01*
X445632Y343427D01*
X445720Y343348D01*
X445811Y343273D01*
X445905Y343200D01*
X446001Y343131D01*
X446099Y343065D01*
X446199Y343003D01*
X446301Y342944D01*
X446406Y342888D01*
X446512Y342836D01*
X446620Y342788D01*
X446729Y342743D01*
X446840Y342702D01*
X446952Y342665D01*
X447066Y342631D01*
X447180Y342601D01*
X447295Y342576D01*
X447412Y342554D01*
X447529Y342536D01*
X447646Y342522D01*
X447764Y342512D01*
X447882Y342506D01*
X448000Y342504D01*
X437518Y346004D02*
X433143Y349504D01*
X433143Y333756D01*
X428769Y333756D02*
X437518Y333756D01*
X421886Y337256D02*
X418387Y349504D01*
X421886Y337256D02*
X413137Y337256D01*
X415762Y340755D02*
X415762Y333756D01*
X448000Y317105D02*
X452374Y317105D01*
X448000Y317104D02*
X447869Y317102D01*
X447738Y317096D01*
X447608Y317086D01*
X447478Y317073D01*
X447348Y317055D01*
X447219Y317034D01*
X447091Y317008D01*
X446963Y316979D01*
X446836Y316946D01*
X446711Y316910D01*
X446586Y316869D01*
X446463Y316825D01*
X446341Y316777D01*
X446221Y316726D01*
X446102Y316671D01*
X445985Y316612D01*
X445870Y316550D01*
X445757Y316485D01*
X445645Y316416D01*
X445536Y316344D01*
X445429Y316269D01*
X445324Y316190D01*
X445222Y316109D01*
X445122Y316024D01*
X445025Y315936D01*
X444930Y315846D01*
X444838Y315753D01*
X444749Y315657D01*
X444663Y315558D01*
X444580Y315457D01*
X444500Y315354D01*
X444423Y315248D01*
X444350Y315140D01*
X444279Y315029D01*
X444212Y314917D01*
X444148Y314803D01*
X444088Y314687D01*
X444031Y314569D01*
X443978Y314449D01*
X443928Y314328D01*
X443882Y314205D01*
X443840Y314082D01*
X443802Y313957D01*
X443767Y313830D01*
X443736Y313703D01*
X443708Y313575D01*
X443685Y313447D01*
X443666Y313317D01*
X443650Y313187D01*
X443638Y313057D01*
X443630Y312926D01*
X443626Y312795D01*
X443626Y312665D01*
X443630Y312534D01*
X443638Y312403D01*
X443650Y312273D01*
X443666Y312143D01*
X443685Y312013D01*
X443708Y311885D01*
X443736Y311757D01*
X443767Y311630D01*
X443802Y311503D01*
X443840Y311378D01*
X443882Y311255D01*
X443928Y311132D01*
X443978Y311011D01*
X444031Y310891D01*
X444088Y310773D01*
X444148Y310657D01*
X444212Y310543D01*
X444279Y310431D01*
X444350Y310320D01*
X444423Y310212D01*
X444500Y310106D01*
X444580Y310003D01*
X444663Y309902D01*
X444749Y309803D01*
X444838Y309707D01*
X444930Y309614D01*
X445025Y309524D01*
X445122Y309436D01*
X445222Y309351D01*
X445324Y309270D01*
X445429Y309191D01*
X445536Y309116D01*
X445645Y309044D01*
X445757Y308975D01*
X445870Y308910D01*
X445985Y308848D01*
X446102Y308789D01*
X446221Y308734D01*
X446341Y308683D01*
X446463Y308635D01*
X446586Y308591D01*
X446711Y308550D01*
X446836Y308514D01*
X446963Y308481D01*
X447091Y308452D01*
X447219Y308426D01*
X447348Y308405D01*
X447478Y308387D01*
X447608Y308374D01*
X447738Y308364D01*
X447869Y308358D01*
X448000Y308356D01*
X452374Y308356D01*
X452374Y324104D01*
X448000Y324104D01*
X447882Y324102D01*
X447764Y324096D01*
X447646Y324086D01*
X447529Y324072D01*
X447412Y324054D01*
X447295Y324032D01*
X447180Y324007D01*
X447066Y323977D01*
X446952Y323943D01*
X446840Y323906D01*
X446729Y323865D01*
X446620Y323820D01*
X446512Y323772D01*
X446406Y323720D01*
X446301Y323664D01*
X446199Y323605D01*
X446099Y323543D01*
X446001Y323477D01*
X445905Y323408D01*
X445811Y323335D01*
X445720Y323260D01*
X445632Y323181D01*
X445546Y323100D01*
X445463Y323015D01*
X445383Y322928D01*
X445306Y322839D01*
X445232Y322746D01*
X445162Y322652D01*
X445094Y322555D01*
X445030Y322455D01*
X444969Y322354D01*
X444912Y322251D01*
X444858Y322145D01*
X444807Y322038D01*
X444761Y321930D01*
X444718Y321820D01*
X444679Y321708D01*
X444643Y321595D01*
X444612Y321481D01*
X444584Y321366D01*
X444560Y321251D01*
X444540Y321134D01*
X444524Y321017D01*
X444512Y320899D01*
X444504Y320781D01*
X444500Y320663D01*
X444500Y320545D01*
X444504Y320427D01*
X444512Y320309D01*
X444524Y320191D01*
X444540Y320074D01*
X444560Y319957D01*
X444584Y319842D01*
X444612Y319727D01*
X444643Y319613D01*
X444679Y319500D01*
X444718Y319388D01*
X444761Y319278D01*
X444807Y319170D01*
X444858Y319063D01*
X444912Y318957D01*
X444969Y318854D01*
X445030Y318753D01*
X445094Y318653D01*
X445162Y318556D01*
X445232Y318462D01*
X445306Y318369D01*
X445383Y318280D01*
X445463Y318193D01*
X445546Y318108D01*
X445632Y318027D01*
X445720Y317948D01*
X445811Y317873D01*
X445905Y317800D01*
X446001Y317731D01*
X446099Y317665D01*
X446199Y317603D01*
X446301Y317544D01*
X446406Y317488D01*
X446512Y317436D01*
X446620Y317388D01*
X446729Y317343D01*
X446840Y317302D01*
X446952Y317265D01*
X447066Y317231D01*
X447180Y317201D01*
X447295Y317176D01*
X447412Y317154D01*
X447529Y317136D01*
X447646Y317122D01*
X447764Y317112D01*
X447882Y317106D01*
X448000Y317104D01*
X437518Y320604D02*
X433143Y324104D01*
X433143Y308356D01*
X428769Y308356D02*
X437518Y308356D01*
X421886Y308356D02*
X417512Y308356D01*
X417381Y308358D01*
X417250Y308364D01*
X417120Y308374D01*
X416990Y308387D01*
X416860Y308405D01*
X416731Y308426D01*
X416603Y308452D01*
X416475Y308481D01*
X416348Y308514D01*
X416223Y308550D01*
X416098Y308591D01*
X415975Y308635D01*
X415853Y308683D01*
X415733Y308734D01*
X415614Y308789D01*
X415497Y308848D01*
X415382Y308910D01*
X415269Y308975D01*
X415157Y309044D01*
X415048Y309116D01*
X414941Y309191D01*
X414836Y309270D01*
X414734Y309351D01*
X414634Y309436D01*
X414537Y309524D01*
X414442Y309614D01*
X414350Y309707D01*
X414261Y309803D01*
X414175Y309902D01*
X414092Y310003D01*
X414012Y310106D01*
X413935Y310212D01*
X413862Y310320D01*
X413791Y310431D01*
X413724Y310543D01*
X413660Y310657D01*
X413600Y310773D01*
X413543Y310891D01*
X413490Y311011D01*
X413440Y311132D01*
X413394Y311255D01*
X413352Y311378D01*
X413314Y311503D01*
X413279Y311630D01*
X413248Y311757D01*
X413220Y311885D01*
X413197Y312013D01*
X413178Y312143D01*
X413162Y312273D01*
X413150Y312403D01*
X413142Y312534D01*
X413138Y312665D01*
X413138Y312795D01*
X413142Y312926D01*
X413150Y313057D01*
X413162Y313187D01*
X413178Y313317D01*
X413197Y313447D01*
X413220Y313575D01*
X413248Y313703D01*
X413279Y313830D01*
X413314Y313957D01*
X413352Y314082D01*
X413394Y314205D01*
X413440Y314328D01*
X413490Y314449D01*
X413543Y314569D01*
X413600Y314687D01*
X413660Y314803D01*
X413724Y314917D01*
X413791Y315029D01*
X413862Y315140D01*
X413935Y315248D01*
X414012Y315354D01*
X414092Y315457D01*
X414175Y315558D01*
X414261Y315657D01*
X414350Y315753D01*
X414442Y315846D01*
X414537Y315936D01*
X414634Y316024D01*
X414734Y316109D01*
X414836Y316190D01*
X414941Y316269D01*
X415048Y316344D01*
X415157Y316416D01*
X415269Y316485D01*
X415382Y316550D01*
X415497Y316612D01*
X415614Y316671D01*
X415733Y316726D01*
X415853Y316777D01*
X415975Y316825D01*
X416098Y316869D01*
X416223Y316910D01*
X416348Y316946D01*
X416475Y316979D01*
X416603Y317008D01*
X416731Y317034D01*
X416860Y317055D01*
X416990Y317073D01*
X417120Y317086D01*
X417250Y317096D01*
X417381Y317102D01*
X417512Y317104D01*
X416637Y324104D02*
X421886Y324104D01*
X416637Y324104D02*
X416519Y324102D01*
X416401Y324096D01*
X416283Y324086D01*
X416166Y324072D01*
X416049Y324054D01*
X415932Y324032D01*
X415817Y324007D01*
X415703Y323977D01*
X415589Y323943D01*
X415477Y323906D01*
X415366Y323865D01*
X415257Y323820D01*
X415149Y323772D01*
X415043Y323720D01*
X414938Y323664D01*
X414836Y323605D01*
X414736Y323543D01*
X414638Y323477D01*
X414542Y323408D01*
X414448Y323335D01*
X414357Y323260D01*
X414269Y323181D01*
X414183Y323100D01*
X414100Y323015D01*
X414020Y322928D01*
X413943Y322839D01*
X413869Y322746D01*
X413799Y322652D01*
X413731Y322555D01*
X413667Y322455D01*
X413606Y322354D01*
X413549Y322251D01*
X413495Y322145D01*
X413444Y322038D01*
X413398Y321930D01*
X413355Y321820D01*
X413316Y321708D01*
X413280Y321595D01*
X413249Y321481D01*
X413221Y321366D01*
X413197Y321251D01*
X413177Y321134D01*
X413161Y321017D01*
X413149Y320899D01*
X413141Y320781D01*
X413137Y320663D01*
X413137Y320545D01*
X413141Y320427D01*
X413149Y320309D01*
X413161Y320191D01*
X413177Y320074D01*
X413197Y319957D01*
X413221Y319842D01*
X413249Y319727D01*
X413280Y319613D01*
X413316Y319500D01*
X413355Y319388D01*
X413398Y319278D01*
X413444Y319170D01*
X413495Y319063D01*
X413549Y318957D01*
X413606Y318854D01*
X413667Y318753D01*
X413731Y318653D01*
X413799Y318556D01*
X413869Y318462D01*
X413943Y318369D01*
X414020Y318280D01*
X414100Y318193D01*
X414183Y318108D01*
X414269Y318027D01*
X414357Y317948D01*
X414448Y317873D01*
X414542Y317800D01*
X414638Y317731D01*
X414736Y317665D01*
X414836Y317603D01*
X414938Y317544D01*
X415043Y317488D01*
X415149Y317436D01*
X415257Y317388D01*
X415366Y317343D01*
X415477Y317302D01*
X415589Y317265D01*
X415703Y317231D01*
X415817Y317201D01*
X415932Y317176D01*
X416049Y317154D01*
X416166Y317136D01*
X416283Y317122D01*
X416401Y317112D01*
X416519Y317106D01*
X416637Y317104D01*
X416637Y317105D02*
X420137Y317105D01*
X448000Y291705D02*
X452374Y291705D01*
X448000Y291704D02*
X447869Y291702D01*
X447738Y291696D01*
X447608Y291686D01*
X447478Y291673D01*
X447348Y291655D01*
X447219Y291634D01*
X447091Y291608D01*
X446963Y291579D01*
X446836Y291546D01*
X446711Y291510D01*
X446586Y291469D01*
X446463Y291425D01*
X446341Y291377D01*
X446221Y291326D01*
X446102Y291271D01*
X445985Y291212D01*
X445870Y291150D01*
X445757Y291085D01*
X445645Y291016D01*
X445536Y290944D01*
X445429Y290869D01*
X445324Y290790D01*
X445222Y290709D01*
X445122Y290624D01*
X445025Y290536D01*
X444930Y290446D01*
X444838Y290353D01*
X444749Y290257D01*
X444663Y290158D01*
X444580Y290057D01*
X444500Y289954D01*
X444423Y289848D01*
X444350Y289740D01*
X444279Y289629D01*
X444212Y289517D01*
X444148Y289403D01*
X444088Y289287D01*
X444031Y289169D01*
X443978Y289049D01*
X443928Y288928D01*
X443882Y288805D01*
X443840Y288682D01*
X443802Y288557D01*
X443767Y288430D01*
X443736Y288303D01*
X443708Y288175D01*
X443685Y288047D01*
X443666Y287917D01*
X443650Y287787D01*
X443638Y287657D01*
X443630Y287526D01*
X443626Y287395D01*
X443626Y287265D01*
X443630Y287134D01*
X443638Y287003D01*
X443650Y286873D01*
X443666Y286743D01*
X443685Y286613D01*
X443708Y286485D01*
X443736Y286357D01*
X443767Y286230D01*
X443802Y286103D01*
X443840Y285978D01*
X443882Y285855D01*
X443928Y285732D01*
X443978Y285611D01*
X444031Y285491D01*
X444088Y285373D01*
X444148Y285257D01*
X444212Y285143D01*
X444279Y285031D01*
X444350Y284920D01*
X444423Y284812D01*
X444500Y284706D01*
X444580Y284603D01*
X444663Y284502D01*
X444749Y284403D01*
X444838Y284307D01*
X444930Y284214D01*
X445025Y284124D01*
X445122Y284036D01*
X445222Y283951D01*
X445324Y283870D01*
X445429Y283791D01*
X445536Y283716D01*
X445645Y283644D01*
X445757Y283575D01*
X445870Y283510D01*
X445985Y283448D01*
X446102Y283389D01*
X446221Y283334D01*
X446341Y283283D01*
X446463Y283235D01*
X446586Y283191D01*
X446711Y283150D01*
X446836Y283114D01*
X446963Y283081D01*
X447091Y283052D01*
X447219Y283026D01*
X447348Y283005D01*
X447478Y282987D01*
X447608Y282974D01*
X447738Y282964D01*
X447869Y282958D01*
X448000Y282956D01*
X452374Y282956D01*
X452374Y298704D01*
X448000Y298704D01*
X447882Y298702D01*
X447764Y298696D01*
X447646Y298686D01*
X447529Y298672D01*
X447412Y298654D01*
X447295Y298632D01*
X447180Y298607D01*
X447066Y298577D01*
X446952Y298543D01*
X446840Y298506D01*
X446729Y298465D01*
X446620Y298420D01*
X446512Y298372D01*
X446406Y298320D01*
X446301Y298264D01*
X446199Y298205D01*
X446099Y298143D01*
X446001Y298077D01*
X445905Y298008D01*
X445811Y297935D01*
X445720Y297860D01*
X445632Y297781D01*
X445546Y297700D01*
X445463Y297615D01*
X445383Y297528D01*
X445306Y297439D01*
X445232Y297346D01*
X445162Y297252D01*
X445094Y297155D01*
X445030Y297055D01*
X444969Y296954D01*
X444912Y296851D01*
X444858Y296745D01*
X444807Y296638D01*
X444761Y296530D01*
X444718Y296420D01*
X444679Y296308D01*
X444643Y296195D01*
X444612Y296081D01*
X444584Y295966D01*
X444560Y295851D01*
X444540Y295734D01*
X444524Y295617D01*
X444512Y295499D01*
X444504Y295381D01*
X444500Y295263D01*
X444500Y295145D01*
X444504Y295027D01*
X444512Y294909D01*
X444524Y294791D01*
X444540Y294674D01*
X444560Y294557D01*
X444584Y294442D01*
X444612Y294327D01*
X444643Y294213D01*
X444679Y294100D01*
X444718Y293988D01*
X444761Y293878D01*
X444807Y293770D01*
X444858Y293663D01*
X444912Y293557D01*
X444969Y293454D01*
X445030Y293353D01*
X445094Y293253D01*
X445162Y293156D01*
X445232Y293062D01*
X445306Y292969D01*
X445383Y292880D01*
X445463Y292793D01*
X445546Y292708D01*
X445632Y292627D01*
X445720Y292548D01*
X445811Y292473D01*
X445905Y292400D01*
X446001Y292331D01*
X446099Y292265D01*
X446199Y292203D01*
X446301Y292144D01*
X446406Y292088D01*
X446512Y292036D01*
X446620Y291988D01*
X446729Y291943D01*
X446840Y291902D01*
X446952Y291865D01*
X447066Y291831D01*
X447180Y291801D01*
X447295Y291776D01*
X447412Y291754D01*
X447529Y291736D01*
X447646Y291722D01*
X447764Y291712D01*
X447882Y291706D01*
X448000Y291704D01*
X437518Y295204D02*
X433143Y298704D01*
X433143Y282956D01*
X428769Y282956D02*
X437518Y282956D01*
X417074Y298704D02*
X416950Y298702D01*
X416827Y298696D01*
X416703Y298687D01*
X416581Y298673D01*
X416458Y298656D01*
X416336Y298634D01*
X416215Y298609D01*
X416095Y298580D01*
X415976Y298548D01*
X415857Y298511D01*
X415740Y298471D01*
X415625Y298428D01*
X415510Y298380D01*
X415398Y298329D01*
X415287Y298275D01*
X415177Y298217D01*
X415070Y298156D01*
X414964Y298091D01*
X414861Y298023D01*
X414760Y297952D01*
X414661Y297878D01*
X414564Y297801D01*
X414470Y297720D01*
X414379Y297637D01*
X414290Y297551D01*
X414204Y297462D01*
X414121Y297371D01*
X414040Y297277D01*
X413963Y297180D01*
X413889Y297081D01*
X413818Y296980D01*
X413750Y296877D01*
X413685Y296771D01*
X413624Y296664D01*
X413566Y296554D01*
X413512Y296443D01*
X413461Y296331D01*
X413413Y296216D01*
X413370Y296101D01*
X413330Y295984D01*
X413293Y295865D01*
X413261Y295746D01*
X413232Y295626D01*
X413207Y295505D01*
X413185Y295383D01*
X413168Y295260D01*
X413154Y295138D01*
X413145Y295014D01*
X413139Y294891D01*
X413137Y294767D01*
X417074Y298704D02*
X417215Y298702D01*
X417357Y298696D01*
X417498Y298686D01*
X417638Y298672D01*
X417778Y298655D01*
X417918Y298633D01*
X418057Y298608D01*
X418195Y298578D01*
X418333Y298545D01*
X418469Y298508D01*
X418605Y298467D01*
X418739Y298422D01*
X418871Y298374D01*
X419003Y298322D01*
X419133Y298266D01*
X419261Y298207D01*
X419388Y298144D01*
X419512Y298077D01*
X419635Y298008D01*
X419756Y297934D01*
X419875Y297858D01*
X419992Y297778D01*
X420106Y297695D01*
X420218Y297608D01*
X420327Y297519D01*
X420434Y297427D01*
X420539Y297331D01*
X420640Y297233D01*
X420739Y297132D01*
X420835Y297028D01*
X420928Y296922D01*
X421018Y296813D01*
X421105Y296701D01*
X421189Y296587D01*
X421269Y296471D01*
X421347Y296353D01*
X421421Y296232D01*
X421491Y296110D01*
X421558Y295986D01*
X421622Y295859D01*
X421682Y295731D01*
X421739Y295602D01*
X421791Y295471D01*
X421841Y295338D01*
X421886Y295204D01*
X414449Y291705D02*
X414359Y291793D01*
X414271Y291885D01*
X414186Y291979D01*
X414104Y292076D01*
X414025Y292175D01*
X413948Y292276D01*
X413875Y292380D01*
X413805Y292485D01*
X413738Y292593D01*
X413675Y292703D01*
X413615Y292815D01*
X413558Y292928D01*
X413504Y293043D01*
X413454Y293160D01*
X413408Y293278D01*
X413365Y293397D01*
X413326Y293518D01*
X413290Y293639D01*
X413258Y293762D01*
X413230Y293886D01*
X413205Y294010D01*
X413184Y294135D01*
X413167Y294261D01*
X413154Y294387D01*
X413145Y294513D01*
X413139Y294640D01*
X413137Y294767D01*
X414450Y291705D02*
X421886Y282956D01*
X413137Y282956D01*
X448000Y266305D02*
X452374Y266305D01*
X448000Y266304D02*
X447869Y266302D01*
X447738Y266296D01*
X447608Y266286D01*
X447478Y266273D01*
X447348Y266255D01*
X447219Y266234D01*
X447091Y266208D01*
X446963Y266179D01*
X446836Y266146D01*
X446711Y266110D01*
X446586Y266069D01*
X446463Y266025D01*
X446341Y265977D01*
X446221Y265926D01*
X446102Y265871D01*
X445985Y265812D01*
X445870Y265750D01*
X445757Y265685D01*
X445645Y265616D01*
X445536Y265544D01*
X445429Y265469D01*
X445324Y265390D01*
X445222Y265309D01*
X445122Y265224D01*
X445025Y265136D01*
X444930Y265046D01*
X444838Y264953D01*
X444749Y264857D01*
X444663Y264758D01*
X444580Y264657D01*
X444500Y264554D01*
X444423Y264448D01*
X444350Y264340D01*
X444279Y264229D01*
X444212Y264117D01*
X444148Y264003D01*
X444088Y263887D01*
X444031Y263769D01*
X443978Y263649D01*
X443928Y263528D01*
X443882Y263405D01*
X443840Y263282D01*
X443802Y263157D01*
X443767Y263030D01*
X443736Y262903D01*
X443708Y262775D01*
X443685Y262647D01*
X443666Y262517D01*
X443650Y262387D01*
X443638Y262257D01*
X443630Y262126D01*
X443626Y261995D01*
X443626Y261865D01*
X443630Y261734D01*
X443638Y261603D01*
X443650Y261473D01*
X443666Y261343D01*
X443685Y261213D01*
X443708Y261085D01*
X443736Y260957D01*
X443767Y260830D01*
X443802Y260703D01*
X443840Y260578D01*
X443882Y260455D01*
X443928Y260332D01*
X443978Y260211D01*
X444031Y260091D01*
X444088Y259973D01*
X444148Y259857D01*
X444212Y259743D01*
X444279Y259631D01*
X444350Y259520D01*
X444423Y259412D01*
X444500Y259306D01*
X444580Y259203D01*
X444663Y259102D01*
X444749Y259003D01*
X444838Y258907D01*
X444930Y258814D01*
X445025Y258724D01*
X445122Y258636D01*
X445222Y258551D01*
X445324Y258470D01*
X445429Y258391D01*
X445536Y258316D01*
X445645Y258244D01*
X445757Y258175D01*
X445870Y258110D01*
X445985Y258048D01*
X446102Y257989D01*
X446221Y257934D01*
X446341Y257883D01*
X446463Y257835D01*
X446586Y257791D01*
X446711Y257750D01*
X446836Y257714D01*
X446963Y257681D01*
X447091Y257652D01*
X447219Y257626D01*
X447348Y257605D01*
X447478Y257587D01*
X447608Y257574D01*
X447738Y257564D01*
X447869Y257558D01*
X448000Y257556D01*
X452374Y257556D01*
X452374Y273304D01*
X448000Y273304D01*
X447882Y273302D01*
X447764Y273296D01*
X447646Y273286D01*
X447529Y273272D01*
X447412Y273254D01*
X447295Y273232D01*
X447180Y273207D01*
X447066Y273177D01*
X446952Y273143D01*
X446840Y273106D01*
X446729Y273065D01*
X446620Y273020D01*
X446512Y272972D01*
X446406Y272920D01*
X446301Y272864D01*
X446199Y272805D01*
X446099Y272743D01*
X446001Y272677D01*
X445905Y272608D01*
X445811Y272535D01*
X445720Y272460D01*
X445632Y272381D01*
X445546Y272300D01*
X445463Y272215D01*
X445383Y272128D01*
X445306Y272039D01*
X445232Y271946D01*
X445162Y271852D01*
X445094Y271755D01*
X445030Y271655D01*
X444969Y271554D01*
X444912Y271451D01*
X444858Y271345D01*
X444807Y271238D01*
X444761Y271130D01*
X444718Y271020D01*
X444679Y270908D01*
X444643Y270795D01*
X444612Y270681D01*
X444584Y270566D01*
X444560Y270451D01*
X444540Y270334D01*
X444524Y270217D01*
X444512Y270099D01*
X444504Y269981D01*
X444500Y269863D01*
X444500Y269745D01*
X444504Y269627D01*
X444512Y269509D01*
X444524Y269391D01*
X444540Y269274D01*
X444560Y269157D01*
X444584Y269042D01*
X444612Y268927D01*
X444643Y268813D01*
X444679Y268700D01*
X444718Y268588D01*
X444761Y268478D01*
X444807Y268370D01*
X444858Y268263D01*
X444912Y268157D01*
X444969Y268054D01*
X445030Y267953D01*
X445094Y267853D01*
X445162Y267756D01*
X445232Y267662D01*
X445306Y267569D01*
X445383Y267480D01*
X445463Y267393D01*
X445546Y267308D01*
X445632Y267227D01*
X445720Y267148D01*
X445811Y267073D01*
X445905Y267000D01*
X446001Y266931D01*
X446099Y266865D01*
X446199Y266803D01*
X446301Y266744D01*
X446406Y266688D01*
X446512Y266636D01*
X446620Y266588D01*
X446729Y266543D01*
X446840Y266502D01*
X446952Y266465D01*
X447066Y266431D01*
X447180Y266401D01*
X447295Y266376D01*
X447412Y266354D01*
X447529Y266336D01*
X447646Y266322D01*
X447764Y266312D01*
X447882Y266306D01*
X448000Y266304D01*
X437518Y269804D02*
X433143Y273304D01*
X433143Y257556D01*
X428769Y257556D02*
X437518Y257556D01*
X421886Y269804D02*
X417512Y273304D01*
X417512Y257556D01*
X421886Y257556D02*
X413137Y257556D01*
X448000Y240905D02*
X452374Y240905D01*
X448000Y240904D02*
X447869Y240902D01*
X447738Y240896D01*
X447608Y240886D01*
X447478Y240873D01*
X447348Y240855D01*
X447219Y240834D01*
X447091Y240808D01*
X446963Y240779D01*
X446836Y240746D01*
X446711Y240710D01*
X446586Y240669D01*
X446463Y240625D01*
X446341Y240577D01*
X446221Y240526D01*
X446102Y240471D01*
X445985Y240412D01*
X445870Y240350D01*
X445757Y240285D01*
X445645Y240216D01*
X445536Y240144D01*
X445429Y240069D01*
X445324Y239990D01*
X445222Y239909D01*
X445122Y239824D01*
X445025Y239736D01*
X444930Y239646D01*
X444838Y239553D01*
X444749Y239457D01*
X444663Y239358D01*
X444580Y239257D01*
X444500Y239154D01*
X444423Y239048D01*
X444350Y238940D01*
X444279Y238829D01*
X444212Y238717D01*
X444148Y238603D01*
X444088Y238487D01*
X444031Y238369D01*
X443978Y238249D01*
X443928Y238128D01*
X443882Y238005D01*
X443840Y237882D01*
X443802Y237757D01*
X443767Y237630D01*
X443736Y237503D01*
X443708Y237375D01*
X443685Y237247D01*
X443666Y237117D01*
X443650Y236987D01*
X443638Y236857D01*
X443630Y236726D01*
X443626Y236595D01*
X443626Y236465D01*
X443630Y236334D01*
X443638Y236203D01*
X443650Y236073D01*
X443666Y235943D01*
X443685Y235813D01*
X443708Y235685D01*
X443736Y235557D01*
X443767Y235430D01*
X443802Y235303D01*
X443840Y235178D01*
X443882Y235055D01*
X443928Y234932D01*
X443978Y234811D01*
X444031Y234691D01*
X444088Y234573D01*
X444148Y234457D01*
X444212Y234343D01*
X444279Y234231D01*
X444350Y234120D01*
X444423Y234012D01*
X444500Y233906D01*
X444580Y233803D01*
X444663Y233702D01*
X444749Y233603D01*
X444838Y233507D01*
X444930Y233414D01*
X445025Y233324D01*
X445122Y233236D01*
X445222Y233151D01*
X445324Y233070D01*
X445429Y232991D01*
X445536Y232916D01*
X445645Y232844D01*
X445757Y232775D01*
X445870Y232710D01*
X445985Y232648D01*
X446102Y232589D01*
X446221Y232534D01*
X446341Y232483D01*
X446463Y232435D01*
X446586Y232391D01*
X446711Y232350D01*
X446836Y232314D01*
X446963Y232281D01*
X447091Y232252D01*
X447219Y232226D01*
X447348Y232205D01*
X447478Y232187D01*
X447608Y232174D01*
X447738Y232164D01*
X447869Y232158D01*
X448000Y232156D01*
X452374Y232156D01*
X452374Y247904D01*
X448000Y247904D01*
X447882Y247902D01*
X447764Y247896D01*
X447646Y247886D01*
X447529Y247872D01*
X447412Y247854D01*
X447295Y247832D01*
X447180Y247807D01*
X447066Y247777D01*
X446952Y247743D01*
X446840Y247706D01*
X446729Y247665D01*
X446620Y247620D01*
X446512Y247572D01*
X446406Y247520D01*
X446301Y247464D01*
X446199Y247405D01*
X446099Y247343D01*
X446001Y247277D01*
X445905Y247208D01*
X445811Y247135D01*
X445720Y247060D01*
X445632Y246981D01*
X445546Y246900D01*
X445463Y246815D01*
X445383Y246728D01*
X445306Y246639D01*
X445232Y246546D01*
X445162Y246452D01*
X445094Y246355D01*
X445030Y246255D01*
X444969Y246154D01*
X444912Y246051D01*
X444858Y245945D01*
X444807Y245838D01*
X444761Y245730D01*
X444718Y245620D01*
X444679Y245508D01*
X444643Y245395D01*
X444612Y245281D01*
X444584Y245166D01*
X444560Y245051D01*
X444540Y244934D01*
X444524Y244817D01*
X444512Y244699D01*
X444504Y244581D01*
X444500Y244463D01*
X444500Y244345D01*
X444504Y244227D01*
X444512Y244109D01*
X444524Y243991D01*
X444540Y243874D01*
X444560Y243757D01*
X444584Y243642D01*
X444612Y243527D01*
X444643Y243413D01*
X444679Y243300D01*
X444718Y243188D01*
X444761Y243078D01*
X444807Y242970D01*
X444858Y242863D01*
X444912Y242757D01*
X444969Y242654D01*
X445030Y242553D01*
X445094Y242453D01*
X445162Y242356D01*
X445232Y242262D01*
X445306Y242169D01*
X445383Y242080D01*
X445463Y241993D01*
X445546Y241908D01*
X445632Y241827D01*
X445720Y241748D01*
X445811Y241673D01*
X445905Y241600D01*
X446001Y241531D01*
X446099Y241465D01*
X446199Y241403D01*
X446301Y241344D01*
X446406Y241288D01*
X446512Y241236D01*
X446620Y241188D01*
X446729Y241143D01*
X446840Y241102D01*
X446952Y241065D01*
X447066Y241031D01*
X447180Y241001D01*
X447295Y240976D01*
X447412Y240954D01*
X447529Y240936D01*
X447646Y240922D01*
X447764Y240912D01*
X447882Y240906D01*
X448000Y240904D01*
X437518Y244404D02*
X433143Y247904D01*
X433143Y232156D01*
X428769Y232156D02*
X437518Y232156D01*
X421887Y240030D02*
X421883Y240340D01*
X421872Y240649D01*
X421854Y240959D01*
X421828Y241267D01*
X421795Y241575D01*
X421754Y241883D01*
X421706Y242189D01*
X421651Y242494D01*
X421589Y242797D01*
X421519Y243099D01*
X421442Y243399D01*
X421358Y243697D01*
X421267Y243993D01*
X421169Y244287D01*
X421064Y244579D01*
X420952Y244868D01*
X420833Y245154D01*
X420707Y245437D01*
X420575Y245717D01*
X420574Y245717D02*
X420536Y245822D01*
X420494Y245925D01*
X420449Y246027D01*
X420401Y246128D01*
X420349Y246226D01*
X420293Y246323D01*
X420235Y246418D01*
X420173Y246511D01*
X420108Y246601D01*
X420039Y246689D01*
X419968Y246775D01*
X419894Y246859D01*
X419817Y246939D01*
X419738Y247018D01*
X419655Y247093D01*
X419570Y247165D01*
X419483Y247235D01*
X419393Y247301D01*
X419302Y247364D01*
X419208Y247424D01*
X419112Y247481D01*
X419014Y247535D01*
X418914Y247585D01*
X418813Y247631D01*
X418710Y247674D01*
X418605Y247714D01*
X418500Y247750D01*
X418393Y247782D01*
X418285Y247810D01*
X418176Y247835D01*
X418067Y247856D01*
X417957Y247873D01*
X417846Y247887D01*
X417735Y247896D01*
X417624Y247902D01*
X417512Y247904D01*
X417400Y247902D01*
X417289Y247896D01*
X417178Y247887D01*
X417067Y247873D01*
X416957Y247856D01*
X416848Y247835D01*
X416739Y247810D01*
X416631Y247782D01*
X416524Y247750D01*
X416419Y247714D01*
X416314Y247674D01*
X416211Y247631D01*
X416110Y247585D01*
X416010Y247535D01*
X415912Y247481D01*
X415816Y247424D01*
X415722Y247364D01*
X415631Y247301D01*
X415541Y247235D01*
X415454Y247165D01*
X415369Y247093D01*
X415286Y247018D01*
X415207Y246939D01*
X415130Y246859D01*
X415056Y246775D01*
X414985Y246689D01*
X414916Y246601D01*
X414851Y246511D01*
X414789Y246418D01*
X414731Y246323D01*
X414675Y246226D01*
X414623Y246128D01*
X414575Y246027D01*
X414530Y245925D01*
X414488Y245822D01*
X414450Y245717D01*
X414318Y245437D01*
X414192Y245153D01*
X414073Y244867D01*
X413961Y244578D01*
X413856Y244287D01*
X413758Y243993D01*
X413667Y243697D01*
X413583Y243399D01*
X413506Y243099D01*
X413436Y242797D01*
X413374Y242493D01*
X413319Y242189D01*
X413271Y241883D01*
X413230Y241575D01*
X413197Y241267D01*
X413171Y240959D01*
X413153Y240649D01*
X413142Y240340D01*
X413138Y240030D01*
X421887Y240030D02*
X421883Y239720D01*
X421872Y239411D01*
X421854Y239101D01*
X421828Y238793D01*
X421795Y238485D01*
X421754Y238177D01*
X421706Y237871D01*
X421651Y237566D01*
X421589Y237263D01*
X421519Y236961D01*
X421442Y236661D01*
X421358Y236363D01*
X421267Y236067D01*
X421169Y235773D01*
X421064Y235481D01*
X420952Y235192D01*
X420833Y234906D01*
X420707Y234623D01*
X420575Y234343D01*
X420574Y234343D02*
X420536Y234238D01*
X420494Y234135D01*
X420449Y234033D01*
X420401Y233932D01*
X420349Y233834D01*
X420293Y233737D01*
X420235Y233642D01*
X420173Y233549D01*
X420108Y233459D01*
X420039Y233371D01*
X419968Y233285D01*
X419894Y233201D01*
X419817Y233121D01*
X419738Y233042D01*
X419655Y232967D01*
X419570Y232895D01*
X419483Y232825D01*
X419393Y232759D01*
X419302Y232696D01*
X419208Y232636D01*
X419112Y232579D01*
X419014Y232525D01*
X418914Y232475D01*
X418813Y232429D01*
X418710Y232386D01*
X418605Y232346D01*
X418500Y232310D01*
X418393Y232278D01*
X418285Y232250D01*
X418176Y232225D01*
X418067Y232204D01*
X417957Y232187D01*
X417846Y232173D01*
X417735Y232164D01*
X417624Y232158D01*
X417512Y232156D01*
X414449Y234343D02*
X414317Y234623D01*
X414191Y234906D01*
X414072Y235192D01*
X413960Y235481D01*
X413855Y235773D01*
X413757Y236067D01*
X413666Y236363D01*
X413582Y236661D01*
X413505Y236961D01*
X413435Y237263D01*
X413373Y237566D01*
X413318Y237871D01*
X413270Y238177D01*
X413229Y238485D01*
X413196Y238793D01*
X413170Y239101D01*
X413152Y239411D01*
X413141Y239720D01*
X413137Y240030D01*
X414450Y234343D02*
X414488Y234238D01*
X414530Y234135D01*
X414575Y234033D01*
X414623Y233932D01*
X414675Y233834D01*
X414731Y233737D01*
X414789Y233642D01*
X414851Y233549D01*
X414916Y233459D01*
X414985Y233371D01*
X415056Y233285D01*
X415130Y233201D01*
X415207Y233121D01*
X415286Y233042D01*
X415369Y232967D01*
X415454Y232895D01*
X415541Y232825D01*
X415631Y232759D01*
X415722Y232696D01*
X415816Y232636D01*
X415912Y232579D01*
X416010Y232525D01*
X416110Y232475D01*
X416211Y232429D01*
X416314Y232386D01*
X416419Y232346D01*
X416524Y232310D01*
X416631Y232278D01*
X416739Y232250D01*
X416848Y232225D01*
X416957Y232204D01*
X417067Y232187D01*
X417178Y232173D01*
X417289Y232164D01*
X417400Y232158D01*
X417512Y232156D01*
X421011Y235656D02*
X414012Y244404D01*
X450540Y215505D02*
X454914Y215505D01*
X450540Y215504D02*
X450409Y215502D01*
X450278Y215496D01*
X450148Y215486D01*
X450018Y215473D01*
X449888Y215455D01*
X449759Y215434D01*
X449631Y215408D01*
X449503Y215379D01*
X449376Y215346D01*
X449251Y215310D01*
X449126Y215269D01*
X449003Y215225D01*
X448881Y215177D01*
X448761Y215126D01*
X448642Y215071D01*
X448525Y215012D01*
X448410Y214950D01*
X448297Y214885D01*
X448185Y214816D01*
X448076Y214744D01*
X447969Y214669D01*
X447864Y214590D01*
X447762Y214509D01*
X447662Y214424D01*
X447565Y214336D01*
X447470Y214246D01*
X447378Y214153D01*
X447289Y214057D01*
X447203Y213958D01*
X447120Y213857D01*
X447040Y213754D01*
X446963Y213648D01*
X446890Y213540D01*
X446819Y213429D01*
X446752Y213317D01*
X446688Y213203D01*
X446628Y213087D01*
X446571Y212969D01*
X446518Y212849D01*
X446468Y212728D01*
X446422Y212605D01*
X446380Y212482D01*
X446342Y212357D01*
X446307Y212230D01*
X446276Y212103D01*
X446248Y211975D01*
X446225Y211847D01*
X446206Y211717D01*
X446190Y211587D01*
X446178Y211457D01*
X446170Y211326D01*
X446166Y211195D01*
X446166Y211065D01*
X446170Y210934D01*
X446178Y210803D01*
X446190Y210673D01*
X446206Y210543D01*
X446225Y210413D01*
X446248Y210285D01*
X446276Y210157D01*
X446307Y210030D01*
X446342Y209903D01*
X446380Y209778D01*
X446422Y209655D01*
X446468Y209532D01*
X446518Y209411D01*
X446571Y209291D01*
X446628Y209173D01*
X446688Y209057D01*
X446752Y208943D01*
X446819Y208831D01*
X446890Y208720D01*
X446963Y208612D01*
X447040Y208506D01*
X447120Y208403D01*
X447203Y208302D01*
X447289Y208203D01*
X447378Y208107D01*
X447470Y208014D01*
X447565Y207924D01*
X447662Y207836D01*
X447762Y207751D01*
X447864Y207670D01*
X447969Y207591D01*
X448076Y207516D01*
X448185Y207444D01*
X448297Y207375D01*
X448410Y207310D01*
X448525Y207248D01*
X448642Y207189D01*
X448761Y207134D01*
X448881Y207083D01*
X449003Y207035D01*
X449126Y206991D01*
X449251Y206950D01*
X449376Y206914D01*
X449503Y206881D01*
X449631Y206852D01*
X449759Y206826D01*
X449888Y206805D01*
X450018Y206787D01*
X450148Y206774D01*
X450278Y206764D01*
X450409Y206758D01*
X450540Y206756D01*
X454914Y206756D01*
X454914Y222504D01*
X450540Y222504D01*
X450422Y222502D01*
X450304Y222496D01*
X450186Y222486D01*
X450069Y222472D01*
X449952Y222454D01*
X449835Y222432D01*
X449720Y222407D01*
X449606Y222377D01*
X449492Y222343D01*
X449380Y222306D01*
X449269Y222265D01*
X449160Y222220D01*
X449052Y222172D01*
X448946Y222120D01*
X448841Y222064D01*
X448739Y222005D01*
X448639Y221943D01*
X448541Y221877D01*
X448445Y221808D01*
X448351Y221735D01*
X448260Y221660D01*
X448172Y221581D01*
X448086Y221500D01*
X448003Y221415D01*
X447923Y221328D01*
X447846Y221239D01*
X447772Y221146D01*
X447702Y221052D01*
X447634Y220955D01*
X447570Y220855D01*
X447509Y220754D01*
X447452Y220651D01*
X447398Y220545D01*
X447347Y220438D01*
X447301Y220330D01*
X447258Y220220D01*
X447219Y220108D01*
X447183Y219995D01*
X447152Y219881D01*
X447124Y219766D01*
X447100Y219651D01*
X447080Y219534D01*
X447064Y219417D01*
X447052Y219299D01*
X447044Y219181D01*
X447040Y219063D01*
X447040Y218945D01*
X447044Y218827D01*
X447052Y218709D01*
X447064Y218591D01*
X447080Y218474D01*
X447100Y218357D01*
X447124Y218242D01*
X447152Y218127D01*
X447183Y218013D01*
X447219Y217900D01*
X447258Y217788D01*
X447301Y217678D01*
X447347Y217570D01*
X447398Y217463D01*
X447452Y217357D01*
X447509Y217254D01*
X447570Y217153D01*
X447634Y217053D01*
X447702Y216956D01*
X447772Y216862D01*
X447846Y216769D01*
X447923Y216680D01*
X448003Y216593D01*
X448086Y216508D01*
X448172Y216427D01*
X448260Y216348D01*
X448351Y216273D01*
X448445Y216200D01*
X448541Y216131D01*
X448639Y216065D01*
X448739Y216003D01*
X448841Y215944D01*
X448946Y215888D01*
X449052Y215836D01*
X449160Y215788D01*
X449269Y215743D01*
X449380Y215702D01*
X449492Y215665D01*
X449606Y215631D01*
X449720Y215601D01*
X449835Y215576D01*
X449952Y215554D01*
X450069Y215536D01*
X450186Y215522D01*
X450304Y215512D01*
X450422Y215506D01*
X450540Y215504D01*
X440058Y220754D02*
X440058Y222504D01*
X431309Y222504D01*
X435683Y206756D01*
X452374Y197104D02*
X447125Y181356D01*
X441875Y197104D01*
X434620Y197104D02*
X434620Y181356D01*
X436369Y181356D02*
X432870Y181356D01*
X432870Y197104D02*
X436369Y197104D01*
X425968Y197104D02*
X425968Y181356D01*
X417219Y181356D02*
X425968Y197104D01*
X417219Y197104D02*
X417219Y181356D01*
X446730Y154686D02*
X451104Y154686D01*
X446730Y154686D02*
X446599Y154688D01*
X446468Y154694D01*
X446338Y154704D01*
X446208Y154717D01*
X446078Y154735D01*
X445949Y154756D01*
X445821Y154782D01*
X445693Y154811D01*
X445566Y154844D01*
X445441Y154880D01*
X445316Y154921D01*
X445193Y154965D01*
X445071Y155013D01*
X444951Y155064D01*
X444832Y155119D01*
X444715Y155178D01*
X444600Y155240D01*
X444487Y155305D01*
X444375Y155374D01*
X444266Y155446D01*
X444159Y155521D01*
X444054Y155600D01*
X443952Y155681D01*
X443852Y155766D01*
X443755Y155854D01*
X443660Y155944D01*
X443568Y156037D01*
X443479Y156133D01*
X443393Y156232D01*
X443310Y156333D01*
X443230Y156436D01*
X443153Y156542D01*
X443080Y156650D01*
X443009Y156761D01*
X442942Y156873D01*
X442878Y156987D01*
X442818Y157103D01*
X442761Y157221D01*
X442708Y157341D01*
X442658Y157462D01*
X442612Y157585D01*
X442570Y157708D01*
X442532Y157833D01*
X442497Y157960D01*
X442466Y158087D01*
X442438Y158215D01*
X442415Y158343D01*
X442396Y158473D01*
X442380Y158603D01*
X442368Y158733D01*
X442360Y158864D01*
X442356Y158995D01*
X442356Y159125D01*
X442360Y159256D01*
X442368Y159387D01*
X442380Y159517D01*
X442396Y159647D01*
X442415Y159777D01*
X442438Y159905D01*
X442466Y160033D01*
X442497Y160160D01*
X442532Y160287D01*
X442570Y160412D01*
X442612Y160535D01*
X442658Y160658D01*
X442708Y160779D01*
X442761Y160899D01*
X442818Y161017D01*
X442878Y161133D01*
X442942Y161247D01*
X443009Y161359D01*
X443080Y161470D01*
X443153Y161578D01*
X443230Y161684D01*
X443310Y161787D01*
X443393Y161888D01*
X443479Y161987D01*
X443568Y162083D01*
X443660Y162176D01*
X443755Y162266D01*
X443852Y162354D01*
X443952Y162439D01*
X444054Y162520D01*
X444159Y162599D01*
X444266Y162674D01*
X444375Y162746D01*
X444487Y162815D01*
X444600Y162880D01*
X444715Y162942D01*
X444832Y163001D01*
X444951Y163056D01*
X445071Y163107D01*
X445193Y163155D01*
X445316Y163199D01*
X445441Y163240D01*
X445566Y163276D01*
X445693Y163309D01*
X445821Y163338D01*
X445949Y163364D01*
X446078Y163385D01*
X446208Y163403D01*
X446338Y163416D01*
X446468Y163426D01*
X446599Y163432D01*
X446730Y163434D01*
X445855Y170434D02*
X451104Y170434D01*
X445855Y170434D02*
X445737Y170432D01*
X445619Y170426D01*
X445501Y170416D01*
X445384Y170402D01*
X445267Y170384D01*
X445150Y170362D01*
X445035Y170337D01*
X444921Y170307D01*
X444807Y170273D01*
X444695Y170236D01*
X444584Y170195D01*
X444475Y170150D01*
X444367Y170102D01*
X444261Y170050D01*
X444156Y169994D01*
X444054Y169935D01*
X443954Y169873D01*
X443856Y169807D01*
X443760Y169738D01*
X443666Y169665D01*
X443575Y169590D01*
X443487Y169511D01*
X443401Y169430D01*
X443318Y169345D01*
X443238Y169258D01*
X443161Y169169D01*
X443087Y169076D01*
X443017Y168982D01*
X442949Y168885D01*
X442885Y168785D01*
X442824Y168684D01*
X442767Y168581D01*
X442713Y168475D01*
X442662Y168368D01*
X442616Y168260D01*
X442573Y168150D01*
X442534Y168038D01*
X442498Y167925D01*
X442467Y167811D01*
X442439Y167696D01*
X442415Y167581D01*
X442395Y167464D01*
X442379Y167347D01*
X442367Y167229D01*
X442359Y167111D01*
X442355Y166993D01*
X442355Y166875D01*
X442359Y166757D01*
X442367Y166639D01*
X442379Y166521D01*
X442395Y166404D01*
X442415Y166287D01*
X442439Y166172D01*
X442467Y166057D01*
X442498Y165943D01*
X442534Y165830D01*
X442573Y165718D01*
X442616Y165608D01*
X442662Y165500D01*
X442713Y165393D01*
X442767Y165287D01*
X442824Y165184D01*
X442885Y165083D01*
X442949Y164983D01*
X443017Y164886D01*
X443087Y164792D01*
X443161Y164699D01*
X443238Y164610D01*
X443318Y164523D01*
X443401Y164438D01*
X443487Y164357D01*
X443575Y164278D01*
X443666Y164203D01*
X443760Y164130D01*
X443856Y164061D01*
X443954Y163995D01*
X444054Y163933D01*
X444156Y163874D01*
X444261Y163818D01*
X444367Y163766D01*
X444475Y163718D01*
X444584Y163673D01*
X444695Y163632D01*
X444807Y163595D01*
X444921Y163561D01*
X445035Y163531D01*
X445150Y163506D01*
X445267Y163484D01*
X445384Y163466D01*
X445501Y163452D01*
X445619Y163442D01*
X445737Y163436D01*
X445855Y163434D01*
X445855Y163435D02*
X449354Y163435D01*
X436348Y170434D02*
X431098Y154686D01*
X425849Y170434D01*
X419842Y154686D02*
X415467Y154686D01*
X415336Y154688D01*
X415205Y154694D01*
X415075Y154704D01*
X414945Y154717D01*
X414815Y154735D01*
X414686Y154756D01*
X414558Y154782D01*
X414430Y154811D01*
X414303Y154844D01*
X414178Y154880D01*
X414053Y154921D01*
X413930Y154965D01*
X413808Y155013D01*
X413688Y155064D01*
X413569Y155119D01*
X413452Y155178D01*
X413337Y155240D01*
X413224Y155305D01*
X413112Y155374D01*
X413003Y155446D01*
X412896Y155521D01*
X412791Y155600D01*
X412689Y155681D01*
X412589Y155766D01*
X412492Y155854D01*
X412397Y155944D01*
X412305Y156037D01*
X412216Y156133D01*
X412130Y156232D01*
X412047Y156333D01*
X411967Y156436D01*
X411890Y156542D01*
X411817Y156650D01*
X411746Y156761D01*
X411679Y156873D01*
X411615Y156987D01*
X411555Y157103D01*
X411498Y157221D01*
X411445Y157341D01*
X411395Y157462D01*
X411349Y157585D01*
X411307Y157708D01*
X411269Y157833D01*
X411234Y157960D01*
X411203Y158087D01*
X411175Y158215D01*
X411152Y158343D01*
X411133Y158473D01*
X411117Y158603D01*
X411105Y158733D01*
X411097Y158864D01*
X411093Y158995D01*
X411093Y159125D01*
X411097Y159256D01*
X411105Y159387D01*
X411117Y159517D01*
X411133Y159647D01*
X411152Y159777D01*
X411175Y159905D01*
X411203Y160033D01*
X411234Y160160D01*
X411269Y160287D01*
X411307Y160412D01*
X411349Y160535D01*
X411395Y160658D01*
X411445Y160779D01*
X411498Y160899D01*
X411555Y161017D01*
X411615Y161133D01*
X411679Y161247D01*
X411746Y161359D01*
X411817Y161470D01*
X411890Y161578D01*
X411967Y161684D01*
X412047Y161787D01*
X412130Y161888D01*
X412216Y161987D01*
X412305Y162083D01*
X412397Y162176D01*
X412492Y162266D01*
X412589Y162354D01*
X412689Y162439D01*
X412791Y162520D01*
X412896Y162599D01*
X413003Y162674D01*
X413112Y162746D01*
X413224Y162815D01*
X413337Y162880D01*
X413452Y162942D01*
X413569Y163001D01*
X413688Y163056D01*
X413808Y163107D01*
X413930Y163155D01*
X414053Y163199D01*
X414178Y163240D01*
X414303Y163276D01*
X414430Y163309D01*
X414558Y163338D01*
X414686Y163364D01*
X414815Y163385D01*
X414945Y163403D01*
X415075Y163416D01*
X415205Y163426D01*
X415336Y163432D01*
X415467Y163434D01*
X414592Y170434D02*
X419842Y170434D01*
X414592Y170434D02*
X414474Y170432D01*
X414356Y170426D01*
X414238Y170416D01*
X414121Y170402D01*
X414004Y170384D01*
X413887Y170362D01*
X413772Y170337D01*
X413658Y170307D01*
X413544Y170273D01*
X413432Y170236D01*
X413321Y170195D01*
X413212Y170150D01*
X413104Y170102D01*
X412998Y170050D01*
X412893Y169994D01*
X412791Y169935D01*
X412691Y169873D01*
X412593Y169807D01*
X412497Y169738D01*
X412403Y169665D01*
X412312Y169590D01*
X412224Y169511D01*
X412138Y169430D01*
X412055Y169345D01*
X411975Y169258D01*
X411898Y169169D01*
X411824Y169076D01*
X411754Y168982D01*
X411686Y168885D01*
X411622Y168785D01*
X411561Y168684D01*
X411504Y168581D01*
X411450Y168475D01*
X411399Y168368D01*
X411353Y168260D01*
X411310Y168150D01*
X411271Y168038D01*
X411235Y167925D01*
X411204Y167811D01*
X411176Y167696D01*
X411152Y167581D01*
X411132Y167464D01*
X411116Y167347D01*
X411104Y167229D01*
X411096Y167111D01*
X411092Y166993D01*
X411092Y166875D01*
X411096Y166757D01*
X411104Y166639D01*
X411116Y166521D01*
X411132Y166404D01*
X411152Y166287D01*
X411176Y166172D01*
X411204Y166057D01*
X411235Y165943D01*
X411271Y165830D01*
X411310Y165718D01*
X411353Y165608D01*
X411399Y165500D01*
X411450Y165393D01*
X411504Y165287D01*
X411561Y165184D01*
X411622Y165083D01*
X411686Y164983D01*
X411754Y164886D01*
X411824Y164792D01*
X411898Y164699D01*
X411975Y164610D01*
X412055Y164523D01*
X412138Y164438D01*
X412224Y164357D01*
X412312Y164278D01*
X412403Y164203D01*
X412497Y164130D01*
X412593Y164061D01*
X412691Y163995D01*
X412791Y163933D01*
X412893Y163874D01*
X412998Y163818D01*
X413104Y163766D01*
X413212Y163718D01*
X413321Y163673D01*
X413432Y163632D01*
X413544Y163595D01*
X413658Y163561D01*
X413772Y163531D01*
X413887Y163506D01*
X414004Y163484D01*
X414121Y163466D01*
X414238Y163452D01*
X414356Y163442D01*
X414474Y163436D01*
X414592Y163434D01*
X414592Y163435D02*
X418092Y163435D01*
X441085Y139305D02*
X443710Y139305D01*
X441085Y139305D02*
X441085Y130556D01*
X446334Y130556D01*
X446451Y130558D01*
X446568Y130564D01*
X446684Y130574D01*
X446801Y130587D01*
X446916Y130605D01*
X447031Y130626D01*
X447145Y130651D01*
X447259Y130680D01*
X447371Y130713D01*
X447482Y130750D01*
X447592Y130790D01*
X447700Y130834D01*
X447807Y130881D01*
X447913Y130932D01*
X448016Y130987D01*
X448118Y131045D01*
X448217Y131106D01*
X448315Y131170D01*
X448410Y131238D01*
X448503Y131309D01*
X448594Y131383D01*
X448682Y131460D01*
X448767Y131540D01*
X448850Y131623D01*
X448930Y131708D01*
X449007Y131796D01*
X449081Y131887D01*
X449152Y131980D01*
X449220Y132075D01*
X449284Y132173D01*
X449345Y132272D01*
X449403Y132374D01*
X449458Y132477D01*
X449509Y132583D01*
X449556Y132690D01*
X449600Y132798D01*
X449640Y132908D01*
X449677Y133019D01*
X449710Y133131D01*
X449739Y133245D01*
X449764Y133359D01*
X449785Y133474D01*
X449803Y133590D01*
X449816Y133706D01*
X449826Y133822D01*
X449832Y133939D01*
X449834Y134056D01*
X449834Y142804D01*
X449832Y142921D01*
X449826Y143038D01*
X449816Y143154D01*
X449803Y143270D01*
X449785Y143386D01*
X449764Y143501D01*
X449739Y143615D01*
X449710Y143729D01*
X449677Y143841D01*
X449640Y143952D01*
X449600Y144062D01*
X449556Y144170D01*
X449509Y144277D01*
X449458Y144383D01*
X449403Y144486D01*
X449345Y144588D01*
X449284Y144687D01*
X449220Y144785D01*
X449152Y144880D01*
X449081Y144973D01*
X449007Y145064D01*
X448930Y145152D01*
X448850Y145237D01*
X448767Y145320D01*
X448682Y145400D01*
X448594Y145477D01*
X448503Y145551D01*
X448410Y145622D01*
X448315Y145690D01*
X448217Y145754D01*
X448118Y145815D01*
X448016Y145873D01*
X447913Y145928D01*
X447807Y145979D01*
X447700Y146026D01*
X447592Y146070D01*
X447482Y146110D01*
X447371Y146147D01*
X447259Y146180D01*
X447145Y146209D01*
X447031Y146234D01*
X446916Y146255D01*
X446801Y146273D01*
X446684Y146286D01*
X446568Y146296D01*
X446451Y146302D01*
X446334Y146304D01*
X441085Y146304D01*
X433161Y146304D02*
X433161Y130556D01*
X424412Y130556D02*
X433161Y146304D01*
X424412Y146304D02*
X424412Y130556D01*
X416487Y130556D02*
X416487Y146304D01*
X412113Y146304D01*
X411983Y146302D01*
X411854Y146296D01*
X411725Y146287D01*
X411596Y146273D01*
X411467Y146256D01*
X411339Y146235D01*
X411212Y146210D01*
X411086Y146182D01*
X410960Y146149D01*
X410836Y146113D01*
X410712Y146074D01*
X410590Y146030D01*
X410469Y145983D01*
X410350Y145933D01*
X410232Y145879D01*
X410116Y145821D01*
X410001Y145760D01*
X409889Y145696D01*
X409778Y145629D01*
X409669Y145558D01*
X409563Y145484D01*
X409459Y145407D01*
X409357Y145327D01*
X409258Y145243D01*
X409161Y145157D01*
X409066Y145068D01*
X408975Y144977D01*
X408886Y144882D01*
X408800Y144785D01*
X408716Y144686D01*
X408636Y144584D01*
X408559Y144480D01*
X408485Y144374D01*
X408414Y144265D01*
X408347Y144154D01*
X408283Y144042D01*
X408222Y143927D01*
X408164Y143811D01*
X408110Y143693D01*
X408060Y143574D01*
X408013Y143453D01*
X407969Y143331D01*
X407930Y143207D01*
X407894Y143083D01*
X407861Y142957D01*
X407833Y142831D01*
X407808Y142704D01*
X407787Y142576D01*
X407770Y142447D01*
X407756Y142318D01*
X407747Y142189D01*
X407741Y142060D01*
X407739Y141930D01*
X407739Y134930D01*
X407741Y134800D01*
X407747Y134671D01*
X407756Y134542D01*
X407770Y134413D01*
X407787Y134284D01*
X407808Y134156D01*
X407833Y134029D01*
X407861Y133903D01*
X407894Y133777D01*
X407930Y133653D01*
X407969Y133529D01*
X408013Y133407D01*
X408060Y133286D01*
X408110Y133167D01*
X408164Y133049D01*
X408222Y132933D01*
X408283Y132818D01*
X408347Y132706D01*
X408414Y132595D01*
X408485Y132486D01*
X408559Y132380D01*
X408636Y132276D01*
X408716Y132174D01*
X408800Y132075D01*
X408886Y131978D01*
X408975Y131883D01*
X409066Y131792D01*
X409161Y131703D01*
X409258Y131617D01*
X409357Y131533D01*
X409459Y131453D01*
X409563Y131376D01*
X409669Y131302D01*
X409778Y131231D01*
X409889Y131164D01*
X410001Y131100D01*
X410116Y131039D01*
X410232Y130981D01*
X410350Y130927D01*
X410469Y130877D01*
X410590Y130830D01*
X410712Y130786D01*
X410836Y130747D01*
X410960Y130711D01*
X411086Y130678D01*
X411212Y130650D01*
X411339Y130625D01*
X411467Y130604D01*
X411596Y130587D01*
X411725Y130573D01*
X411854Y130564D01*
X411983Y130558D01*
X412113Y130556D01*
X416487Y130556D01*
X67564Y360426D02*
X62315Y376174D01*
X57065Y360426D01*
X58378Y364363D02*
X66252Y364363D01*
X51058Y368300D02*
X51054Y368610D01*
X51043Y368919D01*
X51025Y369229D01*
X50999Y369537D01*
X50966Y369845D01*
X50925Y370153D01*
X50877Y370459D01*
X50822Y370764D01*
X50760Y371067D01*
X50690Y371369D01*
X50613Y371669D01*
X50529Y371967D01*
X50438Y372263D01*
X50340Y372557D01*
X50235Y372849D01*
X50123Y373138D01*
X50004Y373424D01*
X49878Y373707D01*
X49746Y373987D01*
X49745Y373987D02*
X49707Y374092D01*
X49665Y374195D01*
X49620Y374297D01*
X49572Y374398D01*
X49520Y374496D01*
X49464Y374593D01*
X49406Y374688D01*
X49344Y374781D01*
X49279Y374871D01*
X49210Y374959D01*
X49139Y375045D01*
X49065Y375129D01*
X48988Y375209D01*
X48909Y375288D01*
X48826Y375363D01*
X48741Y375435D01*
X48654Y375505D01*
X48564Y375571D01*
X48473Y375634D01*
X48379Y375694D01*
X48283Y375751D01*
X48185Y375805D01*
X48085Y375855D01*
X47984Y375901D01*
X47881Y375944D01*
X47776Y375984D01*
X47671Y376020D01*
X47564Y376052D01*
X47456Y376080D01*
X47347Y376105D01*
X47238Y376126D01*
X47128Y376143D01*
X47017Y376157D01*
X46906Y376166D01*
X46795Y376172D01*
X46683Y376174D01*
X46571Y376172D01*
X46460Y376166D01*
X46349Y376157D01*
X46238Y376143D01*
X46128Y376126D01*
X46019Y376105D01*
X45910Y376080D01*
X45802Y376052D01*
X45695Y376020D01*
X45590Y375984D01*
X45485Y375944D01*
X45382Y375901D01*
X45281Y375855D01*
X45181Y375805D01*
X45083Y375751D01*
X44987Y375694D01*
X44893Y375634D01*
X44802Y375571D01*
X44712Y375505D01*
X44625Y375435D01*
X44540Y375363D01*
X44457Y375288D01*
X44378Y375209D01*
X44301Y375129D01*
X44227Y375045D01*
X44156Y374959D01*
X44087Y374871D01*
X44022Y374781D01*
X43960Y374688D01*
X43902Y374593D01*
X43846Y374496D01*
X43794Y374398D01*
X43746Y374297D01*
X43701Y374195D01*
X43659Y374092D01*
X43621Y373987D01*
X43489Y373707D01*
X43363Y373423D01*
X43244Y373137D01*
X43132Y372848D01*
X43027Y372557D01*
X42929Y372263D01*
X42838Y371967D01*
X42754Y371669D01*
X42677Y371369D01*
X42607Y371067D01*
X42545Y370763D01*
X42490Y370459D01*
X42442Y370153D01*
X42401Y369845D01*
X42368Y369537D01*
X42342Y369229D01*
X42324Y368919D01*
X42313Y368610D01*
X42309Y368300D01*
X51058Y368300D02*
X51054Y367990D01*
X51043Y367681D01*
X51025Y367371D01*
X50999Y367063D01*
X50966Y366755D01*
X50925Y366447D01*
X50877Y366141D01*
X50822Y365836D01*
X50760Y365533D01*
X50690Y365231D01*
X50613Y364931D01*
X50529Y364633D01*
X50438Y364337D01*
X50340Y364043D01*
X50235Y363751D01*
X50123Y363462D01*
X50004Y363176D01*
X49878Y362893D01*
X49746Y362613D01*
X49745Y362613D02*
X49707Y362508D01*
X49665Y362405D01*
X49620Y362303D01*
X49572Y362202D01*
X49520Y362104D01*
X49464Y362007D01*
X49406Y361912D01*
X49344Y361819D01*
X49279Y361729D01*
X49210Y361641D01*
X49139Y361555D01*
X49065Y361471D01*
X48988Y361391D01*
X48909Y361312D01*
X48826Y361237D01*
X48741Y361165D01*
X48654Y361095D01*
X48564Y361029D01*
X48473Y360966D01*
X48379Y360906D01*
X48283Y360849D01*
X48185Y360795D01*
X48085Y360745D01*
X47984Y360699D01*
X47881Y360656D01*
X47776Y360616D01*
X47671Y360580D01*
X47564Y360548D01*
X47456Y360520D01*
X47347Y360495D01*
X47238Y360474D01*
X47128Y360457D01*
X47017Y360443D01*
X46906Y360434D01*
X46795Y360428D01*
X46683Y360426D01*
X43621Y362613D02*
X43489Y362893D01*
X43363Y363176D01*
X43244Y363462D01*
X43132Y363751D01*
X43027Y364043D01*
X42929Y364337D01*
X42838Y364633D01*
X42754Y364931D01*
X42677Y365231D01*
X42607Y365533D01*
X42545Y365836D01*
X42490Y366141D01*
X42442Y366447D01*
X42401Y366755D01*
X42368Y367063D01*
X42342Y367371D01*
X42324Y367681D01*
X42313Y367990D01*
X42309Y368300D01*
X43621Y362613D02*
X43659Y362508D01*
X43701Y362405D01*
X43746Y362303D01*
X43794Y362202D01*
X43846Y362104D01*
X43902Y362007D01*
X43960Y361912D01*
X44022Y361819D01*
X44087Y361729D01*
X44156Y361641D01*
X44227Y361555D01*
X44301Y361471D01*
X44378Y361391D01*
X44457Y361312D01*
X44540Y361237D01*
X44625Y361165D01*
X44712Y361095D01*
X44802Y361029D01*
X44893Y360966D01*
X44987Y360906D01*
X45083Y360849D01*
X45181Y360795D01*
X45281Y360745D01*
X45382Y360699D01*
X45485Y360656D01*
X45590Y360616D01*
X45695Y360580D01*
X45802Y360548D01*
X45910Y360520D01*
X46019Y360495D01*
X46128Y360474D01*
X46238Y360457D01*
X46349Y360443D01*
X46460Y360434D01*
X46571Y360428D01*
X46683Y360426D01*
X50183Y363926D02*
X43184Y372674D01*
X62315Y350774D02*
X67564Y335026D01*
X57065Y335026D02*
X62315Y350774D01*
X58378Y338963D02*
X66252Y338963D01*
X51058Y347274D02*
X46683Y350774D01*
X46683Y335026D01*
X42309Y335026D02*
X51058Y335026D01*
X63585Y326644D02*
X68834Y310896D01*
X58335Y310896D02*
X63585Y326644D01*
X59648Y314833D02*
X67522Y314833D01*
X47516Y326644D02*
X47392Y326642D01*
X47269Y326636D01*
X47145Y326627D01*
X47023Y326613D01*
X46900Y326596D01*
X46778Y326574D01*
X46657Y326549D01*
X46537Y326520D01*
X46418Y326488D01*
X46299Y326451D01*
X46182Y326411D01*
X46067Y326368D01*
X45952Y326320D01*
X45840Y326269D01*
X45729Y326215D01*
X45619Y326157D01*
X45512Y326096D01*
X45406Y326031D01*
X45303Y325963D01*
X45202Y325892D01*
X45103Y325818D01*
X45006Y325741D01*
X44912Y325660D01*
X44821Y325577D01*
X44732Y325491D01*
X44646Y325402D01*
X44563Y325311D01*
X44482Y325217D01*
X44405Y325120D01*
X44331Y325021D01*
X44260Y324920D01*
X44192Y324817D01*
X44127Y324711D01*
X44066Y324604D01*
X44008Y324494D01*
X43954Y324383D01*
X43903Y324271D01*
X43855Y324156D01*
X43812Y324041D01*
X43772Y323924D01*
X43735Y323805D01*
X43703Y323686D01*
X43674Y323566D01*
X43649Y323445D01*
X43627Y323323D01*
X43610Y323200D01*
X43596Y323078D01*
X43587Y322954D01*
X43581Y322831D01*
X43579Y322707D01*
X47516Y326644D02*
X47657Y326642D01*
X47799Y326636D01*
X47940Y326626D01*
X48080Y326612D01*
X48220Y326595D01*
X48360Y326573D01*
X48499Y326548D01*
X48637Y326518D01*
X48775Y326485D01*
X48911Y326448D01*
X49047Y326407D01*
X49181Y326362D01*
X49313Y326314D01*
X49445Y326262D01*
X49575Y326206D01*
X49703Y326147D01*
X49830Y326084D01*
X49954Y326017D01*
X50077Y325948D01*
X50198Y325874D01*
X50317Y325798D01*
X50434Y325718D01*
X50548Y325635D01*
X50660Y325548D01*
X50769Y325459D01*
X50876Y325367D01*
X50981Y325271D01*
X51082Y325173D01*
X51181Y325072D01*
X51277Y324968D01*
X51370Y324862D01*
X51460Y324753D01*
X51547Y324641D01*
X51631Y324527D01*
X51711Y324411D01*
X51789Y324293D01*
X51863Y324172D01*
X51933Y324050D01*
X52000Y323926D01*
X52064Y323799D01*
X52124Y323671D01*
X52181Y323542D01*
X52233Y323411D01*
X52283Y323278D01*
X52328Y323144D01*
X44891Y319645D02*
X44801Y319733D01*
X44713Y319825D01*
X44628Y319919D01*
X44546Y320016D01*
X44467Y320115D01*
X44390Y320216D01*
X44317Y320320D01*
X44247Y320425D01*
X44180Y320533D01*
X44117Y320643D01*
X44057Y320755D01*
X44000Y320868D01*
X43946Y320983D01*
X43896Y321100D01*
X43850Y321218D01*
X43807Y321337D01*
X43768Y321458D01*
X43732Y321579D01*
X43700Y321702D01*
X43672Y321826D01*
X43647Y321950D01*
X43626Y322075D01*
X43609Y322201D01*
X43596Y322327D01*
X43587Y322453D01*
X43581Y322580D01*
X43579Y322707D01*
X44891Y319645D02*
X52328Y310896D01*
X43579Y310896D01*
X64855Y301244D02*
X70104Y285496D01*
X59605Y285496D02*
X64855Y301244D01*
X60918Y289433D02*
X68792Y289433D01*
X53598Y285496D02*
X49223Y285496D01*
X49092Y285498D01*
X48961Y285504D01*
X48831Y285514D01*
X48701Y285527D01*
X48571Y285545D01*
X48442Y285566D01*
X48314Y285592D01*
X48186Y285621D01*
X48059Y285654D01*
X47934Y285690D01*
X47809Y285731D01*
X47686Y285775D01*
X47564Y285823D01*
X47444Y285874D01*
X47325Y285929D01*
X47208Y285988D01*
X47093Y286050D01*
X46980Y286115D01*
X46868Y286184D01*
X46759Y286256D01*
X46652Y286331D01*
X46547Y286410D01*
X46445Y286491D01*
X46345Y286576D01*
X46248Y286664D01*
X46153Y286754D01*
X46061Y286847D01*
X45972Y286943D01*
X45886Y287042D01*
X45803Y287143D01*
X45723Y287246D01*
X45646Y287352D01*
X45573Y287460D01*
X45502Y287571D01*
X45435Y287683D01*
X45371Y287797D01*
X45311Y287913D01*
X45254Y288031D01*
X45201Y288151D01*
X45151Y288272D01*
X45105Y288395D01*
X45063Y288518D01*
X45025Y288643D01*
X44990Y288770D01*
X44959Y288897D01*
X44931Y289025D01*
X44908Y289153D01*
X44889Y289283D01*
X44873Y289413D01*
X44861Y289543D01*
X44853Y289674D01*
X44849Y289805D01*
X44849Y289935D01*
X44853Y290066D01*
X44861Y290197D01*
X44873Y290327D01*
X44889Y290457D01*
X44908Y290587D01*
X44931Y290715D01*
X44959Y290843D01*
X44990Y290970D01*
X45025Y291097D01*
X45063Y291222D01*
X45105Y291345D01*
X45151Y291468D01*
X45201Y291589D01*
X45254Y291709D01*
X45311Y291827D01*
X45371Y291943D01*
X45435Y292057D01*
X45502Y292169D01*
X45573Y292280D01*
X45646Y292388D01*
X45723Y292494D01*
X45803Y292597D01*
X45886Y292698D01*
X45972Y292797D01*
X46061Y292893D01*
X46153Y292986D01*
X46248Y293076D01*
X46345Y293164D01*
X46445Y293249D01*
X46547Y293330D01*
X46652Y293409D01*
X46759Y293484D01*
X46868Y293556D01*
X46980Y293625D01*
X47093Y293690D01*
X47208Y293752D01*
X47325Y293811D01*
X47444Y293866D01*
X47564Y293917D01*
X47686Y293965D01*
X47809Y294009D01*
X47934Y294050D01*
X48059Y294086D01*
X48186Y294119D01*
X48314Y294148D01*
X48442Y294174D01*
X48571Y294195D01*
X48701Y294213D01*
X48831Y294226D01*
X48961Y294236D01*
X49092Y294242D01*
X49223Y294244D01*
X48349Y301244D02*
X53598Y301244D01*
X48349Y301244D02*
X48231Y301242D01*
X48113Y301236D01*
X47995Y301226D01*
X47878Y301212D01*
X47761Y301194D01*
X47644Y301172D01*
X47529Y301147D01*
X47415Y301117D01*
X47301Y301083D01*
X47189Y301046D01*
X47078Y301005D01*
X46969Y300960D01*
X46861Y300912D01*
X46755Y300860D01*
X46650Y300804D01*
X46548Y300745D01*
X46448Y300683D01*
X46350Y300617D01*
X46254Y300548D01*
X46160Y300475D01*
X46069Y300400D01*
X45981Y300321D01*
X45895Y300240D01*
X45812Y300155D01*
X45732Y300068D01*
X45655Y299979D01*
X45581Y299886D01*
X45511Y299792D01*
X45443Y299695D01*
X45379Y299595D01*
X45318Y299494D01*
X45261Y299391D01*
X45207Y299285D01*
X45156Y299178D01*
X45110Y299070D01*
X45067Y298960D01*
X45028Y298848D01*
X44992Y298735D01*
X44961Y298621D01*
X44933Y298506D01*
X44909Y298391D01*
X44889Y298274D01*
X44873Y298157D01*
X44861Y298039D01*
X44853Y297921D01*
X44849Y297803D01*
X44849Y297685D01*
X44853Y297567D01*
X44861Y297449D01*
X44873Y297331D01*
X44889Y297214D01*
X44909Y297097D01*
X44933Y296982D01*
X44961Y296867D01*
X44992Y296753D01*
X45028Y296640D01*
X45067Y296528D01*
X45110Y296418D01*
X45156Y296310D01*
X45207Y296203D01*
X45261Y296097D01*
X45318Y295994D01*
X45379Y295893D01*
X45443Y295793D01*
X45511Y295696D01*
X45581Y295602D01*
X45655Y295509D01*
X45732Y295420D01*
X45812Y295333D01*
X45895Y295248D01*
X45981Y295167D01*
X46069Y295088D01*
X46160Y295013D01*
X46254Y294940D01*
X46350Y294871D01*
X46448Y294805D01*
X46548Y294743D01*
X46650Y294684D01*
X46755Y294628D01*
X46861Y294576D01*
X46969Y294528D01*
X47078Y294483D01*
X47189Y294442D01*
X47301Y294405D01*
X47415Y294371D01*
X47529Y294341D01*
X47644Y294316D01*
X47761Y294294D01*
X47878Y294276D01*
X47995Y294262D01*
X48113Y294252D01*
X48231Y294246D01*
X48349Y294244D01*
X48349Y294245D02*
X51848Y294245D01*
X64460Y268845D02*
X68834Y268845D01*
X64460Y268844D02*
X64329Y268842D01*
X64198Y268836D01*
X64068Y268826D01*
X63938Y268813D01*
X63808Y268795D01*
X63679Y268774D01*
X63551Y268748D01*
X63423Y268719D01*
X63296Y268686D01*
X63171Y268650D01*
X63046Y268609D01*
X62923Y268565D01*
X62801Y268517D01*
X62681Y268466D01*
X62562Y268411D01*
X62445Y268352D01*
X62330Y268290D01*
X62217Y268225D01*
X62105Y268156D01*
X61996Y268084D01*
X61889Y268009D01*
X61784Y267930D01*
X61682Y267849D01*
X61582Y267764D01*
X61485Y267676D01*
X61390Y267586D01*
X61298Y267493D01*
X61209Y267397D01*
X61123Y267298D01*
X61040Y267197D01*
X60960Y267094D01*
X60883Y266988D01*
X60810Y266880D01*
X60739Y266769D01*
X60672Y266657D01*
X60608Y266543D01*
X60548Y266427D01*
X60491Y266309D01*
X60438Y266189D01*
X60388Y266068D01*
X60342Y265945D01*
X60300Y265822D01*
X60262Y265697D01*
X60227Y265570D01*
X60196Y265443D01*
X60168Y265315D01*
X60145Y265187D01*
X60126Y265057D01*
X60110Y264927D01*
X60098Y264797D01*
X60090Y264666D01*
X60086Y264535D01*
X60086Y264405D01*
X60090Y264274D01*
X60098Y264143D01*
X60110Y264013D01*
X60126Y263883D01*
X60145Y263753D01*
X60168Y263625D01*
X60196Y263497D01*
X60227Y263370D01*
X60262Y263243D01*
X60300Y263118D01*
X60342Y262995D01*
X60388Y262872D01*
X60438Y262751D01*
X60491Y262631D01*
X60548Y262513D01*
X60608Y262397D01*
X60672Y262283D01*
X60739Y262171D01*
X60810Y262060D01*
X60883Y261952D01*
X60960Y261846D01*
X61040Y261743D01*
X61123Y261642D01*
X61209Y261543D01*
X61298Y261447D01*
X61390Y261354D01*
X61485Y261264D01*
X61582Y261176D01*
X61682Y261091D01*
X61784Y261010D01*
X61889Y260931D01*
X61996Y260856D01*
X62105Y260784D01*
X62217Y260715D01*
X62330Y260650D01*
X62445Y260588D01*
X62562Y260529D01*
X62681Y260474D01*
X62801Y260423D01*
X62923Y260375D01*
X63046Y260331D01*
X63171Y260290D01*
X63296Y260254D01*
X63423Y260221D01*
X63551Y260192D01*
X63679Y260166D01*
X63808Y260145D01*
X63938Y260127D01*
X64068Y260114D01*
X64198Y260104D01*
X64329Y260098D01*
X64460Y260096D01*
X68834Y260096D01*
X68834Y275844D01*
X64460Y275844D01*
X64342Y275842D01*
X64224Y275836D01*
X64106Y275826D01*
X63989Y275812D01*
X63872Y275794D01*
X63755Y275772D01*
X63640Y275747D01*
X63526Y275717D01*
X63412Y275683D01*
X63300Y275646D01*
X63189Y275605D01*
X63080Y275560D01*
X62972Y275512D01*
X62866Y275460D01*
X62761Y275404D01*
X62659Y275345D01*
X62559Y275283D01*
X62461Y275217D01*
X62365Y275148D01*
X62271Y275075D01*
X62180Y275000D01*
X62092Y274921D01*
X62006Y274840D01*
X61923Y274755D01*
X61843Y274668D01*
X61766Y274579D01*
X61692Y274486D01*
X61622Y274392D01*
X61554Y274295D01*
X61490Y274195D01*
X61429Y274094D01*
X61372Y273991D01*
X61318Y273885D01*
X61267Y273778D01*
X61221Y273670D01*
X61178Y273560D01*
X61139Y273448D01*
X61103Y273335D01*
X61072Y273221D01*
X61044Y273106D01*
X61020Y272991D01*
X61000Y272874D01*
X60984Y272757D01*
X60972Y272639D01*
X60964Y272521D01*
X60960Y272403D01*
X60960Y272285D01*
X60964Y272167D01*
X60972Y272049D01*
X60984Y271931D01*
X61000Y271814D01*
X61020Y271697D01*
X61044Y271582D01*
X61072Y271467D01*
X61103Y271353D01*
X61139Y271240D01*
X61178Y271128D01*
X61221Y271018D01*
X61267Y270910D01*
X61318Y270803D01*
X61372Y270697D01*
X61429Y270594D01*
X61490Y270493D01*
X61554Y270393D01*
X61622Y270296D01*
X61692Y270202D01*
X61766Y270109D01*
X61843Y270020D01*
X61923Y269933D01*
X62006Y269848D01*
X62092Y269767D01*
X62180Y269688D01*
X62271Y269613D01*
X62365Y269540D01*
X62461Y269471D01*
X62559Y269405D01*
X62659Y269343D01*
X62761Y269284D01*
X62866Y269228D01*
X62972Y269176D01*
X63080Y269128D01*
X63189Y269083D01*
X63300Y269042D01*
X63412Y269005D01*
X63526Y268971D01*
X63640Y268941D01*
X63755Y268916D01*
X63872Y268894D01*
X63989Y268876D01*
X64106Y268862D01*
X64224Y268852D01*
X64342Y268846D01*
X64460Y268844D01*
X53978Y260096D02*
X48728Y260096D01*
X48611Y260098D01*
X48494Y260104D01*
X48378Y260114D01*
X48261Y260127D01*
X48146Y260145D01*
X48031Y260166D01*
X47917Y260191D01*
X47803Y260220D01*
X47691Y260253D01*
X47580Y260290D01*
X47470Y260330D01*
X47362Y260374D01*
X47255Y260421D01*
X47149Y260472D01*
X47046Y260527D01*
X46944Y260585D01*
X46845Y260646D01*
X46747Y260710D01*
X46652Y260778D01*
X46559Y260849D01*
X46468Y260923D01*
X46380Y261000D01*
X46295Y261080D01*
X46212Y261163D01*
X46132Y261248D01*
X46055Y261336D01*
X45981Y261427D01*
X45910Y261520D01*
X45842Y261615D01*
X45778Y261713D01*
X45717Y261812D01*
X45659Y261914D01*
X45604Y262017D01*
X45553Y262123D01*
X45506Y262230D01*
X45462Y262338D01*
X45422Y262448D01*
X45385Y262559D01*
X45352Y262671D01*
X45323Y262785D01*
X45298Y262899D01*
X45277Y263014D01*
X45259Y263129D01*
X45246Y263246D01*
X45236Y263362D01*
X45230Y263479D01*
X45228Y263596D01*
X45229Y263596D02*
X45229Y265345D01*
X45228Y265345D02*
X45230Y265462D01*
X45236Y265579D01*
X45246Y265695D01*
X45259Y265812D01*
X45277Y265927D01*
X45298Y266042D01*
X45323Y266156D01*
X45352Y266270D01*
X45385Y266382D01*
X45422Y266493D01*
X45462Y266603D01*
X45506Y266711D01*
X45553Y266818D01*
X45604Y266924D01*
X45659Y267027D01*
X45717Y267129D01*
X45778Y267228D01*
X45842Y267326D01*
X45910Y267421D01*
X45981Y267514D01*
X46055Y267605D01*
X46132Y267693D01*
X46212Y267778D01*
X46295Y267861D01*
X46380Y267941D01*
X46468Y268018D01*
X46559Y268092D01*
X46652Y268163D01*
X46747Y268231D01*
X46845Y268295D01*
X46944Y268356D01*
X47046Y268414D01*
X47149Y268469D01*
X47255Y268520D01*
X47362Y268567D01*
X47470Y268611D01*
X47580Y268651D01*
X47691Y268688D01*
X47803Y268721D01*
X47917Y268750D01*
X48031Y268775D01*
X48146Y268796D01*
X48261Y268814D01*
X48378Y268827D01*
X48494Y268837D01*
X48611Y268843D01*
X48728Y268845D01*
X53978Y268845D01*
X53978Y275844D01*
X45229Y275844D01*
X63190Y243445D02*
X67564Y243445D01*
X63190Y243444D02*
X63059Y243442D01*
X62928Y243436D01*
X62798Y243426D01*
X62668Y243413D01*
X62538Y243395D01*
X62409Y243374D01*
X62281Y243348D01*
X62153Y243319D01*
X62026Y243286D01*
X61901Y243250D01*
X61776Y243209D01*
X61653Y243165D01*
X61531Y243117D01*
X61411Y243066D01*
X61292Y243011D01*
X61175Y242952D01*
X61060Y242890D01*
X60947Y242825D01*
X60835Y242756D01*
X60726Y242684D01*
X60619Y242609D01*
X60514Y242530D01*
X60412Y242449D01*
X60312Y242364D01*
X60215Y242276D01*
X60120Y242186D01*
X60028Y242093D01*
X59939Y241997D01*
X59853Y241898D01*
X59770Y241797D01*
X59690Y241694D01*
X59613Y241588D01*
X59540Y241480D01*
X59469Y241369D01*
X59402Y241257D01*
X59338Y241143D01*
X59278Y241027D01*
X59221Y240909D01*
X59168Y240789D01*
X59118Y240668D01*
X59072Y240545D01*
X59030Y240422D01*
X58992Y240297D01*
X58957Y240170D01*
X58926Y240043D01*
X58898Y239915D01*
X58875Y239787D01*
X58856Y239657D01*
X58840Y239527D01*
X58828Y239397D01*
X58820Y239266D01*
X58816Y239135D01*
X58816Y239005D01*
X58820Y238874D01*
X58828Y238743D01*
X58840Y238613D01*
X58856Y238483D01*
X58875Y238353D01*
X58898Y238225D01*
X58926Y238097D01*
X58957Y237970D01*
X58992Y237843D01*
X59030Y237718D01*
X59072Y237595D01*
X59118Y237472D01*
X59168Y237351D01*
X59221Y237231D01*
X59278Y237113D01*
X59338Y236997D01*
X59402Y236883D01*
X59469Y236771D01*
X59540Y236660D01*
X59613Y236552D01*
X59690Y236446D01*
X59770Y236343D01*
X59853Y236242D01*
X59939Y236143D01*
X60028Y236047D01*
X60120Y235954D01*
X60215Y235864D01*
X60312Y235776D01*
X60412Y235691D01*
X60514Y235610D01*
X60619Y235531D01*
X60726Y235456D01*
X60835Y235384D01*
X60947Y235315D01*
X61060Y235250D01*
X61175Y235188D01*
X61292Y235129D01*
X61411Y235074D01*
X61531Y235023D01*
X61653Y234975D01*
X61776Y234931D01*
X61901Y234890D01*
X62026Y234854D01*
X62153Y234821D01*
X62281Y234792D01*
X62409Y234766D01*
X62538Y234745D01*
X62668Y234727D01*
X62798Y234714D01*
X62928Y234704D01*
X63059Y234698D01*
X63190Y234696D01*
X67564Y234696D01*
X67564Y250444D01*
X63190Y250444D01*
X63072Y250442D01*
X62954Y250436D01*
X62836Y250426D01*
X62719Y250412D01*
X62602Y250394D01*
X62485Y250372D01*
X62370Y250347D01*
X62256Y250317D01*
X62142Y250283D01*
X62030Y250246D01*
X61919Y250205D01*
X61810Y250160D01*
X61702Y250112D01*
X61596Y250060D01*
X61491Y250004D01*
X61389Y249945D01*
X61289Y249883D01*
X61191Y249817D01*
X61095Y249748D01*
X61001Y249675D01*
X60910Y249600D01*
X60822Y249521D01*
X60736Y249440D01*
X60653Y249355D01*
X60573Y249268D01*
X60496Y249179D01*
X60422Y249086D01*
X60352Y248992D01*
X60284Y248895D01*
X60220Y248795D01*
X60159Y248694D01*
X60102Y248591D01*
X60048Y248485D01*
X59997Y248378D01*
X59951Y248270D01*
X59908Y248160D01*
X59869Y248048D01*
X59833Y247935D01*
X59802Y247821D01*
X59774Y247706D01*
X59750Y247591D01*
X59730Y247474D01*
X59714Y247357D01*
X59702Y247239D01*
X59694Y247121D01*
X59690Y247003D01*
X59690Y246885D01*
X59694Y246767D01*
X59702Y246649D01*
X59714Y246531D01*
X59730Y246414D01*
X59750Y246297D01*
X59774Y246182D01*
X59802Y246067D01*
X59833Y245953D01*
X59869Y245840D01*
X59908Y245728D01*
X59951Y245618D01*
X59997Y245510D01*
X60048Y245403D01*
X60102Y245297D01*
X60159Y245194D01*
X60220Y245093D01*
X60284Y244993D01*
X60352Y244896D01*
X60422Y244802D01*
X60496Y244709D01*
X60573Y244620D01*
X60653Y244533D01*
X60736Y244448D01*
X60822Y244367D01*
X60910Y244288D01*
X61001Y244213D01*
X61095Y244140D01*
X61191Y244071D01*
X61289Y244005D01*
X61389Y243943D01*
X61491Y243884D01*
X61596Y243828D01*
X61702Y243776D01*
X61810Y243728D01*
X61919Y243683D01*
X62030Y243642D01*
X62142Y243605D01*
X62256Y243571D01*
X62370Y243541D01*
X62485Y243516D01*
X62602Y243494D01*
X62719Y243476D01*
X62836Y243462D01*
X62954Y243452D01*
X63072Y243446D01*
X63190Y243444D01*
X52708Y243445D02*
X47458Y243445D01*
X47341Y243443D01*
X47224Y243437D01*
X47108Y243427D01*
X46991Y243414D01*
X46876Y243396D01*
X46761Y243375D01*
X46647Y243350D01*
X46533Y243321D01*
X46421Y243288D01*
X46310Y243251D01*
X46200Y243211D01*
X46092Y243167D01*
X45985Y243120D01*
X45879Y243069D01*
X45776Y243014D01*
X45674Y242956D01*
X45575Y242895D01*
X45477Y242831D01*
X45382Y242763D01*
X45289Y242692D01*
X45198Y242618D01*
X45110Y242541D01*
X45025Y242461D01*
X44942Y242378D01*
X44862Y242293D01*
X44785Y242205D01*
X44711Y242114D01*
X44640Y242021D01*
X44572Y241926D01*
X44508Y241828D01*
X44447Y241729D01*
X44389Y241627D01*
X44334Y241524D01*
X44283Y241418D01*
X44236Y241311D01*
X44192Y241203D01*
X44152Y241093D01*
X44115Y240982D01*
X44082Y240870D01*
X44053Y240756D01*
X44028Y240642D01*
X44007Y240527D01*
X43989Y240412D01*
X43976Y240295D01*
X43966Y240179D01*
X43960Y240062D01*
X43958Y239945D01*
X43959Y239945D02*
X43959Y239070D01*
X43961Y238939D01*
X43967Y238808D01*
X43977Y238678D01*
X43990Y238548D01*
X44008Y238418D01*
X44029Y238289D01*
X44055Y238161D01*
X44084Y238033D01*
X44117Y237906D01*
X44153Y237781D01*
X44194Y237656D01*
X44238Y237533D01*
X44286Y237411D01*
X44337Y237291D01*
X44392Y237172D01*
X44451Y237055D01*
X44513Y236940D01*
X44578Y236827D01*
X44647Y236715D01*
X44719Y236606D01*
X44794Y236499D01*
X44873Y236394D01*
X44954Y236292D01*
X45039Y236192D01*
X45127Y236095D01*
X45217Y236000D01*
X45310Y235908D01*
X45406Y235819D01*
X45505Y235733D01*
X45606Y235650D01*
X45709Y235570D01*
X45815Y235493D01*
X45923Y235420D01*
X46034Y235349D01*
X46146Y235282D01*
X46260Y235218D01*
X46376Y235158D01*
X46494Y235101D01*
X46614Y235048D01*
X46735Y234998D01*
X46858Y234952D01*
X46981Y234910D01*
X47106Y234872D01*
X47233Y234837D01*
X47360Y234806D01*
X47488Y234778D01*
X47616Y234755D01*
X47746Y234736D01*
X47876Y234720D01*
X48006Y234708D01*
X48137Y234700D01*
X48268Y234696D01*
X48398Y234696D01*
X48529Y234700D01*
X48660Y234708D01*
X48790Y234720D01*
X48920Y234736D01*
X49050Y234755D01*
X49178Y234778D01*
X49306Y234806D01*
X49433Y234837D01*
X49560Y234872D01*
X49685Y234910D01*
X49808Y234952D01*
X49931Y234998D01*
X50052Y235048D01*
X50172Y235101D01*
X50290Y235158D01*
X50406Y235218D01*
X50520Y235282D01*
X50632Y235349D01*
X50743Y235420D01*
X50851Y235493D01*
X50957Y235570D01*
X51060Y235650D01*
X51161Y235733D01*
X51260Y235819D01*
X51356Y235908D01*
X51449Y236000D01*
X51539Y236095D01*
X51627Y236192D01*
X51712Y236292D01*
X51793Y236394D01*
X51872Y236499D01*
X51947Y236606D01*
X52019Y236715D01*
X52088Y236827D01*
X52153Y236940D01*
X52215Y237055D01*
X52274Y237172D01*
X52329Y237291D01*
X52380Y237411D01*
X52428Y237533D01*
X52472Y237656D01*
X52513Y237781D01*
X52549Y237906D01*
X52582Y238033D01*
X52611Y238161D01*
X52637Y238289D01*
X52658Y238418D01*
X52676Y238548D01*
X52689Y238678D01*
X52699Y238808D01*
X52705Y238939D01*
X52707Y239070D01*
X52708Y239070D02*
X52708Y243445D01*
X52707Y243445D02*
X52705Y243617D01*
X52699Y243788D01*
X52688Y243960D01*
X52673Y244131D01*
X52654Y244302D01*
X52631Y244472D01*
X52604Y244642D01*
X52573Y244810D01*
X52537Y244978D01*
X52497Y245146D01*
X52453Y245312D01*
X52406Y245477D01*
X52354Y245640D01*
X52298Y245803D01*
X52238Y245964D01*
X52174Y246123D01*
X52107Y246281D01*
X52035Y246437D01*
X51960Y246592D01*
X51881Y246744D01*
X51798Y246895D01*
X51711Y247043D01*
X51621Y247189D01*
X51527Y247333D01*
X51430Y247475D01*
X51330Y247614D01*
X51226Y247751D01*
X51118Y247885D01*
X51008Y248017D01*
X50894Y248145D01*
X50777Y248271D01*
X50657Y248394D01*
X50534Y248514D01*
X50408Y248631D01*
X50280Y248745D01*
X50148Y248855D01*
X50014Y248963D01*
X49877Y249067D01*
X49738Y249167D01*
X49596Y249264D01*
X49452Y249358D01*
X49306Y249448D01*
X49158Y249535D01*
X49007Y249618D01*
X48855Y249697D01*
X48700Y249772D01*
X48544Y249844D01*
X48386Y249911D01*
X48227Y249975D01*
X48066Y250035D01*
X47904Y250091D01*
X47740Y250143D01*
X47575Y250190D01*
X47409Y250234D01*
X47242Y250274D01*
X47073Y250310D01*
X46905Y250341D01*
X46735Y250368D01*
X46565Y250391D01*
X46394Y250410D01*
X46223Y250425D01*
X46051Y250436D01*
X45880Y250442D01*
X45708Y250444D01*
X84074Y225044D02*
X78825Y209296D01*
X73575Y225044D01*
X66320Y225044D02*
X66320Y209296D01*
X68069Y209296D02*
X64570Y209296D01*
X64570Y225044D02*
X68069Y225044D01*
X57668Y225044D02*
X57668Y209296D01*
X48919Y209296D02*
X57668Y225044D01*
X48919Y225044D02*
X48919Y209296D01*
X80970Y183896D02*
X85344Y183896D01*
X80970Y183896D02*
X80839Y183898D01*
X80708Y183904D01*
X80578Y183914D01*
X80448Y183927D01*
X80318Y183945D01*
X80189Y183966D01*
X80061Y183992D01*
X79933Y184021D01*
X79806Y184054D01*
X79681Y184090D01*
X79556Y184131D01*
X79433Y184175D01*
X79311Y184223D01*
X79191Y184274D01*
X79072Y184329D01*
X78955Y184388D01*
X78840Y184450D01*
X78727Y184515D01*
X78615Y184584D01*
X78506Y184656D01*
X78399Y184731D01*
X78294Y184810D01*
X78192Y184891D01*
X78092Y184976D01*
X77995Y185064D01*
X77900Y185154D01*
X77808Y185247D01*
X77719Y185343D01*
X77633Y185442D01*
X77550Y185543D01*
X77470Y185646D01*
X77393Y185752D01*
X77320Y185860D01*
X77249Y185971D01*
X77182Y186083D01*
X77118Y186197D01*
X77058Y186313D01*
X77001Y186431D01*
X76948Y186551D01*
X76898Y186672D01*
X76852Y186795D01*
X76810Y186918D01*
X76772Y187043D01*
X76737Y187170D01*
X76706Y187297D01*
X76678Y187425D01*
X76655Y187553D01*
X76636Y187683D01*
X76620Y187813D01*
X76608Y187943D01*
X76600Y188074D01*
X76596Y188205D01*
X76596Y188335D01*
X76600Y188466D01*
X76608Y188597D01*
X76620Y188727D01*
X76636Y188857D01*
X76655Y188987D01*
X76678Y189115D01*
X76706Y189243D01*
X76737Y189370D01*
X76772Y189497D01*
X76810Y189622D01*
X76852Y189745D01*
X76898Y189868D01*
X76948Y189989D01*
X77001Y190109D01*
X77058Y190227D01*
X77118Y190343D01*
X77182Y190457D01*
X77249Y190569D01*
X77320Y190680D01*
X77393Y190788D01*
X77470Y190894D01*
X77550Y190997D01*
X77633Y191098D01*
X77719Y191197D01*
X77808Y191293D01*
X77900Y191386D01*
X77995Y191476D01*
X78092Y191564D01*
X78192Y191649D01*
X78294Y191730D01*
X78399Y191809D01*
X78506Y191884D01*
X78615Y191956D01*
X78727Y192025D01*
X78840Y192090D01*
X78955Y192152D01*
X79072Y192211D01*
X79191Y192266D01*
X79311Y192317D01*
X79433Y192365D01*
X79556Y192409D01*
X79681Y192450D01*
X79806Y192486D01*
X79933Y192519D01*
X80061Y192548D01*
X80189Y192574D01*
X80318Y192595D01*
X80448Y192613D01*
X80578Y192626D01*
X80708Y192636D01*
X80839Y192642D01*
X80970Y192644D01*
X80095Y199644D02*
X85344Y199644D01*
X80095Y199644D02*
X79977Y199642D01*
X79859Y199636D01*
X79741Y199626D01*
X79624Y199612D01*
X79507Y199594D01*
X79390Y199572D01*
X79275Y199547D01*
X79161Y199517D01*
X79047Y199483D01*
X78935Y199446D01*
X78824Y199405D01*
X78715Y199360D01*
X78607Y199312D01*
X78501Y199260D01*
X78396Y199204D01*
X78294Y199145D01*
X78194Y199083D01*
X78096Y199017D01*
X78000Y198948D01*
X77906Y198875D01*
X77815Y198800D01*
X77727Y198721D01*
X77641Y198640D01*
X77558Y198555D01*
X77478Y198468D01*
X77401Y198379D01*
X77327Y198286D01*
X77257Y198192D01*
X77189Y198095D01*
X77125Y197995D01*
X77064Y197894D01*
X77007Y197791D01*
X76953Y197685D01*
X76902Y197578D01*
X76856Y197470D01*
X76813Y197360D01*
X76774Y197248D01*
X76738Y197135D01*
X76707Y197021D01*
X76679Y196906D01*
X76655Y196791D01*
X76635Y196674D01*
X76619Y196557D01*
X76607Y196439D01*
X76599Y196321D01*
X76595Y196203D01*
X76595Y196085D01*
X76599Y195967D01*
X76607Y195849D01*
X76619Y195731D01*
X76635Y195614D01*
X76655Y195497D01*
X76679Y195382D01*
X76707Y195267D01*
X76738Y195153D01*
X76774Y195040D01*
X76813Y194928D01*
X76856Y194818D01*
X76902Y194710D01*
X76953Y194603D01*
X77007Y194497D01*
X77064Y194394D01*
X77125Y194293D01*
X77189Y194193D01*
X77257Y194096D01*
X77327Y194002D01*
X77401Y193909D01*
X77478Y193820D01*
X77558Y193733D01*
X77641Y193648D01*
X77727Y193567D01*
X77815Y193488D01*
X77906Y193413D01*
X78000Y193340D01*
X78096Y193271D01*
X78194Y193205D01*
X78294Y193143D01*
X78396Y193084D01*
X78501Y193028D01*
X78607Y192976D01*
X78715Y192928D01*
X78824Y192883D01*
X78935Y192842D01*
X79047Y192805D01*
X79161Y192771D01*
X79275Y192741D01*
X79390Y192716D01*
X79507Y192694D01*
X79624Y192676D01*
X79741Y192662D01*
X79859Y192652D01*
X79977Y192646D01*
X80095Y192644D01*
X80095Y192645D02*
X83594Y192645D01*
X70588Y199644D02*
X65338Y183896D01*
X60089Y199644D01*
X54082Y183896D02*
X49707Y183896D01*
X49576Y183898D01*
X49445Y183904D01*
X49315Y183914D01*
X49185Y183927D01*
X49055Y183945D01*
X48926Y183966D01*
X48798Y183992D01*
X48670Y184021D01*
X48543Y184054D01*
X48418Y184090D01*
X48293Y184131D01*
X48170Y184175D01*
X48048Y184223D01*
X47928Y184274D01*
X47809Y184329D01*
X47692Y184388D01*
X47577Y184450D01*
X47464Y184515D01*
X47352Y184584D01*
X47243Y184656D01*
X47136Y184731D01*
X47031Y184810D01*
X46929Y184891D01*
X46829Y184976D01*
X46732Y185064D01*
X46637Y185154D01*
X46545Y185247D01*
X46456Y185343D01*
X46370Y185442D01*
X46287Y185543D01*
X46207Y185646D01*
X46130Y185752D01*
X46057Y185860D01*
X45986Y185971D01*
X45919Y186083D01*
X45855Y186197D01*
X45795Y186313D01*
X45738Y186431D01*
X45685Y186551D01*
X45635Y186672D01*
X45589Y186795D01*
X45547Y186918D01*
X45509Y187043D01*
X45474Y187170D01*
X45443Y187297D01*
X45415Y187425D01*
X45392Y187553D01*
X45373Y187683D01*
X45357Y187813D01*
X45345Y187943D01*
X45337Y188074D01*
X45333Y188205D01*
X45333Y188335D01*
X45337Y188466D01*
X45345Y188597D01*
X45357Y188727D01*
X45373Y188857D01*
X45392Y188987D01*
X45415Y189115D01*
X45443Y189243D01*
X45474Y189370D01*
X45509Y189497D01*
X45547Y189622D01*
X45589Y189745D01*
X45635Y189868D01*
X45685Y189989D01*
X45738Y190109D01*
X45795Y190227D01*
X45855Y190343D01*
X45919Y190457D01*
X45986Y190569D01*
X46057Y190680D01*
X46130Y190788D01*
X46207Y190894D01*
X46287Y190997D01*
X46370Y191098D01*
X46456Y191197D01*
X46545Y191293D01*
X46637Y191386D01*
X46732Y191476D01*
X46829Y191564D01*
X46929Y191649D01*
X47031Y191730D01*
X47136Y191809D01*
X47243Y191884D01*
X47352Y191956D01*
X47464Y192025D01*
X47577Y192090D01*
X47692Y192152D01*
X47809Y192211D01*
X47928Y192266D01*
X48048Y192317D01*
X48170Y192365D01*
X48293Y192409D01*
X48418Y192450D01*
X48543Y192486D01*
X48670Y192519D01*
X48798Y192548D01*
X48926Y192574D01*
X49055Y192595D01*
X49185Y192613D01*
X49315Y192626D01*
X49445Y192636D01*
X49576Y192642D01*
X49707Y192644D01*
X48832Y199644D02*
X54082Y199644D01*
X48832Y199644D02*
X48714Y199642D01*
X48596Y199636D01*
X48478Y199626D01*
X48361Y199612D01*
X48244Y199594D01*
X48127Y199572D01*
X48012Y199547D01*
X47898Y199517D01*
X47784Y199483D01*
X47672Y199446D01*
X47561Y199405D01*
X47452Y199360D01*
X47344Y199312D01*
X47238Y199260D01*
X47133Y199204D01*
X47031Y199145D01*
X46931Y199083D01*
X46833Y199017D01*
X46737Y198948D01*
X46643Y198875D01*
X46552Y198800D01*
X46464Y198721D01*
X46378Y198640D01*
X46295Y198555D01*
X46215Y198468D01*
X46138Y198379D01*
X46064Y198286D01*
X45994Y198192D01*
X45926Y198095D01*
X45862Y197995D01*
X45801Y197894D01*
X45744Y197791D01*
X45690Y197685D01*
X45639Y197578D01*
X45593Y197470D01*
X45550Y197360D01*
X45511Y197248D01*
X45475Y197135D01*
X45444Y197021D01*
X45416Y196906D01*
X45392Y196791D01*
X45372Y196674D01*
X45356Y196557D01*
X45344Y196439D01*
X45336Y196321D01*
X45332Y196203D01*
X45332Y196085D01*
X45336Y195967D01*
X45344Y195849D01*
X45356Y195731D01*
X45372Y195614D01*
X45392Y195497D01*
X45416Y195382D01*
X45444Y195267D01*
X45475Y195153D01*
X45511Y195040D01*
X45550Y194928D01*
X45593Y194818D01*
X45639Y194710D01*
X45690Y194603D01*
X45744Y194497D01*
X45801Y194394D01*
X45862Y194293D01*
X45926Y194193D01*
X45994Y194096D01*
X46064Y194002D01*
X46138Y193909D01*
X46215Y193820D01*
X46295Y193733D01*
X46378Y193648D01*
X46464Y193567D01*
X46552Y193488D01*
X46643Y193413D01*
X46737Y193340D01*
X46833Y193271D01*
X46931Y193205D01*
X47031Y193143D01*
X47133Y193084D01*
X47238Y193028D01*
X47344Y192976D01*
X47452Y192928D01*
X47561Y192883D01*
X47672Y192842D01*
X47784Y192805D01*
X47898Y192771D01*
X48012Y192741D01*
X48127Y192716D01*
X48244Y192694D01*
X48361Y192676D01*
X48478Y192662D01*
X48596Y192652D01*
X48714Y192646D01*
X48832Y192644D01*
X48832Y192645D02*
X52332Y192645D01*
X75325Y167245D02*
X77950Y167245D01*
X75325Y167245D02*
X75325Y158496D01*
X80574Y158496D01*
X80691Y158498D01*
X80808Y158504D01*
X80924Y158514D01*
X81041Y158527D01*
X81156Y158545D01*
X81271Y158566D01*
X81385Y158591D01*
X81499Y158620D01*
X81611Y158653D01*
X81722Y158690D01*
X81832Y158730D01*
X81940Y158774D01*
X82047Y158821D01*
X82153Y158872D01*
X82256Y158927D01*
X82358Y158985D01*
X82457Y159046D01*
X82555Y159110D01*
X82650Y159178D01*
X82743Y159249D01*
X82834Y159323D01*
X82922Y159400D01*
X83007Y159480D01*
X83090Y159563D01*
X83170Y159648D01*
X83247Y159736D01*
X83321Y159827D01*
X83392Y159920D01*
X83460Y160015D01*
X83524Y160113D01*
X83585Y160212D01*
X83643Y160314D01*
X83698Y160417D01*
X83749Y160523D01*
X83796Y160630D01*
X83840Y160738D01*
X83880Y160848D01*
X83917Y160959D01*
X83950Y161071D01*
X83979Y161185D01*
X84004Y161299D01*
X84025Y161414D01*
X84043Y161530D01*
X84056Y161646D01*
X84066Y161762D01*
X84072Y161879D01*
X84074Y161996D01*
X84074Y170744D01*
X84072Y170861D01*
X84066Y170978D01*
X84056Y171094D01*
X84043Y171210D01*
X84025Y171326D01*
X84004Y171441D01*
X83979Y171555D01*
X83950Y171669D01*
X83917Y171781D01*
X83880Y171892D01*
X83840Y172002D01*
X83796Y172110D01*
X83749Y172217D01*
X83698Y172323D01*
X83643Y172426D01*
X83585Y172528D01*
X83524Y172627D01*
X83460Y172725D01*
X83392Y172820D01*
X83321Y172913D01*
X83247Y173004D01*
X83170Y173092D01*
X83090Y173177D01*
X83007Y173260D01*
X82922Y173340D01*
X82834Y173417D01*
X82743Y173491D01*
X82650Y173562D01*
X82555Y173630D01*
X82457Y173694D01*
X82358Y173755D01*
X82256Y173813D01*
X82153Y173868D01*
X82047Y173919D01*
X81940Y173966D01*
X81832Y174010D01*
X81722Y174050D01*
X81611Y174087D01*
X81499Y174120D01*
X81385Y174149D01*
X81271Y174174D01*
X81156Y174195D01*
X81041Y174213D01*
X80924Y174226D01*
X80808Y174236D01*
X80691Y174242D01*
X80574Y174244D01*
X75325Y174244D01*
X67401Y174244D02*
X67401Y158496D01*
X58652Y158496D02*
X67401Y174244D01*
X58652Y174244D02*
X58652Y158496D01*
X50727Y158496D02*
X50727Y174244D01*
X46353Y174244D01*
X46223Y174242D01*
X46094Y174236D01*
X45965Y174227D01*
X45836Y174213D01*
X45707Y174196D01*
X45579Y174175D01*
X45452Y174150D01*
X45326Y174122D01*
X45200Y174089D01*
X45076Y174053D01*
X44952Y174014D01*
X44830Y173970D01*
X44709Y173923D01*
X44590Y173873D01*
X44472Y173819D01*
X44356Y173761D01*
X44241Y173700D01*
X44129Y173636D01*
X44018Y173569D01*
X43909Y173498D01*
X43803Y173424D01*
X43699Y173347D01*
X43597Y173267D01*
X43498Y173183D01*
X43401Y173097D01*
X43306Y173008D01*
X43215Y172917D01*
X43126Y172822D01*
X43040Y172725D01*
X42956Y172626D01*
X42876Y172524D01*
X42799Y172420D01*
X42725Y172314D01*
X42654Y172205D01*
X42587Y172094D01*
X42523Y171982D01*
X42462Y171867D01*
X42404Y171751D01*
X42350Y171633D01*
X42300Y171514D01*
X42253Y171393D01*
X42209Y171271D01*
X42170Y171147D01*
X42134Y171023D01*
X42101Y170897D01*
X42073Y170771D01*
X42048Y170644D01*
X42027Y170516D01*
X42010Y170387D01*
X41996Y170258D01*
X41987Y170129D01*
X41981Y170000D01*
X41979Y169870D01*
X41979Y162870D01*
X41981Y162740D01*
X41987Y162611D01*
X41996Y162482D01*
X42010Y162353D01*
X42027Y162224D01*
X42048Y162096D01*
X42073Y161969D01*
X42101Y161843D01*
X42134Y161717D01*
X42170Y161593D01*
X42209Y161469D01*
X42253Y161347D01*
X42300Y161226D01*
X42350Y161107D01*
X42404Y160989D01*
X42462Y160873D01*
X42523Y160758D01*
X42587Y160646D01*
X42654Y160535D01*
X42725Y160426D01*
X42799Y160320D01*
X42876Y160216D01*
X42956Y160114D01*
X43040Y160015D01*
X43126Y159918D01*
X43215Y159823D01*
X43306Y159732D01*
X43401Y159643D01*
X43498Y159557D01*
X43597Y159473D01*
X43699Y159393D01*
X43803Y159316D01*
X43909Y159242D01*
X44018Y159171D01*
X44129Y159104D01*
X44241Y159040D01*
X44356Y158979D01*
X44472Y158921D01*
X44590Y158867D01*
X44709Y158817D01*
X44830Y158770D01*
X44952Y158726D01*
X45076Y158687D01*
X45200Y158651D01*
X45326Y158618D01*
X45452Y158590D01*
X45579Y158565D01*
X45707Y158544D01*
X45836Y158527D01*
X45965Y158513D01*
X46094Y158504D01*
X46223Y158498D01*
X46353Y158496D01*
X50727Y158496D01*
X75325Y141845D02*
X77950Y141845D01*
X75325Y141845D02*
X75325Y133096D01*
X80574Y133096D01*
X80691Y133098D01*
X80808Y133104D01*
X80924Y133114D01*
X81041Y133127D01*
X81156Y133145D01*
X81271Y133166D01*
X81385Y133191D01*
X81499Y133220D01*
X81611Y133253D01*
X81722Y133290D01*
X81832Y133330D01*
X81940Y133374D01*
X82047Y133421D01*
X82153Y133472D01*
X82256Y133527D01*
X82358Y133585D01*
X82457Y133646D01*
X82555Y133710D01*
X82650Y133778D01*
X82743Y133849D01*
X82834Y133923D01*
X82922Y134000D01*
X83007Y134080D01*
X83090Y134163D01*
X83170Y134248D01*
X83247Y134336D01*
X83321Y134427D01*
X83392Y134520D01*
X83460Y134615D01*
X83524Y134713D01*
X83585Y134812D01*
X83643Y134914D01*
X83698Y135017D01*
X83749Y135123D01*
X83796Y135230D01*
X83840Y135338D01*
X83880Y135448D01*
X83917Y135559D01*
X83950Y135671D01*
X83979Y135785D01*
X84004Y135899D01*
X84025Y136014D01*
X84043Y136130D01*
X84056Y136246D01*
X84066Y136362D01*
X84072Y136479D01*
X84074Y136596D01*
X84074Y145344D01*
X84072Y145461D01*
X84066Y145578D01*
X84056Y145694D01*
X84043Y145810D01*
X84025Y145926D01*
X84004Y146041D01*
X83979Y146155D01*
X83950Y146269D01*
X83917Y146381D01*
X83880Y146492D01*
X83840Y146602D01*
X83796Y146710D01*
X83749Y146817D01*
X83698Y146923D01*
X83643Y147026D01*
X83585Y147128D01*
X83524Y147227D01*
X83460Y147325D01*
X83392Y147420D01*
X83321Y147513D01*
X83247Y147604D01*
X83170Y147692D01*
X83090Y147777D01*
X83007Y147860D01*
X82922Y147940D01*
X82834Y148017D01*
X82743Y148091D01*
X82650Y148162D01*
X82555Y148230D01*
X82457Y148294D01*
X82358Y148355D01*
X82256Y148413D01*
X82153Y148468D01*
X82047Y148519D01*
X81940Y148566D01*
X81832Y148610D01*
X81722Y148650D01*
X81611Y148687D01*
X81499Y148720D01*
X81385Y148749D01*
X81271Y148774D01*
X81156Y148795D01*
X81041Y148813D01*
X80924Y148826D01*
X80808Y148836D01*
X80691Y148842D01*
X80574Y148844D01*
X75325Y148844D01*
X67401Y148844D02*
X67401Y133096D01*
X58652Y133096D02*
X67401Y148844D01*
X58652Y148844D02*
X58652Y133096D01*
X50727Y133096D02*
X50727Y148844D01*
X46353Y148844D01*
X46223Y148842D01*
X46094Y148836D01*
X45965Y148827D01*
X45836Y148813D01*
X45707Y148796D01*
X45579Y148775D01*
X45452Y148750D01*
X45326Y148722D01*
X45200Y148689D01*
X45076Y148653D01*
X44952Y148614D01*
X44830Y148570D01*
X44709Y148523D01*
X44590Y148473D01*
X44472Y148419D01*
X44356Y148361D01*
X44241Y148300D01*
X44129Y148236D01*
X44018Y148169D01*
X43909Y148098D01*
X43803Y148024D01*
X43699Y147947D01*
X43597Y147867D01*
X43498Y147783D01*
X43401Y147697D01*
X43306Y147608D01*
X43215Y147517D01*
X43126Y147422D01*
X43040Y147325D01*
X42956Y147226D01*
X42876Y147124D01*
X42799Y147020D01*
X42725Y146914D01*
X42654Y146805D01*
X42587Y146694D01*
X42523Y146582D01*
X42462Y146467D01*
X42404Y146351D01*
X42350Y146233D01*
X42300Y146114D01*
X42253Y145993D01*
X42209Y145871D01*
X42170Y145747D01*
X42134Y145623D01*
X42101Y145497D01*
X42073Y145371D01*
X42048Y145244D01*
X42027Y145116D01*
X42010Y144987D01*
X41996Y144858D01*
X41987Y144729D01*
X41981Y144600D01*
X41979Y144470D01*
X41979Y137470D01*
X41981Y137340D01*
X41987Y137211D01*
X41996Y137082D01*
X42010Y136953D01*
X42027Y136824D01*
X42048Y136696D01*
X42073Y136569D01*
X42101Y136443D01*
X42134Y136317D01*
X42170Y136193D01*
X42209Y136069D01*
X42253Y135947D01*
X42300Y135826D01*
X42350Y135707D01*
X42404Y135589D01*
X42462Y135473D01*
X42523Y135358D01*
X42587Y135246D01*
X42654Y135135D01*
X42725Y135026D01*
X42799Y134920D01*
X42876Y134816D01*
X42956Y134714D01*
X43040Y134615D01*
X43126Y134518D01*
X43215Y134423D01*
X43306Y134332D01*
X43401Y134243D01*
X43498Y134157D01*
X43597Y134073D01*
X43699Y133993D01*
X43803Y133916D01*
X43909Y133842D01*
X44018Y133771D01*
X44129Y133704D01*
X44241Y133640D01*
X44356Y133579D01*
X44472Y133521D01*
X44590Y133467D01*
X44709Y133417D01*
X44830Y133370D01*
X44952Y133326D01*
X45076Y133287D01*
X45200Y133251D01*
X45326Y133218D01*
X45452Y133190D01*
X45579Y133165D01*
X45707Y133144D01*
X45836Y133127D01*
X45965Y133113D01*
X46094Y133104D01*
X46223Y133098D01*
X46353Y133096D01*
X50727Y133096D01*
M02*
