G04 EAGLE Gerber RS-274X export*
G75*
%MOMM*%
%FSLAX34Y34*%
%LPD*%
%INSoldermask Bottom*%
%IPPOS*%
%AMOC8*
5,1,8,0,0,1.08239X$1,22.5*%
G01*
%ADD10P,1.649562X8X292.500000*%
%ADD11P,1.649562X8X202.500000*%
%ADD12P,1.649562X8X112.500000*%
%ADD13C,1.524000*%
%ADD14C,2.082800*%
%ADD15C,1.611200*%
%ADD16C,0.959600*%


D10*
X339090Y419100D03*
X339090Y393700D03*
D11*
X179070Y138430D03*
X153670Y138430D03*
D10*
X339090Y217170D03*
X339090Y191770D03*
X389890Y482600D03*
X389890Y457200D03*
X111760Y481330D03*
X111760Y455930D03*
D11*
X444500Y393700D03*
X368300Y393700D03*
D12*
X111760Y349250D03*
X111760Y425450D03*
X151130Y349250D03*
X151130Y425450D03*
D10*
X73660Y425450D03*
X73660Y349250D03*
D13*
X209296Y419100D02*
X222504Y419100D01*
X222504Y393700D02*
X209296Y393700D01*
X209296Y368300D02*
X222504Y368300D01*
X222504Y342900D02*
X209296Y342900D01*
X209296Y317500D02*
X222504Y317500D01*
X222504Y292100D02*
X209296Y292100D01*
X209296Y266700D02*
X222504Y266700D01*
X222504Y241300D02*
X209296Y241300D01*
X209296Y215900D02*
X222504Y215900D01*
X222504Y190500D02*
X209296Y190500D01*
X209296Y165100D02*
X222504Y165100D01*
X222504Y139700D02*
X209296Y139700D01*
X209296Y114300D02*
X222504Y114300D01*
X222504Y88900D02*
X209296Y88900D01*
X285496Y88900D02*
X298704Y88900D01*
X298704Y114300D02*
X285496Y114300D01*
X285496Y139700D02*
X298704Y139700D01*
X298704Y165100D02*
X285496Y165100D01*
X285496Y190500D02*
X298704Y190500D01*
X298704Y215900D02*
X285496Y215900D01*
X285496Y241300D02*
X298704Y241300D01*
X298704Y266700D02*
X285496Y266700D01*
X285496Y292100D02*
X298704Y292100D01*
X298704Y317500D02*
X285496Y317500D01*
X285496Y342900D02*
X298704Y342900D01*
X298704Y368300D02*
X285496Y368300D01*
X285496Y393700D02*
X298704Y393700D01*
X298704Y419100D02*
X285496Y419100D01*
D14*
X397510Y121920D03*
X397510Y95250D03*
X469900Y368300D03*
X469900Y342900D03*
X469900Y317500D03*
X469900Y292100D03*
X469900Y266700D03*
X469900Y241300D03*
X469900Y215900D03*
X469900Y190500D03*
X469900Y165100D03*
X469900Y139700D03*
X25400Y241300D03*
X25400Y215900D03*
X25400Y190500D03*
X25400Y165100D03*
X25400Y139700D03*
X25400Y368300D03*
X25400Y342900D03*
X25400Y317500D03*
X25400Y292100D03*
X25400Y266700D03*
X38100Y88900D03*
X38100Y63500D03*
X38100Y38100D03*
X154940Y22860D03*
X154940Y48260D03*
D15*
X211220Y53330D03*
X236220Y53330D03*
X261220Y53330D03*
X261220Y20330D03*
X236220Y20330D03*
X211220Y20330D03*
D14*
X120650Y24130D03*
X120650Y49530D03*
X120650Y74930D03*
X120650Y100330D03*
X426720Y20320D03*
X401320Y20320D03*
X375920Y20320D03*
X350520Y20320D03*
X325120Y20320D03*
X299720Y20320D03*
X205740Y480060D03*
X231140Y480060D03*
X256540Y480060D03*
X281940Y480060D03*
X307340Y480060D03*
X455930Y20320D03*
X455930Y45720D03*
X455930Y71120D03*
X455930Y96520D03*
X429260Y469900D03*
X480060Y469900D03*
X73660Y469900D03*
X22860Y469900D03*
D16*
X292100Y444500D03*
X38354Y114300D03*
X38100Y444500D03*
X337820Y71120D03*
X283210Y66040D03*
X370840Y121920D03*
X370840Y165100D03*
X347980Y95250D03*
X347980Y139700D03*
X370840Y81280D03*
X350520Y60960D03*
X127000Y393700D03*
X127000Y368300D03*
X127000Y190500D03*
X88900Y190500D03*
X88900Y139700D03*
M02*
