M48
;GenerationSoftware,Autodesk,EAGLE,9.6.2*%
;CreationDate,2022-04-24T15:33:41Z*%
FMAT,2
ICI,OFF
METRIC,TZ,000.000
T5C0.350
T4C0.813
T3C0.900
T2C1.016
%
G90
M71
T2
X2540Y34290
X46990Y36830
X46990Y34290
X46990Y31750
X46990Y29210
X15494Y4826
X15494Y2286
X3810Y3810
X3810Y6350
X3810Y8890
X2540Y26670
X2540Y29210
X2540Y31750
X39751Y9525
X2540Y36830
X2540Y13970
X2540Y16510
X2540Y19050
X2540Y21590
X2540Y24130
X46990Y13970
X46990Y16510
X46990Y19050
X46990Y21590
X46990Y24130
X46990Y26670
X20574Y48006
X2286Y46990
X7366Y46990
X48006Y46990
X42926Y46990
X45593Y9652
X45593Y7112
X45593Y4572
X45593Y2032
X30734Y48006
X28194Y48006
X25654Y48006
X23114Y48006
X29972Y2032
X32512Y2032
X35052Y2032
X37592Y2032
X40132Y2032
X42672Y2032
X12065Y10033
X12065Y7493
X12065Y4953
X12065Y2413
X39751Y12192
T3
X21122Y5333
X23622Y5333
X26122Y5333
X26122Y2033
X23622Y2033
X21122Y2033
T4
X29210Y36830
X29210Y41910
X29210Y39370
X44450Y39370
X21590Y36830
X21590Y39370
X21590Y41910
X7366Y34925
X7366Y42545
X15113Y42545
X15113Y34925
X11176Y42545
X11176Y34925
X36830Y39370
X29210Y34290
X11176Y45593
X11176Y48133
X38989Y45720
X38989Y48260
X33909Y19177
X33909Y21717
X15367Y13843
X17907Y13843
X33909Y39370
X33909Y41910
X21590Y31750
X29210Y31750
X29210Y29210
X29210Y26670
X29210Y24130
X29210Y21590
X29210Y19050
X29210Y16510
X29210Y13970
X29210Y11430
X29210Y8890
X21590Y11430
X21590Y8890
X21590Y34290
X21590Y29210
X21590Y26670
X21590Y24130
X21590Y21590
X21590Y19050
X21590Y16510
X21590Y13970
T5
X3835Y11430
X3810Y44450
X33782Y7112
X28321Y6604
X37084Y12192
X37084Y16510
X34798Y9525
X34798Y13970
X37084Y8128
X35052Y6096
X12700Y39370
X12700Y36830
X12700Y19050
X8890Y19050
X8890Y13970
X29210Y44450
M30